ScienceGothic-BlkExp.ufo
<glyph name="exclam" format="1">
  <advance width="1264"/>
  <unicode hex="0021"/>
  <outline>
    <contour>
      <point x="347" y="135" type="curve" smooth="yes"/>
      <point x="347" y="226" type="line" smooth="yes"/>
      <point x="347" y="343"/>
      <point x="368" y="364"/>
      <point x="488" y="364" type="curve" smooth="yes"/>
      <point x="775" y="364" type="line" smooth="yes"/>
      <point x="895" y="364"/>
      <point x="917" y="343"/>
      <point x="917" y="224" type="curve" smooth="yes"/>
      <point x="917" y="135" type="line" smooth="yes"/>
      <point x="917" y="15"/>
      <point x="896" y="-6"/>
      <point x="776" y="-6" type="curve" smooth="yes"/>
      <point x="488" y="-6" type="line" smooth="yes"/>
      <point x="368" y="-6"/>
      <point x="347" y="15"/>
    </contour>
    <contour>
      <point x="394" y="462" type="line"/>
      <point x="324" y="1400" type="line"/>
      <point x="940" y="1400" type="line"/>
      <point x="870" y="462" type="line"/>
    </contour>
  </outline>
</glyph>
<glyph name="numbersign" format="2">
  <advance width="1930"/>
  <unicode hex="0023"/>
  <outline>
    <contour>
      <point x="160" y="224" type="line"/>
      <point x="219" y="636" type="line"/>
      <point x="1684" y="636" type="line"/>
      <point x="1625" y="224" type="line"/>
    </contour>
    <contour>
      <point x="236" y="765" type="line"/>
      <point x="295" y="1177" type="line"/>
      <point x="1760" y="1177" type="line"/>
      <point x="1701" y="765" type="line"/>
    </contour>
    <contour>
      <point x="434" y="0" type="line"/>
      <point x="632" y="1400" type="line"/>
      <point x="907" y="1400" type="line"/>
      <point x="709" y="0" type="line"/>
    </contour>
    <contour>
      <point x="1014" y="0" type="line"/>
      <point x="1212" y="1400" type="line"/>
      <point x="1487" y="1400" type="line"/>
      <point x="1289" y="0" type="line"/>
    </contour>
  </outline>
  <guideline angle="0" x="0" y="524"/>
  <guideline angle="0" x="0" y="1065"/>
</glyph>
<glyph name="dollar" format="1">
  <advance width="3093"/>
  <unicode hex="0024"/>
  <outline>
    <contour>
      <point x="306" y="410" type="line"/>
      <point x="852" y="462" type="line"/>
      <point x="852" y="372" type="line"/>
      <point x="852" y="372"/>
      <point x="852" y="372"/>
      <point x="852" y="372" type="curve"/>
      <point x="2224" y="372" type="line"/>
      <point x="2224" y="372"/>
      <point x="2224" y="372"/>
      <point x="2224" y="372" type="curve"/>
      <point x="2224" y="514" type="line"/>
      <point x="2224" y="514"/>
      <point x="2224" y="514"/>
      <point x="2224" y="514" type="curve"/>
      <point x="744" y="514" type="line" smooth="yes"/>
      <point x="490" y="514"/>
      <point x="336" y="576"/>
      <point x="336" y="858" type="curve" smooth="yes"/>
      <point x="336" y="1082" type="line" smooth="yes"/>
      <point x="336" y="1358"/>
      <point x="508" y="1414"/>
      <point x="752" y="1414" type="curve" smooth="yes"/>
      <point x="2340" y="1414" type="line" smooth="yes"/>
      <point x="2584" y="1414"/>
      <point x="2750" y="1360"/>
      <point x="2750" y="1086" type="curve" smooth="yes"/>
      <point x="2750" y="1008" type="line"/>
      <point x="2204" y="958" type="line"/>
      <point x="2204" y="1028" type="line"/>
      <point x="2204" y="1028"/>
      <point x="2204" y="1028"/>
      <point x="2204" y="1028" type="curve"/>
      <point x="882" y="1028" type="line"/>
      <point x="882" y="1028"/>
      <point x="882" y="1028"/>
      <point x="882" y="1028" type="curve"/>
      <point x="882" y="900" type="line"/>
      <point x="882" y="900"/>
      <point x="882" y="900"/>
      <point x="882" y="900" type="curve"/>
      <point x="2358" y="900" type="line" smooth="yes"/>
      <point x="2602" y="900"/>
      <point x="2770" y="848"/>
      <point x="2770" y="572" type="curve" smooth="yes"/>
      <point x="2770" y="330" type="line" smooth="yes"/>
      <point x="2770" y="46"/>
      <point x="2614" y="-14"/>
      <point x="2358" y="-14" type="curve" smooth="yes"/>
      <point x="716" y="-14" type="line" smooth="yes"/>
      <point x="462" y="-14"/>
      <point x="306" y="46"/>
      <point x="306" y="328" type="curve" smooth="yes"/>
    </contour>
    <contour>
      <point x="1370" y="-164" type="line"/>
      <point x="1370" y="1564" type="line"/>
      <point x="1712" y="1564" type="line"/>
      <point x="1712" y="-164" type="line"/>
    </contour>
  </outline>
</glyph>
<glyph name="ampersand" format="2">
  <advance width="2920"/>
  <unicode hex="0026"/>
  <outline>
    <contour>
      <point x="421" y="-10" type="line"/>
      <point x="1475" y="-10" type="line" smooth="yes"/>
      <point x="1538" y="-10"/>
      <point x="1651" y="2"/>
      <point x="1753" y="26"/>
      <point x="1846" y="62"/>
      <point x="1889" y="87" type="qcurve"/>
      <point x="1889" y="87" type="line"/>
      <point x="2042" y="0" type="line"/>
      <point x="2920" y="0" type="line"/>
      <point x="2313" y="364" type="line"/>
      <point x="2822" y="649" type="line"/>
      <point x="2385" y="914" type="line"/>
      <point x="1884" y="632" type="line"/>
      <point x="1258" y="1024" type="line"/>
      <point x="1258" y="1024"/>
      <point x="1258" y="1024"/>
      <point x="1258" y="1024"/>
      <point x="1258" y="1024"/>
      <point x="1258" y="1024" type="qcurve"/>
      <point x="1258" y="1048" type="line"/>
      <point x="1258" y="1048"/>
      <point x="1258" y="1048"/>
      <point x="1258" y="1048"/>
      <point x="1258" y="1048"/>
      <point x="1258" y="1048" type="qcurve"/>
      <point x="1805" y="1048" type="line"/>
      <point x="1805" y="1048"/>
      <point x="1805" y="1048"/>
      <point x="1805" y="1048"/>
      <point x="1805" y="1048"/>
      <point x="1805" y="1048" type="qcurve"/>
      <point x="1805" y="936" type="line"/>
      <point x="2270" y="1043" type="line"/>
      <point x="2270" y="1119" type="line" smooth="yes"/>
      <point x="2270" y="1188"/>
      <point x="2223" y="1297"/>
      <point x="2135" y="1373"/>
      <point x="2009" y="1414"/>
      <point x="1929" y="1414" type="qcurve" smooth="yes"/>
      <point x="1093" y="1414" type="line" smooth="yes"/>
      <point x="1016" y="1414"/>
      <point x="892" y="1372"/>
      <point x="805" y="1292"/>
      <point x="759" y="1180"/>
      <point x="759" y="1109" type="qcurve" smooth="yes"/>
      <point x="759" y="1024" type="line"/>
      <point x="759" y="1022"/>
      <point x="759" y="1018"/>
      <point x="759" y="1013"/>
      <point x="759" y="1009"/>
      <point x="759" y="1007" type="qcurve"/>
      <point x="265" y="800" type="line" smooth="yes"/>
      <point x="229" y="785"/>
      <point x="175" y="737"/>
      <point x="138" y="671"/>
      <point x="120" y="587"/>
      <point x="120" y="536" type="qcurve" smooth="yes"/>
      <point x="120" y="246" type="line" smooth="yes"/>
      <point x="120" y="198"/>
      <point x="172" y="106"/>
      <point x="257" y="34"/>
      <point x="365" y="-10"/>
      <point x="421" y="-10" type="qcurve"/>
    </contour>
    <contour>
      <point x="598" y="400" type="line"/>
      <point x="598" y="400"/>
      <point x="598" y="400"/>
      <point x="598" y="400"/>
      <point x="598" y="400"/>
      <point x="598" y="400" type="qcurve"/>
      <point x="598" y="484" type="line"/>
      <point x="598" y="484"/>
      <point x="598" y="484"/>
      <point x="598" y="484"/>
      <point x="598" y="484"/>
      <point x="598" y="484" type="qcurve"/>
      <point x="990" y="679" type="line"/>
      <point x="1400" y="400" type="line"/>
      <point x="1400" y="400" type="line"/>
      <point x="1400" y="400"/>
      <point x="1400" y="400"/>
      <point x="1400" y="400"/>
      <point x="1400" y="400"/>
      <point x="1400" y="400" type="qcurve"/>
    </contour>
  </outline>
</glyph>
<glyph name="quotesingle" format="1">
  <advance width="1000"/>
  <unicode hex="0027"/>
  <outline>
    <contour>
      <point x="215" y="1184" type="line"/>
      <point x="215" y="1333" type="line" smooth="yes"/>
      <point x="215" y="1448"/>
      <point x="217" y="1450"/>
      <point x="314" y="1450" type="curve" smooth="yes"/>
      <point x="686" y="1450" type="line" smooth="yes"/>
      <point x="783" y="1450"/>
      <point x="785" y="1448"/>
      <point x="785" y="1333" type="curve" smooth="yes"/>
      <point x="785" y="1184" type="line"/>
      <point x="645" y="785" type="line"/>
      <point x="355" y="785" type="line"/>
    </contour>
  </outline>
</glyph>
<glyph name="parenleft" format="2">
  <advance width="1011"/>
  <unicode hex="0028"/>
  <outline>
    <contour>
      <point x="921" y="-256" type="line"/>
      <point x="625" y="-256" type="line"/>
      <point x="528" y="-182"/>
      <point x="372" y="17"/>
      <point x="262" y="246"/>
      <point x="203" y="496"/>
      <point x="203" y="622" type="qcurve" smooth="yes"/>
      <point x="203" y="748"/>
      <point x="266" y="998"/>
      <point x="378" y="1228"/>
      <point x="533" y="1426"/>
      <point x="625" y="1500" type="qcurve"/>
      <point x="921" y="1500" type="line"/>
      <point x="880" y="1449"/>
      <point x="806" y="1325"/>
      <point x="742" y="1185"/>
      <point x="691" y="1032"/>
      <point x="655" y="870"/>
      <point x="635" y="705"/>
      <point x="635" y="622" type="qcurve" smooth="yes"/>
      <point x="635" y="540"/>
      <point x="655" y="374"/>
      <point x="691" y="212"/>
      <point x="742" y="59"/>
      <point x="806" y="-81"/>
      <point x="880" y="-205"/>
      <point x="921" y="-256" type="qcurve"/>
    </contour>
  </outline>
</glyph>
<glyph name="asterisk" format="2">
  <advance width="1136"/>
  <unicode hex="002A"/>
  <outline>
    <contour>
      <point x="464" y="782" type="line"/>
      <point x="464" y="975" type="line"/>
      <point x="209" y="832" type="line"/>
      <point x="115" y="986" type="line"/>
      <point x="364" y="1126" type="line"/>
      <point x="115" y="1264" type="line"/>
      <point x="211" y="1420" type="line"/>
      <point x="464" y="1281" type="line"/>
      <point x="464" y="1472" type="line"/>
      <point x="672" y="1472" type="line"/>
      <point x="672" y="1280" type="line"/>
      <point x="927" y="1422" type="line"/>
      <point x="1021" y="1268" type="line"/>
      <point x="770" y="1127" type="line"/>
      <point x="1021" y="984" type="line"/>
      <point x="925" y="828" type="line"/>
      <point x="672" y="972" type="line"/>
      <point x="672" y="782" type="line"/>
    </contour>
  </outline>
</glyph>
<glyph name="plus" format="1">
  <advance width="1794"/>
  <unicode hex="002B"/>
  <outline>
    <contour>
      <point x="1704" y="732" type="line"/>
      <point x="1704" y="442" type="line"/>
      <point x="1068" y="442" type="line"/>
      <point x="1068" y="0" type="line"/>
      <point x="726" y="0" type="line"/>
      <point x="726" y="442" type="line"/>
      <point x="90" y="442" type="line"/>
      <point x="90" y="732" type="line"/>
      <point x="726" y="732" type="line"/>
      <point x="726" y="1168" type="line"/>
      <point x="1068" y="1168" type="line"/>
      <point x="1068" y="732" type="line"/>
    </contour>
  </outline>
</glyph>
<glyph name="comma" format="2">
  <advance width="1110"/>
  <unicode hex="002C"/>
  <outline>
    <contour>
      <point x="270" y="145" type="line"/>
      <point x="270" y="385" type="line" smooth="yes"/>
      <point x="270" y="429"/>
      <point x="280" y="484"/>
      <point x="311" y="514"/>
      <point x="366" y="524"/>
      <point x="411" y="524" type="qcurve" smooth="yes"/>
      <point x="699" y="524" type="line" smooth="yes"/>
      <point x="744" y="524"/>
      <point x="799" y="514"/>
      <point x="830" y="484"/>
      <point x="840" y="429"/>
      <point x="840" y="385" type="qcurve" smooth="yes"/>
      <point x="840" y="145" type="line" smooth="yes"/>
      <point x="840" y="100"/>
      <point x="830" y="45"/>
      <point x="799" y="14"/>
      <point x="744" y="4"/>
      <point x="699" y="4" type="qcurve" smooth="yes"/>
      <point x="411" y="4" type="line" smooth="yes"/>
      <point x="366" y="4"/>
      <point x="311" y="14"/>
      <point x="280" y="45"/>
      <point x="270" y="100"/>
      <point x="270" y="145" type="qcurve"/>
    </contour>
    <contour>
      <point x="322" y="-298" type="line"/>
      <point x="490" y="22" type="line"/>
      <point x="820" y="36" type="line"/>
      <point x="534" y="-342" type="line"/>
      <point x="322" y="-298" type="line"/>
    </contour>
  </outline>
</glyph>
<glyph name="hyphen" format="1">
  <advance width="1704"/>
  <unicode hex="002D"/>
  <outline>
    <contour>
      <point x="252" y="818" type="line"/>
      <point x="1452" y="818" type="line"/>
      <point x="1452" y="406" type="line"/>
      <point x="252" y="406" type="line"/>
    </contour>
  </outline>
</glyph>
<glyph name="period" format="1">
  <advance width="1218"/>
  <unicode hex="002E"/>
  <outline>
    <contour>
      <point x="324" y="135" type="curve" smooth="yes"/>
      <point x="324" y="386" type="line" smooth="yes"/>
      <point x="324" y="503"/>
      <point x="345" y="524"/>
      <point x="465" y="524" type="curve" smooth="yes"/>
      <point x="752" y="524" type="line" smooth="yes"/>
      <point x="872" y="524"/>
      <point x="894" y="503"/>
      <point x="894" y="384" type="curve" smooth="yes"/>
      <point x="894" y="135" type="line" smooth="yes"/>
      <point x="894" y="15"/>
      <point x="873" y="-6"/>
      <point x="753" y="-6" type="curve" smooth="yes"/>
      <point x="465" y="-6" type="line" smooth="yes"/>
      <point x="345" y="-6"/>
      <point x="324" y="15"/>
    </contour>
  </outline>
</glyph>
<glyph name="slash" format="1">
  <advance width="1860"/>
  <unicode hex="002F"/>
  <outline>
    <contour>
      <point x="1219" y="1430" type="line"/>
      <point x="1698" y="1430" type="line"/>
      <point x="641" y="-100" type="line"/>
      <point x="162" y="-100" type="line"/>
    </contour>
  </outline>
</glyph>
<glyph name="zero" format="1">
  <advance width="3032" height="1448"/>
  <unicode hex="0030"/>
  <outline>
    <contour>
      <point x="772" y="-14" type="curve" smooth="yes"/>
      <point x="2258" y="-14" type="line" smooth="yes"/>
      <point x="2522" y="-14"/>
      <point x="2672" y="56"/>
      <point x="2672" y="332" type="curve" smooth="yes"/>
      <point x="2672" y="1080" type="line" smooth="yes"/>
      <point x="2672" y="1348"/>
      <point x="2510" y="1414"/>
      <point x="2258" y="1414" type="curve" smooth="yes"/>
      <point x="772" y="1414" type="line" smooth="yes"/>
      <point x="520" y="1414"/>
      <point x="360" y="1348"/>
      <point x="360" y="1080" type="curve" smooth="yes"/>
      <point x="360" y="332" type="line" smooth="yes"/>
      <point x="360" y="58"/>
      <point x="508" y="-14"/>
    </contour>
    <contour>
      <point x="932" y="470" type="line"/>
      <point x="932" y="470"/>
      <point x="932" y="470"/>
      <point x="932" y="470" type="curve"/>
      <point x="932" y="930" type="line"/>
      <point x="932" y="930"/>
      <point x="932" y="930"/>
      <point x="932" y="930" type="curve"/>
      <point x="2100" y="930" type="line"/>
      <point x="2100" y="930"/>
      <point x="2100" y="930"/>
      <point x="2100" y="930" type="curve"/>
      <point x="2100" y="470" type="line"/>
      <point x="2100" y="470"/>
      <point x="2100" y="470"/>
      <point x="2100" y="470" type="curve"/>
    </contour>
  </outline>
</glyph>
<glyph name="one" format="1">
  <advance width="1664" height="1448"/>
  <unicode hex="0031"/>
  <outline>
    <contour>
      <point x="660" y="0" type="line"/>
      <point x="1232" y="0" type="line"/>
      <point x="1232" y="1400" type="line"/>
      <point x="180" y="1270" type="line"/>
      <point x="180" y="868" type="line"/>
      <point x="660" y="898" type="line"/>
    </contour>
  </outline>
</glyph>
<glyph name="two" format="2">
  <advance width="2765"/>
  <unicode hex="0032"/>
  <outline>
    <contour>
      <point x="240" y="0" type="line"/>
      <point x="240" y="340" type="line" smooth="yes"/>
      <point x="240" y="440"/>
      <point x="292" y="610"/>
      <point x="406" y="739"/>
      <point x="585" y="823"/>
      <point x="711" y="836" type="qcurve" smooth="yes"/>
      <point x="1927" y="964" type="line"/>
      <point x="1932" y="964"/>
      <point x="1940" y="969"/>
      <point x="1946" y="975"/>
      <point x="1949" y="983"/>
      <point x="1949" y="987" type="qcurve" smooth="yes"/>
      <point x="1949" y="1028" type="line"/>
      <point x="1949" y="1028"/>
      <point x="1949" y="1028"/>
      <point x="1949" y="1028" type="qcurve"/>
      <point x="795" y="1028" type="line"/>
      <point x="795" y="1028"/>
      <point x="795" y="1028"/>
      <point x="795" y="1028" type="qcurve"/>
      <point x="795" y="912" type="line"/>
      <point x="249" y="1008" type="line"/>
      <point x="249" y="1086" type="line" smooth="yes"/>
      <point x="249" y="1189"/>
      <point x="309" y="1317"/>
      <point x="417" y="1389"/>
      <point x="568" y="1414"/>
      <point x="659" y="1414" type="qcurve" smooth="yes"/>
      <point x="2079" y="1414" type="line" smooth="yes"/>
      <point x="2171" y="1414"/>
      <point x="2323" y="1382"/>
      <point x="2434" y="1301"/>
      <point x="2495" y="1166"/>
      <point x="2495" y="1062" type="qcurve" smooth="yes"/>
      <point x="2495" y="1004" type="line" smooth="yes"/>
      <point x="2495" y="912"/>
      <point x="2454" y="765"/>
      <point x="2349" y="657"/>
      <point x="2167" y="588"/>
      <point x="2027" y="573" type="qcurve" smooth="yes"/>
      <point x="830" y="447" type="line"/>
      <point x="815" y="446"/>
      <point x="797" y="437"/>
      <point x="786" y="426"/>
      <point x="782" y="412"/>
      <point x="782" y="404" type="qcurve" smooth="yes"/>
      <point x="782" y="386" type="line"/>
      <point x="1979" y="386" type="line"/>
      <point x="1979" y="386"/>
      <point x="1979" y="386"/>
      <point x="1979" y="386" type="qcurve"/>
      <point x="1979" y="492" type="line"/>
      <point x="2525" y="396" type="line"/>
      <point x="2525" y="342" type="line" smooth="yes"/>
      <point x="2525" y="236"/>
      <point x="2468" y="103"/>
      <point x="2362" y="28"/>
      <point x="2210" y="0"/>
      <point x="2115" y="0" type="qcurve" smooth="yes"/>
    </contour>
  </outline>
</glyph>
<glyph name="three" format="1">
  <advance width="2862" height="1448"/>
  <unicode hex="0033"/>
  <outline>
    <contour>
      <point x="306" y="418" type="line"/>
      <point x="778" y="502" type="line"/>
      <point x="778" y="410" type="line"/>
      <point x="778" y="410"/>
      <point x="778" y="410"/>
      <point x="778" y="410" type="curve"/>
      <point x="1910" y="410" type="line" smooth="yes"/>
      <point x="1964" y="410"/>
      <point x="1996" y="430"/>
      <point x="1996" y="468" type="curve" smooth="yes"/>
      <point x="1996" y="484" type="line" smooth="yes"/>
      <point x="1996" y="523"/>
      <point x="1956" y="542"/>
      <point x="1910" y="542" type="curve" smooth="yes"/>
      <point x="1232" y="542" type="line"/>
      <point x="1232" y="856" type="line"/>
      <point x="1856" y="856" type="line" smooth="yes"/>
      <point x="1902" y="856"/>
      <point x="1938" y="879"/>
      <point x="1938" y="915" type="curve" smooth="yes"/>
      <point x="1938" y="935" type="line" smooth="yes"/>
      <point x="1938" y="967"/>
      <point x="1904" y="990"/>
      <point x="1856" y="990" type="curve" smooth="yes"/>
      <point x="790" y="990" type="line"/>
      <point x="790" y="990"/>
      <point x="790" y="990"/>
      <point x="790" y="990" type="curve"/>
      <point x="790" y="880" type="line"/>
      <point x="318" y="964" type="line"/>
      <point x="318" y="1106" type="line" smooth="yes"/>
      <point x="318" y="1310"/>
      <point x="444" y="1414"/>
      <point x="706" y="1414" type="curve" smooth="yes"/>
      <point x="2092" y="1414" type="line" smooth="yes"/>
      <point x="2354" y="1414"/>
      <point x="2480" y="1300"/>
      <point x="2480" y="1096" type="curve" smooth="yes"/>
      <point x="2480" y="1014" type="line" smooth="yes"/>
      <point x="2480" y="834"/>
      <point x="2414" y="746"/>
      <point x="2254" y="720" type="curve"/>
      <point x="2426" y="708"/>
      <point x="2538" y="628"/>
      <point x="2538" y="408" type="curve" smooth="yes"/>
      <point x="2538" y="316" type="line" smooth="yes"/>
      <point x="2538" y="62"/>
      <point x="2374" y="-14"/>
      <point x="2130" y="-14" type="curve" smooth="yes"/>
      <point x="694" y="-14" type="line" smooth="yes"/>
      <point x="452" y="-14"/>
      <point x="306" y="52"/>
      <point x="306" y="306" type="curve" smooth="yes"/>
    </contour>
  </outline>
</glyph>
<glyph name="four" format="1">
  <advance width="2854"/>
  <unicode hex="0034"/>
  <outline>
    <contour>
      <point x="90" y="238" type="line"/>
      <point x="1785" y="238" type="line"/>
      <point x="1785" y="0" type="line"/>
      <point x="2357" y="0" type="line"/>
      <point x="2357" y="238" type="line"/>
      <point x="2764" y="238" type="line"/>
      <point x="2764" y="640" type="line"/>
      <point x="2357" y="640" type="line"/>
      <point x="2357" y="1400" type="line"/>
      <point x="1697" y="1400" type="line"/>
      <point x="90" y="688" type="line"/>
    </contour>
    <contour>
      <point x="908" y="640" type="line"/>
      <point x="1785" y="1029" type="line"/>
      <point x="1785" y="640" type="line"/>
    </contour>
  </outline>
</glyph>
<glyph name="five" format="2">
  <advance width="2510"/>
  <unicode hex="0035"/>
  <outline>
    <contour>
      <point x="1240" y="-12" type="line"/>
      <point x="1108" y="-12"/>
      <point x="845" y="-3"/>
      <point x="606" y="12"/>
      <point x="403" y="33"/>
      <point x="330" y="44" type="qcurve"/>
      <point x="242" y="376" type="line"/>
      <point x="286" y="370"/>
      <point x="393" y="361"/>
      <point x="523" y="356"/>
      <point x="677" y="353"/>
      <point x="855" y="352"/>
      <point x="1059" y="352"/>
      <point x="1174" y="352" type="qcurve" smooth="yes"/>
      <point x="1343" y="352"/>
      <point x="1577" y="360"/>
      <point x="1724" y="378"/>
      <point x="1790" y="409"/>
      <point x="1790" y="432" type="qcurve" smooth="yes"/>
      <point x="1790" y="456"/>
      <point x="1727" y="486"/>
      <point x="1578" y="504"/>
      <point x="1331" y="510"/>
      <point x="1146" y="510" type="qcurve" smooth="yes"/>
      <point x="980" y="510"/>
      <point x="718" y="507"/>
      <point x="503" y="498"/>
      <point x="324" y="485"/>
      <point x="240" y="474" type="qcurve"/>
      <point x="316" y="1400" type="line"/>
      <point x="2188" y="1400" type="line"/>
      <point x="2096" y="970" type="line"/>
      <point x="639" y="970" type="line"/>
      <point x="629" y="850" type="line"/>
      <point x="675" y="855"/>
      <point x="813" y="865"/>
      <point x="994" y="872"/>
      <point x="1215" y="876"/>
      <point x="1342" y="876" type="qcurve" smooth="yes"/>
      <point x="1527" y="876"/>
      <point x="1823" y="856"/>
      <point x="2050" y="813"/>
      <point x="2213" y="745"/>
      <point x="2317" y="648"/>
      <point x="2366" y="520"/>
      <point x="2366" y="440" type="qcurve" smooth="yes"/>
      <point x="2366" y="355"/>
      <point x="2307" y="222"/>
      <point x="2185" y="121"/>
      <point x="2001" y="52"/>
      <point x="1751" y="8"/>
      <point x="1433" y="-12"/>
      <point x="1240" y="-12" type="qcurve"/>
    </contour>
  </outline>
</glyph>
<glyph name="six" format="1">
  <advance width="2823"/>
  <unicode hex="0036"/>
  <outline>
    <contour>
      <point x="1420" y="-8" type="curve" smooth="yes"/>
      <point x="2440" y="-8"/>
      <point x="2580" y="14"/>
      <point x="2580" y="450" type="curve" smooth="yes"/>
      <point x="2580" y="914"/>
      <point x="2352" y="922"/>
      <point x="1454" y="922" type="curve" smooth="yes"/>
      <point x="1056" y="922"/>
      <point x="716" y="878"/>
      <point x="520" y="808" type="curve"/>
      <point x="520" y="500" type="line"/>
      <point x="712" y="532"/>
      <point x="1100" y="556"/>
      <point x="1436" y="556" type="curve" smooth="yes"/>
      <point x="1932" y="556"/>
      <point x="2008" y="554"/>
      <point x="2008" y="460" type="curve" smooth="yes"/>
      <point x="2008" y="366"/>
      <point x="1968" y="364"/>
      <point x="1420" y="364" type="curve" smooth="yes"/>
      <point x="916" y="364"/>
      <point x="842" y="366"/>
      <point x="842" y="546" type="curve" smooth="yes"/>
      <point x="842" y="1048"/>
      <point x="1138" y="1052"/>
      <point x="1528" y="1052" type="curve" smooth="yes"/>
      <point x="1848" y="1052"/>
      <point x="2081" y="1034"/>
      <point x="2194" y="1004" type="curve"/>
      <point x="1972" y="1382" type="line"/>
      <point x="1912" y="1398"/>
      <point x="1768" y="1418"/>
      <point x="1528" y="1418" type="curve" smooth="yes"/>
      <point x="758" y="1418"/>
      <point x="270" y="1170"/>
      <point x="270" y="478" type="curve" smooth="yes"/>
      <point x="270" y="10"/>
      <point x="456" y="-8"/>
    </contour>
  </outline>
</glyph>
<glyph name="seven" format="1">
  <advance width="2559"/>
  <unicode hex="0037"/>
  <outline>
    <contour>
      <point x="585" y="0" type="line"/>
      <point x="1376" y="0" type="line"/>
      <point x="2469" y="1078" type="line"/>
      <point x="2469" y="1400" type="line"/>
      <point x="143" y="1400" type="line"/>
      <point x="143" y="973" type="line"/>
      <point x="687" y="874" type="line"/>
      <point x="687" y="1000" type="line"/>
      <point x="1639" y="1000" type="line"/>
    </contour>
  </outline>
</glyph>
<glyph name="eight" format="2">
  <advance width="2942"/>
  <unicode hex="0038"/>
  <outline>
    <contour>
      <point x="791" y="429" type="line" smooth="yes"/>
      <point x="791" y="414"/>
      <point x="802" y="390"/>
      <point x="825" y="374"/>
      <point x="858" y="365"/>
      <point x="880" y="365" type="qcurve" smooth="yes"/>
      <point x="2062" y="365" type="line" smooth="yes"/>
      <point x="2084" y="365"/>
      <point x="2117" y="374"/>
      <point x="2140" y="390"/>
      <point x="2151" y="414"/>
      <point x="2151" y="429" type="qcurve" smooth="yes"/>
      <point x="2151" y="457" type="line" smooth="yes"/>
      <point x="2151" y="472"/>
      <point x="2140" y="496"/>
      <point x="2117" y="512"/>
      <point x="2084" y="521"/>
      <point x="2062" y="521" type="qcurve" smooth="yes"/>
      <point x="880" y="521" type="line" smooth="yes"/>
      <point x="858" y="521"/>
      <point x="825" y="512"/>
      <point x="802" y="496"/>
      <point x="791" y="472"/>
      <point x="791" y="457" type="qcurve" smooth="yes"/>
    </contour>
    <contour>
      <point x="2118" y="971" type="line" smooth="yes"/>
      <point x="2118" y="986"/>
      <point x="2107" y="1009"/>
      <point x="2084" y="1025"/>
      <point x="2051" y="1034"/>
      <point x="2029" y="1034" type="qcurve" smooth="yes"/>
      <point x="913" y="1034" type="line" smooth="yes"/>
      <point x="891" y="1034"/>
      <point x="858" y="1025"/>
      <point x="835" y="1009"/>
      <point x="824" y="986"/>
      <point x="824" y="971" type="qcurve" smooth="yes"/>
      <point x="824" y="957" type="line" smooth="yes"/>
      <point x="824" y="942"/>
      <point x="835" y="919"/>
      <point x="858" y="903"/>
      <point x="891" y="894"/>
      <point x="913" y="894" type="qcurve" smooth="yes"/>
      <point x="2029" y="894" type="line" smooth="yes"/>
      <point x="2051" y="894"/>
      <point x="2084" y="903"/>
      <point x="2107" y="919"/>
      <point x="2118" y="942"/>
      <point x="2118" y="957" type="qcurve" smooth="yes"/>
    </contour>
    <contour>
      <point x="270" y="339" type="line"/>
      <point x="270" y="392" type="line" smooth="yes"/>
      <point x="270" y="477"/>
      <point x="304" y="592"/>
      <point x="360" y="665"/>
      <point x="430" y="703"/>
      <point x="467" y="712" type="qcurve"/>
      <point x="432" y="721"/>
      <point x="371" y="765"/>
      <point x="326" y="833"/>
      <point x="300" y="923"/>
      <point x="300" y="977" type="qcurve" smooth="yes"/>
      <point x="300" y="1075" type="line" smooth="yes"/>
      <point x="300" y="1153"/>
      <point x="350" y="1278"/>
      <point x="451" y="1367"/>
      <point x="602" y="1414"/>
      <point x="702" y="1414" type="qcurve" smooth="yes"/>
      <point x="2241" y="1414" type="line" smooth="yes"/>
      <point x="2342" y="1414"/>
      <point x="2492" y="1367"/>
      <point x="2592" y="1279"/>
      <point x="2642" y="1154"/>
      <point x="2642" y="1076" type="qcurve" smooth="yes"/>
      <point x="2642" y="977" type="line" smooth="yes"/>
      <point x="2642" y="923"/>
      <point x="2615" y="833"/>
      <point x="2570" y="765"/>
      <point x="2510" y="721"/>
      <point x="2476" y="712" type="qcurve"/>
      <point x="2512" y="704"/>
      <point x="2583" y="667"/>
      <point x="2638" y="595"/>
      <point x="2672" y="481"/>
      <point x="2672" y="396" type="qcurve" smooth="yes"/>
      <point x="2672" y="340" type="line" smooth="yes"/>
      <point x="2672" y="239"/>
      <point x="2608" y="103"/>
      <point x="2494" y="21"/>
      <point x="2338" y="-14"/>
      <point x="2246" y="-14" type="qcurve" smooth="yes"/>
      <point x="695" y="-14" type="line" smooth="yes"/>
      <point x="605" y="-14"/>
      <point x="449" y="20"/>
      <point x="335" y="102"/>
      <point x="270" y="238"/>
      <point x="270" y="339" type="qcurve"/>
    </contour>
  </outline>
</glyph>
<glyph name="nine" format="1">
  <advance width="2922"/>
  <unicode hex="0039"/>
  <outline>
    <contour>
      <point x="1448" y="1414" type="curve" smooth="yes"/>
      <point x="428" y="1414"/>
      <point x="288" y="1392"/>
      <point x="288" y="956" type="curve" smooth="yes"/>
      <point x="288" y="492"/>
      <point x="516" y="484"/>
      <point x="1414" y="484" type="curve" smooth="yes"/>
      <point x="1812" y="484"/>
      <point x="2152" y="529"/>
      <point x="2348" y="600" type="curve"/>
      <point x="2348" y="912" type="line"/>
      <point x="2156" y="880"/>
      <point x="1768" y="856"/>
      <point x="1432" y="856" type="curve" smooth="yes"/>
      <point x="936" y="856"/>
      <point x="860" y="858"/>
      <point x="860" y="952" type="curve" smooth="yes"/>
      <point x="860" y="1046"/>
      <point x="900" y="1048"/>
      <point x="1448" y="1048" type="curve" smooth="yes"/>
      <point x="1952" y="1048"/>
      <point x="2026" y="1046"/>
      <point x="2026" y="860" type="curve" smooth="yes"/>
      <point x="2026" y="358"/>
      <point x="1730" y="352"/>
      <point x="1340" y="352" type="curve" smooth="yes"/>
      <point x="1020" y="352"/>
      <point x="787" y="370"/>
      <point x="674" y="400" type="curve"/>
      <point x="896" y="22" type="line"/>
      <point x="956" y="6"/>
      <point x="1100" y="-14"/>
      <point x="1340" y="-14" type="curve" smooth="yes"/>
      <point x="2110" y="-14"/>
      <point x="2598" y="236"/>
      <point x="2598" y="928" type="curve" smooth="yes"/>
      <point x="2598" y="1396"/>
      <point x="2412" y="1414"/>
    </contour>
  </outline>
</glyph>
<glyph name="colon" format="1">
  <advance width="1218"/>
  <unicode hex="003A"/>
  <outline>
    <contour>
      <point x="324" y="135" type="curve" smooth="yes"/>
      <point x="324" y="316" type="line" smooth="yes"/>
      <point x="324" y="433"/>
      <point x="345" y="454"/>
      <point x="465" y="454" type="curve" smooth="yes"/>
      <point x="752" y="454" type="line" smooth="yes"/>
      <point x="872" y="454"/>
      <point x="894" y="433"/>
      <point x="894" y="314" type="curve" smooth="yes"/>
      <point x="894" y="135" type="line" smooth="yes"/>
      <point x="894" y="15"/>
      <point x="873" y="-6"/>
      <point x="753" y="-6" type="curve" smooth="yes"/>
      <point x="465" y="-6" type="line" smooth="yes"/>
      <point x="345" y="-6"/>
      <point x="324" y="15"/>
    </contour>
    <contour>
      <point x="324" y="715" type="curve" smooth="yes"/>
      <point x="324" y="896" type="line" smooth="yes"/>
      <point x="324" y="1013"/>
      <point x="345" y="1034"/>
      <point x="465" y="1034" type="curve" smooth="yes"/>
      <point x="752" y="1034" type="line" smooth="yes"/>
      <point x="872" y="1034"/>
      <point x="894" y="1013"/>
      <point x="894" y="894" type="curve" smooth="yes"/>
      <point x="894" y="715" type="line" smooth="yes"/>
      <point x="894" y="595"/>
      <point x="873" y="574"/>
      <point x="753" y="574" type="curve" smooth="yes"/>
      <point x="465" y="574" type="line" smooth="yes"/>
      <point x="345" y="574"/>
      <point x="324" y="595"/>
    </contour>
  </outline>
</glyph>
<glyph name="semicolon" format="1">
  <advance width="1218"/>
  <unicode hex="003B"/>
  <outline>
    <contour>
      <point x="324" y="715" type="curve" smooth="yes"/>
      <point x="324" y="896" type="line" smooth="yes"/>
      <point x="324" y="1013"/>
      <point x="345" y="1034"/>
      <point x="465" y="1034" type="curve" smooth="yes"/>
      <point x="752" y="1034" type="line" smooth="yes"/>
      <point x="872" y="1034"/>
      <point x="894" y="1013"/>
      <point x="894" y="894" type="curve" smooth="yes"/>
      <point x="894" y="715" type="line" smooth="yes"/>
      <point x="894" y="595"/>
      <point x="873" y="574"/>
      <point x="753" y="574" type="curve" smooth="yes"/>
      <point x="465" y="574" type="line" smooth="yes"/>
      <point x="345" y="574"/>
      <point x="324" y="595"/>
    </contour>
    <contour>
      <point x="324" y="145" type="curve" smooth="yes"/>
      <point x="324" y="315" type="line" smooth="yes"/>
      <point x="324" y="433"/>
      <point x="345" y="454"/>
      <point x="465" y="454" type="curve" smooth="yes"/>
      <point x="753" y="454" type="line" smooth="yes"/>
      <point x="873" y="454"/>
      <point x="894" y="433"/>
      <point x="894" y="315" type="curve" smooth="yes"/>
      <point x="894" y="145" type="line" smooth="yes"/>
      <point x="894" y="25"/>
      <point x="873" y="4"/>
      <point x="753" y="4" type="curve" smooth="yes"/>
      <point x="465" y="4" type="line" smooth="yes"/>
      <point x="345" y="4"/>
      <point x="324" y="25"/>
    </contour>
    <contour>
      <point x="376" y="-298" type="curve"/>
      <point x="376" y="-298"/>
      <point x="544" y="22"/>
      <point x="544" y="22" type="curve"/>
      <point x="874" y="36" type="line"/>
      <point x="588" y="-342" type="line"/>
      <point x="588" y="-342"/>
      <point x="376" y="-298"/>
    </contour>
  </outline>
</glyph>
<glyph name="question" format="2">
  <advance width="2195"/>
  <unicode hex="003F"/>
  <outline>
    <contour>
      <point x="798" y="462" type="line"/>
      <point x="798" y="658" type="line" smooth="yes"/>
      <point x="798" y="702"/>
      <point x="824" y="784"/>
      <point x="888" y="848"/>
      <point x="998" y="888"/>
      <point x="1083" y="890" type="qcurve" smooth="yes"/>
      <point x="1450" y="900" type="line"/>
      <point x="1450" y="900"/>
      <point x="1450" y="900"/>
      <point x="1450" y="900"/>
      <point x="1450" y="900"/>
      <point x="1450" y="900" type="qcurve"/>
      <point x="1450" y="1028" type="line"/>
      <point x="1450" y="1028"/>
      <point x="1450" y="1028"/>
      <point x="1450" y="1028"/>
      <point x="1450" y="1028"/>
      <point x="1450" y="1028" type="qcurve"/>
      <point x="655" y="1028" type="line"/>
      <point x="655" y="1028"/>
      <point x="655" y="1028"/>
      <point x="655" y="1028"/>
      <point x="655" y="1028"/>
      <point x="655" y="1028" type="qcurve"/>
      <point x="655" y="918" type="line"/>
      <point x="150" y="988" type="line"/>
      <point x="150" y="1117" type="line" smooth="yes"/>
      <point x="150" y="1196"/>
      <point x="193" y="1309"/>
      <point x="285" y="1381"/>
      <point x="429" y="1414"/>
      <point x="531" y="1414" type="qcurve" smooth="yes"/>
      <point x="1577" y="1414" type="line" smooth="yes"/>
      <point x="1679" y="1414"/>
      <point x="1822" y="1381"/>
      <point x="1913" y="1311"/>
      <point x="1955" y="1199"/>
      <point x="1955" y="1119" type="qcurve" smooth="yes"/>
      <point x="1955" y="832" type="line" smooth="yes"/>
      <point x="1955" y="773"/>
      <point x="1925" y="666"/>
      <point x="1859" y="585"/>
      <point x="1755" y="536"/>
      <point x="1681" y="534" type="qcurve" smooth="yes"/>
      <point x="1233" y="524" type="line"/>
      <point x="1233" y="524"/>
      <point x="1233" y="524"/>
      <point x="1233" y="524"/>
      <point x="1233" y="524"/>
      <point x="1233" y="524" type="qcurve"/>
      <point x="1233" y="462" type="line"/>
    </contour>
    <contour>
      <point x="730" y="135" type="line"/>
      <point x="730" y="226" type="line" smooth="yes"/>
      <point x="730" y="270"/>
      <point x="740" y="324"/>
      <point x="771" y="354"/>
      <point x="826" y="364"/>
      <point x="871" y="364" type="qcurve" smooth="yes"/>
      <point x="1158" y="364" type="line" smooth="yes"/>
      <point x="1203" y="364"/>
      <point x="1259" y="354"/>
      <point x="1289" y="324"/>
      <point x="1300" y="269"/>
      <point x="1300" y="224" type="qcurve" smooth="yes"/>
      <point x="1300" y="135" type="line" smooth="yes"/>
      <point x="1300" y="90"/>
      <point x="1290" y="35"/>
      <point x="1259" y="4"/>
      <point x="1204" y="-6"/>
      <point x="1159" y="-6" type="qcurve" smooth="yes"/>
      <point x="871" y="-6" type="line" smooth="yes"/>
      <point x="826" y="-6"/>
      <point x="771" y="4"/>
      <point x="740" y="35"/>
      <point x="730" y="90"/>
      <point x="730" y="135" type="qcurve"/>
    </contour>
  </outline>
</glyph>
<glyph name="A" format="1">
  <advance width="3150" height="1448"/>
  <unicode hex="0041"/>
  <outline>
    <contour>
      <point x="0" y="0" type="line"/>
      <point x="1285" y="1400" type="line"/>
      <point x="1627" y="1400" type="line"/>
      <point x="1667.18" y="1130" type="line"/>
      <point x="630" y="0" type="line"/>
    </contour>
    <contour>
      <point x="2368" y="0" type="line"/>
      <point x="1383" y="1128" type="line"/>
      <point x="1389" y="1400" type="line"/>
      <point x="1829" y="1400" type="line"/>
      <point x="3150" y="0" type="line"/>
    </contour>
    <contour>
      <point x="514" y="196" type="line"/>
      <point x="794" y="556" type="line"/>
      <point x="2304" y="556" type="line"/>
      <point x="2606" y="196" type="line"/>
    </contour>
    <contour>
      <point x="1557" y="1550" type="move" name="top"/>
    </contour>
    <contour>
      <point x="1576" y="-150" type="move" name="bottom"/>
    </contour>
  </outline>
</glyph>
<glyph name="B" format="1">
  <advance width="3298"/>
  <unicode hex="0042"/>
  <outline>
    <contour>
      <point x="360" y="0" type="line"/>
      <point x="2696" y="0" type="line" smooth="yes"/>
      <point x="2948" y="0"/>
      <point x="3094" y="101"/>
      <point x="3094" y="361" type="curve" smooth="yes"/>
      <point x="3094" y="411" type="line" smooth="yes"/>
      <point x="3094" y="555"/>
      <point x="3019" y="650"/>
      <point x="2902" y="700" type="curve"/>
      <point x="3010" y="749"/>
      <point x="3078" y="839"/>
      <point x="3078" y="988" type="curve" smooth="yes"/>
      <point x="3078" y="1038" type="line" smooth="yes"/>
      <point x="3078" y="1298"/>
      <point x="2932" y="1400"/>
      <point x="2680" y="1400" type="curve" smooth="yes"/>
      <point x="360" y="1400" type="line"/>
    </contour>
    <contour>
      <point x="932" y="376" type="line"/>
      <point x="932" y="522" type="line"/>
      <point x="2446" y="522" type="line" smooth="yes"/>
      <point x="2498" y="522"/>
      <point x="2522" y="498"/>
      <point x="2522" y="462" type="curve" smooth="yes"/>
      <point x="2522" y="436" type="line" smooth="yes"/>
      <point x="2522" y="400"/>
      <point x="2498" y="376"/>
      <point x="2446" y="376" type="curve" smooth="yes"/>
    </contour>
    <contour>
      <point x="932" y="882" type="line"/>
      <point x="932" y="1028" type="line"/>
      <point x="2446" y="1028" type="line" smooth="yes"/>
      <point x="2498" y="1028"/>
      <point x="2522" y="1004"/>
      <point x="2522" y="968" type="curve" smooth="yes"/>
      <point x="2522" y="942" type="line" smooth="yes"/>
      <point x="2522" y="906"/>
      <point x="2498" y="882"/>
      <point x="2446" y="882" type="curve" smooth="yes"/>
    </contour>
    <contour>
      <point x="1649" y="1550" type="move" name="top"/>
    </contour>
    <contour>
      <point x="1649" y="-150" type="move" name="bottom"/>
    </contour>
  </outline>
</glyph>
<glyph name="C" format="2">
  <advance width="2902" height="1448"/>
  <unicode hex="0043"/>
  <anchor x="1472" y="1550" name="top"/>
  <anchor x="1472" y="-150" name="bottom"/>
  <outline>
    <contour>
      <point x="270" y="1080" type="line"/>
      <point x="270" y="332" type="line" smooth="yes"/>
      <point x="270" y="229"/>
      <point x="325" y="95"/>
      <point x="430" y="17"/>
      <point x="583" y="-14"/>
      <point x="682" y="-14" type="qcurve" smooth="yes"/>
      <point x="2258" y="-14" type="line" smooth="yes"/>
      <point x="2357" y="-14"/>
      <point x="2511" y="17"/>
      <point x="2617" y="95"/>
      <point x="2672" y="229"/>
      <point x="2672" y="332" type="qcurve" smooth="yes"/>
      <point x="2672" y="528" type="line"/>
      <point x="2100" y="640" type="line"/>
      <point x="2100" y="470" type="line"/>
      <point x="2100" y="470"/>
      <point x="2100" y="470"/>
      <point x="2100" y="470"/>
      <point x="2100" y="470"/>
      <point x="2100" y="470" type="qcurve"/>
      <point x="842" y="470" type="line"/>
      <point x="842" y="470"/>
      <point x="842" y="470"/>
      <point x="842" y="470"/>
      <point x="842" y="470"/>
      <point x="842" y="470" type="qcurve"/>
      <point x="842" y="930" type="line"/>
      <point x="842" y="930"/>
      <point x="842" y="930"/>
      <point x="842" y="930"/>
      <point x="842" y="930"/>
      <point x="842" y="930" type="qcurve"/>
      <point x="2094" y="930" type="line"/>
      <point x="2094" y="930"/>
      <point x="2094" y="930"/>
      <point x="2094" y="930"/>
      <point x="2094" y="930"/>
      <point x="2094" y="930" type="qcurve"/>
      <point x="2094" y="786" type="line"/>
      <point x="2666" y="892" type="line"/>
      <point x="2666" y="1080" type="line" smooth="yes"/>
      <point x="2666" y="1181"/>
      <point x="2608" y="1310"/>
      <point x="2500" y="1385"/>
      <point x="2347" y="1414"/>
      <point x="2252" y="1414" type="qcurve" smooth="yes"/>
      <point x="682" y="1414" type="line" smooth="yes"/>
      <point x="588" y="1414"/>
      <point x="435" y="1385"/>
      <point x="328" y="1310"/>
      <point x="270" y="1181"/>
      <point x="270" y="1080" type="qcurve"/>
    </contour>
  </outline>
</glyph>
<glyph name="E" format="1">
  <advance width="2925"/>
  <unicode hex="0045"/>
  <outline>
    <contour>
      <point x="360" y="0" type="line"/>
      <point x="360" y="1400" type="line"/>
      <point x="2666" y="1400" type="line"/>
      <point x="2666" y="976" type="line"/>
      <point x="932" y="976" type="line"/>
      <point x="932" y="890" type="line"/>
      <point x="2014" y="890" type="line"/>
      <point x="2014" y="520" type="line"/>
      <point x="932" y="520" type="line"/>
      <point x="932" y="424" type="line"/>
      <point x="2700" y="424" type="line"/>
      <point x="2700" y="0" type="line"/>
    </contour>
    <contour>
      <point x="1530" y="1550" type="move" name="top"/>
    </contour>
    <contour>
      <point x="1530" y="-150" type="move" name="bottom"/>
    </contour>
  </outline>
</glyph>
<glyph name="F" format="1">
  <advance width="2801.5"/>
  <unicode hex="0046"/>
  <outline>
    <contour>
      <point x="360" y="0" type="line"/>
      <point x="360" y="1400" type="line"/>
      <point x="2644" y="1400" type="line"/>
      <point x="2644" y="956" type="line"/>
      <point x="932" y="956" type="line"/>
      <point x="932" y="834" type="line"/>
      <point x="1990" y="834" type="line"/>
      <point x="1990" y="390" type="line"/>
      <point x="932" y="390" type="line"/>
      <point x="932" y="0" type="line"/>
    </contour>
  </outline>
</glyph>
<glyph name="G" format="1">
  <advance width="3148" height="1448"/>
  <unicode hex="0047"/>
  <outline>
    <contour>
      <point x="340" y="1080" type="curve" smooth="yes"/>
      <point x="340" y="332" type="line" smooth="yes"/>
      <point x="340" y="58"/>
      <point x="488" y="-14"/>
      <point x="752" y="-14" type="curve" smooth="yes"/>
      <point x="2428" y="-14" type="line" smooth="yes"/>
      <point x="2692" y="-14"/>
      <point x="2842" y="56"/>
      <point x="2842" y="332" type="curve" smooth="yes"/>
      <point x="2842" y="864" type="line"/>
      <point x="1590" y="864" type="line"/>
      <point x="1590" y="494" type="line"/>
      <point x="2270" y="494" type="line"/>
      <point x="2270" y="410" type="line"/>
      <point x="2270" y="410"/>
      <point x="2270" y="410"/>
      <point x="2270" y="410" type="curve"/>
      <point x="912" y="410" type="line"/>
      <point x="912" y="410"/>
      <point x="912" y="410"/>
      <point x="912" y="410" type="curve"/>
      <point x="912" y="990" type="line"/>
      <point x="912" y="990"/>
      <point x="912" y="990"/>
      <point x="912" y="990" type="curve"/>
      <point x="2264" y="990" type="line"/>
      <point x="2264" y="990"/>
      <point x="2264" y="990"/>
      <point x="2264" y="990" type="curve"/>
      <point x="2264" y="906" type="line"/>
      <point x="2836" y="1012" type="line"/>
      <point x="2836" y="1080" type="line" smooth="yes"/>
      <point x="2836" y="1348"/>
      <point x="2674" y="1414"/>
      <point x="2422" y="1414" type="curve" smooth="yes"/>
      <point x="752" y="1414" type="line" smooth="yes"/>
      <point x="500" y="1414"/>
      <point x="340" y="1348"/>
    </contour>
    <contour>
      <point x="1542" y="1564" type="move" name="top"/>
    </contour>
    <contour>
      <point x="1542" y="-164" type="move" name="bottom"/>
    </contour>
  </outline>
</glyph>
<glyph name="H" format="2">
  <advance width="3204" height="1448"/>
  <unicode hex="0048"/>
  <anchor x="1602" y="1550" name="top"/>
  <anchor x="1602" y="-150" name="bottom"/>
  <anchor x="200" y="700" name="left"/>
  <outline>
    <contour>
      <point x="300" y="0" type="line"/>
      <point x="872" y="0" type="line"/>
      <point x="872" y="492" type="line"/>
      <point x="2332" y="492" type="line"/>
      <point x="2332" y="0" type="line"/>
      <point x="2904" y="0" type="line"/>
      <point x="2904" y="1400" type="line"/>
      <point x="2332" y="1400" type="line"/>
      <point x="2332" y="956" type="line"/>
      <point x="872" y="956" type="line"/>
      <point x="872" y="1400" type="line"/>
      <point x="300" y="1400" type="line"/>
    </contour>
  </outline>
  <guideline x="1602" color="1,0,0,1"/>
</glyph>
<glyph name="I" format="1">
  <advance width="1292" height="1448"/>
  <unicode hex="0049"/>
  <outline>
    <contour>
      <point x="360" y="0" type="line"/>
      <point x="360" y="1400" type="line"/>
      <point x="932" y="1400" type="line"/>
      <point x="932" y="0" type="line"/>
    </contour>
    <contour>
      <point x="646" y="1550" type="move" name="top"/>
    </contour>
    <contour>
      <point x="646" y="-150" type="move" name="bottom"/>
    </contour>
  </outline>
</glyph>
<glyph name="J" format="1">
  <advance width="2961" height="1448"/>
  <unicode hex="004A"/>
  <outline>
    <contour>
      <point x="2611" y="1400" type="line"/>
      <point x="2039" y="1400" type="line"/>
      <point x="2039" y="450" type="line"/>
      <point x="2039" y="450"/>
      <point x="2039" y="450"/>
      <point x="2039" y="450" type="curve"/>
      <point x="787" y="450" type="line"/>
      <point x="787" y="450"/>
      <point x="787" y="450"/>
      <point x="787" y="450" type="curve"/>
      <point x="787" y="740" type="line"/>
      <point x="215" y="634" type="line"/>
      <point x="215" y="320" type="line" smooth="yes"/>
      <point x="215" y="52"/>
      <point x="377" y="-14"/>
      <point x="629" y="-14" type="curve" smooth="yes"/>
      <point x="2199" y="-14" type="line" smooth="yes"/>
      <point x="2451" y="-14"/>
      <point x="2611" y="52"/>
      <point x="2611" y="320" type="curve" smooth="yes"/>
    </contour>
    <contour>
      <point x="2325" y="1550" type="move" name="top"/>
    </contour>
    <contour>
      <point x="1451" y="-150" type="move" name="bottom"/>
    </contour>
  </outline>
</glyph>
<glyph name="K" format="1">
  <advance width="3478" height="1448"/>
  <unicode hex="004B"/>
  <outline>
    <contour>
      <point x="324" y="0" type="line"/>
      <point x="896" y="0" type="line"/>
      <point x="896" y="1400" type="line"/>
      <point x="324" y="1400" type="line"/>
    </contour>
    <contour>
      <point x="657" y="711" type="line"/>
      <point x="1538" y="711" type="line"/>
      <point x="3199" y="1400" type="line"/>
      <point x="2226" y="1400" type="line"/>
    </contour>
    <contour>
      <point x="630" y="711" type="line"/>
      <point x="2253" y="0" type="line"/>
      <point x="3478" y="0" type="line"/>
      <point x="1516" y="809" type="line"/>
    </contour>
    <contour>
      <point x="1739" y="1598" type="move" name="top"/>
    </contour>
    <contour>
      <point x="1639" y="-150" type="move" name="bottom"/>
    </contour>
  </outline>
</glyph>
<glyph name="L" format="1">
  <advance width="2790"/>
  <unicode hex="004C"/>
  <outline>
    <contour>
      <point x="360" y="0" type="line"/>
      <point x="360" y="1400" type="line"/>
      <point x="932" y="1400" type="line"/>
      <point x="932" y="454" type="line"/>
      <point x="2700" y="454" type="line"/>
      <point x="2700" y="0" type="line"/>
    </contour>
    <contour>
      <point x="646" y="1550" type="move" name="top"/>
    </contour>
    <contour>
      <point x="1322" y="-150" type="move" name="bottom"/>
    </contour>
    <contour>
      <point x="260" y="700" type="move" name="left"/>
    </contour>
    <contour>
      <point x="2844" y="700" type="move" name="right"/>
    </contour>
  </outline>
</glyph>
<glyph name="M" format="1">
  <advance width="3560"/>
  <unicode hex="004D"/>
  <outline>
    <contour>
      <point x="2628" y="0" type="line"/>
      <point x="3200" y="0" type="line"/>
      <point x="3200" y="1400" type="line"/>
      <point x="2956" y="1400" type="line"/>
      <point x="2628" y="886" type="line"/>
    </contour>
    <contour>
      <point x="360" y="0" type="line"/>
      <point x="844" y="0" type="line"/>
      <point x="844" y="1020" type="line"/>
      <point x="624" y="1400" type="line"/>
      <point x="360" y="1400" type="line"/>
    </contour>
    <contour>
      <point x="1778" y="40" type="line"/>
      <point x="3010" y="1196" type="line"/>
      <point x="3010" y="1400" type="line"/>
      <point x="2652" y="1400" type="line"/>
      <point x="1680.04" y="488" type="line"/>
    </contour>
    <contour>
      <point x="616" y="1030" type="line"/>
      <point x="1778" y="40" type="line"/>
      <point x="1886" y="616" type="line"/>
      <point x="964" y="1400" type="line"/>
      <point x="616" y="1400" type="line"/>
    </contour>
  </outline>
</glyph>
<glyph name="N" format="1">
  <advance width="3302"/>
  <unicode hex="004E"/>
  <outline>
    <contour>
      <point x="360" y="0" type="line"/>
      <point x="892" y="0" type="line"/>
      <point x="892" y="761" type="line"/>
      <point x="2518" y="0" type="line"/>
      <point x="2942" y="0" type="line"/>
      <point x="2942" y="1400" type="line"/>
      <point x="2410" y="1400" type="line"/>
      <point x="2410" y="638" type="line"/>
      <point x="782" y="1400" type="line"/>
      <point x="360" y="1400" type="line"/>
    </contour>
    <contour>
      <point x="1786" y="1550" type="move" name="top"/>
    </contour>
    <contour>
      <point x="1786" y="-150" type="move" name="bottom"/>
    </contour>
  </outline>
</glyph>
<glyph name="O" format="1">
  <advance width="3344" height="1448"/>
  <unicode hex="004F"/>
  <outline>
    <contour>
      <point x="340" y="1080" type="curve" smooth="yes"/>
      <point x="340" y="332" type="line" smooth="yes"/>
      <point x="340" y="58"/>
      <point x="488" y="-14"/>
      <point x="752" y="-14" type="curve" smooth="yes"/>
      <point x="2590" y="-14" type="line" smooth="yes"/>
      <point x="2854" y="-14"/>
      <point x="3004" y="56"/>
      <point x="3004" y="332" type="curve" smooth="yes"/>
      <point x="3004" y="1080" type="line" smooth="yes"/>
      <point x="3004" y="1348"/>
      <point x="2842" y="1414"/>
      <point x="2590" y="1414" type="curve" smooth="yes"/>
      <point x="752" y="1414" type="line" smooth="yes"/>
      <point x="500" y="1414"/>
      <point x="340" y="1348"/>
    </contour>
    <contour>
      <point x="912" y="930" type="line"/>
      <point x="912" y="930"/>
      <point x="912" y="930"/>
      <point x="912" y="930" type="curve"/>
      <point x="2432" y="930" type="line"/>
      <point x="2432" y="930"/>
      <point x="2432" y="930"/>
      <point x="2432" y="930" type="curve"/>
      <point x="2432" y="470" type="line"/>
      <point x="2432" y="470"/>
      <point x="2432" y="470"/>
      <point x="2432" y="470" type="curve"/>
      <point x="912" y="470" type="line"/>
      <point x="912" y="470"/>
      <point x="912" y="470"/>
      <point x="912" y="470" type="curve"/>
    </contour>
    <contour>
      <point x="1672" y="1564" type="move" name="top"/>
    </contour>
    <contour>
      <point x="1672" y="-164" type="move" name="bottom"/>
    </contour>
  </outline>
</glyph>
<glyph name="P" format="1">
  <advance width="3366"/>
  <unicode hex="0050"/>
  <outline>
    <contour>
      <point x="360" y="0" type="line"/>
      <point x="932" y="0" type="line"/>
      <point x="932" y="350" type="line"/>
      <point x="2664" y="350" type="line" smooth="yes"/>
      <point x="2916" y="350"/>
      <point x="3078" y="408"/>
      <point x="3078" y="676" type="curve" smooth="yes"/>
      <point x="3078" y="1066" type="line" smooth="yes"/>
      <point x="3078" y="1334"/>
      <point x="2916" y="1400"/>
      <point x="2664" y="1400" type="curve" smooth="yes"/>
      <point x="360" y="1400" type="line"/>
    </contour>
    <contour>
      <point x="932" y="790" type="line"/>
      <point x="932" y="960" type="line"/>
      <point x="2445" y="960" type="line" smooth="yes"/>
      <point x="2490" y="960"/>
      <point x="2506" y="936"/>
      <point x="2506" y="900" type="curve" smooth="yes"/>
      <point x="2506" y="850" type="line" smooth="yes"/>
      <point x="2506" y="814"/>
      <point x="2490" y="790"/>
      <point x="2445" y="790" type="curve" smooth="yes"/>
    </contour>
  </outline>
</glyph>
<glyph name="Q" format="1">
  <advance width="3344"/>
  <unicode hex="0051"/>
  <outline>
    <component base="O"/>
    <contour>
      <point x="2026" y="-282" type="line"/>
      <point x="2570" y="-282" type="line"/>
      <point x="1775" y="738" type="line"/>
      <point x="1503" y="568" type="line"/>
    </contour>
    <contour>
      <point x="1672" y="1564" type="move" name="top"/>
    </contour>
    <contour>
      <point x="1672" y="-442" type="move" name="bottom"/>
    </contour>
  </outline>
</glyph>
<glyph name="R" format="1">
  <advance width="3332"/>
  <unicode hex="0052"/>
  <outline>
    <contour>
      <point x="646" y="370" type="line"/>
      <point x="1971.29" y="370" type="line"/>
      <point x="1971.29" y="390" type="line"/>
      <point x="2658" y="390" type="line" smooth="yes"/>
      <point x="2910" y="390"/>
      <point x="3072" y="456"/>
      <point x="3072" y="724" type="curve" smooth="yes"/>
      <point x="3072" y="1066" type="line" smooth="yes"/>
      <point x="3072" y="1334"/>
      <point x="2910" y="1400"/>
      <point x="2658" y="1400" type="curve" smooth="yes"/>
      <point x="646" y="1400" type="line"/>
      <point x="646" y="960" type="line"/>
      <point x="2435" y="960" type="line" smooth="yes"/>
      <point x="2480" y="960"/>
      <point x="2496" y="936"/>
      <point x="2496" y="900" type="curve" smooth="yes"/>
      <point x="2496" y="870" type="line" smooth="yes"/>
      <point x="2496" y="834"/>
      <point x="2480" y="810"/>
      <point x="2435" y="810" type="curve" smooth="yes"/>
      <point x="646" y="810" type="line"/>
    </contour>
    <contour>
      <point x="360" y="0" type="line"/>
      <point x="932" y="0" type="line"/>
      <point x="932" y="1400" type="line"/>
      <point x="646" y="1400" type="line"/>
      <point x="360" y="1400" type="line"/>
    </contour>
    <contour>
      <point x="2286" y="0" type="line"/>
      <point x="3128" y="0" type="line"/>
      <point x="2165" y="528" type="line"/>
      <point x="1423" y="528" type="line"/>
    </contour>
    <contour>
      <point x="1666" y="-150" type="move" name="bottom"/>
    </contour>
    <contour>
      <point x="1666" y="1554" type="move" name="top"/>
    </contour>
  </outline>
</glyph>
<glyph name="T" format="1">
  <advance width="2840"/>
  <unicode hex="0054"/>
  <outline>
    <contour>
      <point x="2750" y="1400" type="line"/>
      <point x="2750" y="916" type="line"/>
      <point x="1706" y="916" type="line"/>
      <point x="1706" y="0" type="line"/>
      <point x="1134" y="0" type="line"/>
      <point x="1134" y="916" type="line"/>
      <point x="90" y="916" type="line"/>
      <point x="90" y="1400" type="line"/>
    </contour>
    <contour>
      <point x="1420" y="1550" type="move" name="top"/>
    </contour>
    <contour>
      <point x="1420" y="-150" type="move" name="bottom"/>
    </contour>
  </outline>
</glyph>
<glyph name="U" format="1">
  <advance width="3285"/>
  <unicode hex="0055"/>
  <outline>
    <contour>
      <point x="350" y="1400" type="line"/>
      <point x="922" y="1400" type="line"/>
      <point x="922" y="474" type="line"/>
      <point x="922" y="474"/>
      <point x="922" y="474"/>
      <point x="922" y="474" type="curve"/>
      <point x="2363" y="474" type="line"/>
      <point x="2363" y="474"/>
      <point x="2363" y="474"/>
      <point x="2363" y="474" type="curve"/>
      <point x="2363" y="1400" type="line"/>
      <point x="2935" y="1400" type="line"/>
      <point x="2935" y="333" type="line" smooth="yes"/>
      <point x="2935" y="50"/>
      <point x="2780" y="-10"/>
      <point x="2523" y="-10" type="curve" smooth="yes"/>
      <point x="760" y="-10" type="line" smooth="yes"/>
      <point x="506" y="-10"/>
      <point x="350" y="50"/>
      <point x="350" y="333" type="curve" smooth="yes"/>
    </contour>
    <contour>
      <point x="1643" y="1550" type="move" name="top"/>
    </contour>
    <contour>
      <point x="1642.5" y="-150" type="move" name="bottom"/>
    </contour>
  </outline>
</glyph>
<glyph name="V" format="2">
  <advance width="2912"/>
  <unicode hex="0056"/>
  <anchor x="1456" y="1550" name="top"/>
  <anchor x="1456" y="-150" name="bottom"/>
  <outline>
    <contour>
      <point x="0" y="1400" type="line"/>
      <point x="738" y="1400" type="line"/>
      <point x="1482" y="504" type="line"/>
      <point x="2226" y="1400" type="line"/>
      <point x="2912" y="1400" type="line"/>
      <point x="1731" y="0" type="line"/>
      <point x="1183" y="0" type="line"/>
    </contour>
  </outline>
</glyph>
<glyph name="W" format="1">
  <advance width="3392"/>
  <unicode hex="0057"/>
  <outline>
    <contour>
      <point x="0" y="1400" type="line"/>
      <point x="690" y="1400" type="line"/>
      <point x="1059" y="662" type="line"/>
      <point x="1426" y="1400" type="line"/>
      <point x="1966" y="1400" type="line"/>
      <point x="2333" y="662" type="line"/>
      <point x="2702" y="1400" type="line"/>
      <point x="3392" y="1400" type="line"/>
      <point x="2598" y="0" type="line"/>
      <point x="2050" y="0" type="line"/>
      <point x="1696" y="722" type="line"/>
      <point x="1342" y="0" type="line"/>
      <point x="794" y="0" type="line"/>
    </contour>
    <contour>
      <point x="1696" y="-150" type="move" name="bottom"/>
    </contour>
    <contour>
      <point x="1696" y="1550" type="move" name="top"/>
    </contour>
  </outline>
</glyph>
<glyph name="X" format="1">
  <advance width="2802"/>
  <unicode hex="0058"/>
  <outline>
    <contour>
      <point x="1635" y="847" type="line"/>
      <point x="1567" y="863" type="line"/>
      <point x="856" y="1400" type="line"/>
      <point x="0" y="1400" type="line"/>
      <point x="1044" y="655" type="line"/>
      <point x="1126" y="631" type="line"/>
      <point x="1954" y="0" type="line"/>
      <point x="2802" y="0" type="line"/>
    </contour>
    <contour>
      <point x="1069" y="766" type="line"/>
      <point x="0" y="0" type="line"/>
      <point x="777" y="0" type="line"/>
      <point x="1636.67" y="616" type="line"/>
      <point x="1728" y="678" type="line"/>
      <point x="2747" y="1400" type="line"/>
      <point x="1964" y="1400" type="line"/>
      <point x="1184.93" y="848" type="line"/>
    </contour>
    <contour>
      <point x="1401" y="1550" type="move" name="top"/>
    </contour>
    <contour>
      <point x="1401" y="-150" type="move" name="bottom"/>
    </contour>
  </outline>
</glyph>
<glyph name="Y" format="2">
  <advance width="2863"/>
  <unicode hex="0059"/>
  <anchor x="1442" y="1550" name="top"/>
  <anchor x="1437" y="-150" name="bottom"/>
  <outline>
    <contour>
      <point x="1141" y="0" type="line"/>
      <point x="1713" y="0" type="line"/>
      <point x="1713" y="471" type="line"/>
      <point x="2863" y="1400" type="line"/>
      <point x="2084" y="1400" type="line"/>
      <point x="1450" y="870" type="line"/>
      <point x="834" y="1400" type="line"/>
      <point x="0" y="1400" type="line"/>
      <point x="1141" y="487" type="line"/>
    </contour>
  </outline>
  <guideline angle="90" color="1,0,0,1" x="1437" y="0"/>
</glyph>
<glyph name="Z" format="1">
  <advance width="2621"/>
  <unicode hex="005A"/>
  <outline>
    <contour>
      <point x="90" y="222" type="line"/>
      <point x="943" y="222" type="line"/>
      <point x="2519" y="1178" type="line"/>
      <point x="1666" y="1178" type="line"/>
    </contour>
    <contour>
      <point x="90" y="0" type="line"/>
      <point x="2531" y="0" type="line"/>
      <point x="2531" y="464" type="line"/>
      <point x="863" y="464" type="line"/>
      <point x="90" y="222" type="line"/>
    </contour>
    <contour>
      <point x="184" y="936" type="line"/>
      <point x="1756" y="936" type="line"/>
      <point x="2519" y="1178" type="line"/>
      <point x="2519" y="1400" type="line"/>
      <point x="184" y="1400" type="line"/>
    </contour>
    <contour>
      <point x="642.286" y="1550" type="move" name="top"/>
    </contour>
    <contour>
      <point x="642.286" y="-150" type="move" name="bottom"/>
    </contour>
  </outline>
</glyph>
<glyph name="bracketleft" format="1">
  <advance width="1432"/>
  <unicode hex="005B"/>
  <outline>
    <contour>
      <point x="360" y="-256" type="line"/>
      <point x="360" y="1448" type="line"/>
      <point x="1252" y="1448" type="line"/>
      <point x="1252" y="1098" type="line"/>
      <point x="800" y="1098" type="line"/>
      <point x="800" y="94" type="line"/>
      <point x="1252" y="94" type="line"/>
      <point x="1252" y="-256" type="line"/>
    </contour>
  </outline>
</glyph>
<glyph name="asciicircum" format="1">
  <advance width="1315"/>
  <unicode hex="005E"/>
  <outline>
    <contour>
      <point x="-443" y="850" type="line"/>
      <point x="203" y="1400" type="line"/>
      <point x="663" y="1400" type="line"/>
      <point x="1310" y="850" type="line"/>
      <point x="663" y="850" type="line"/>
      <point x="433" y="1153" type="line"/>
      <point x="204" y="850" type="line"/>
    </contour>
  </outline>
</glyph>
<glyph name="a" format="1">
  <advance width="2480" height="1448"/>
  <unicode hex="0061"/>
  <outline>
    <contour>
      <point x="582" y="-10" type="line" smooth="yes"/>
      <point x="418" y="-10"/>
      <point x="286" y="46"/>
      <point x="286" y="244" type="curve" smooth="yes"/>
      <point x="286" y="362" type="line" smooth="yes"/>
      <point x="286" y="556"/>
      <point x="418" y="606"/>
      <point x="582" y="606" type="curve" smooth="yes"/>
      <point x="1662" y="606" type="line"/>
      <point x="1662" y="712" type="line"/>
      <point x="1662" y="712"/>
      <point x="1662" y="712"/>
      <point x="1662" y="712" type="curve"/>
      <point x="804" y="712" type="line"/>
      <point x="804" y="712"/>
      <point x="804" y="712"/>
      <point x="804" y="712" type="curve"/>
      <point x="804" y="662" type="line"/>
      <point x="320" y="750" type="line"/>
      <point x="320" y="774" type="line" smooth="yes"/>
      <point x="320" y="972"/>
      <point x="440" y="1034"/>
      <point x="616" y="1034" type="curve" smooth="yes"/>
      <point x="1870" y="1034" type="line" smooth="yes"/>
      <point x="2046" y="1034"/>
      <point x="2166" y="982"/>
      <point x="2166" y="758" type="curve" smooth="yes"/>
      <point x="2166" y="0" type="line"/>
      <point x="1662" y="0" type="line"/>
      <point x="1662" y="150" type="line"/>
      <point x="1628" y="28"/>
      <point x="1520" y="-10"/>
      <point x="1380" y="-10" type="curve" smooth="yes"/>
    </contour>
    <contour>
      <point x="790" y="262" type="line"/>
      <point x="790" y="262"/>
      <point x="790" y="262"/>
      <point x="790" y="262" type="curve"/>
      <point x="1662" y="262" type="line"/>
      <point x="1662" y="370" type="line"/>
      <point x="790" y="370" type="line"/>
      <point x="790" y="370"/>
      <point x="790" y="370"/>
      <point x="790" y="370" type="curve"/>
    </contour>
    <contour>
      <point x="1233" y="1174" type="move" name="top"/>
    </contour>
    <contour>
      <point x="1225" y="-150" type="move" name="bottom"/>
    </contour>
  </outline>
</glyph>
<glyph name="b" format="1">
  <advance width="2650" height="-1448"/>
  <unicode hex="0062"/>
  <outline>
    <contour>
      <point x="324" y="0" type="line"/>
      <point x="848" y="0" type="line"/>
      <point x="848" y="102" type="line"/>
      <point x="890" y="26"/>
      <point x="978" y="-10"/>
      <point x="1122" y="-10" type="curve" smooth="yes"/>
      <point x="2038" y="-10" type="line" smooth="yes"/>
      <point x="2252" y="-10"/>
      <point x="2344" y="70"/>
      <point x="2344" y="254" type="curve" smooth="yes"/>
      <point x="2344" y="780" type="line" smooth="yes"/>
      <point x="2344" y="954"/>
      <point x="2250" y="1034"/>
      <point x="2038" y="1034" type="curve" smooth="yes"/>
      <point x="1122" y="1034" type="line" smooth="yes"/>
      <point x="980" y="1034"/>
      <point x="892" y="998"/>
      <point x="848" y="922" type="curve"/>
      <point x="848" y="1472" type="line"/>
      <point x="324" y="1472" type="line"/>
    </contour>
    <contour>
      <point x="848" y="372" type="line"/>
      <point x="848" y="652" type="line"/>
      <point x="1820" y="652" type="line"/>
      <point x="1820" y="652"/>
      <point x="1820" y="652"/>
      <point x="1820" y="652" type="curve"/>
      <point x="1820" y="372" type="line"/>
      <point x="1820" y="372"/>
      <point x="1820" y="372"/>
      <point x="1820" y="372" type="curve"/>
    </contour>
    <contour>
      <point x="1334" y="1598" type="move" name="top"/>
    </contour>
    <contour>
      <point x="1334" y="-150" type="move" name="bottom"/>
    </contour>
  </outline>
</glyph>
<glyph name="c" format="1">
  <advance width="2491"/>
  <unicode hex="0063"/>
  <outline>
    <contour>
      <point x="306" y="260" type="curve"/>
      <point x="306" y="774" type="line"/>
      <point x="306" y="960"/>
      <point x="400" y="1034"/>
      <point x="632" y="1034" type="curve"/>
      <point x="1890" y="1034" type="line"/>
      <point x="2122" y="1034"/>
      <point x="2212" y="962"/>
      <point x="2212" y="778" type="curve"/>
      <point x="2212" y="650" type="line"/>
      <point x="1688" y="552" type="line"/>
      <point x="1688" y="652" type="line"/>
      <point x="1688" y="652"/>
      <point x="1688" y="652"/>
      <point x="1688" y="652" type="curve"/>
      <point x="830" y="652" type="line"/>
      <point x="830" y="652"/>
      <point x="830" y="652"/>
      <point x="830" y="652" type="curve"/>
      <point x="830" y="372" type="line"/>
      <point x="830" y="372"/>
      <point x="830" y="372"/>
      <point x="830" y="372" type="curve"/>
      <point x="1692" y="372" type="line"/>
      <point x="1692" y="372"/>
      <point x="1692" y="372"/>
      <point x="1692" y="372" type="curve"/>
      <point x="1692" y="474" type="line"/>
      <point x="2216" y="366" type="line"/>
      <point x="2216" y="260" type="line"/>
      <point x="2216" y="66"/>
      <point x="2128" y="-10"/>
      <point x="1892" y="-10" type="curve"/>
      <point x="630" y="-10" type="line"/>
      <point x="394" y="-10"/>
      <point x="306" y="66"/>
    </contour>
    <contour>
      <point x="1246" y="1174" type="move" name="top"/>
    </contour>
    <contour>
      <point x="1246" y="-150" type="move" name="bottom"/>
    </contour>
  </outline>
</glyph>
<glyph name="d" format="1">
  <advance width="2650" height="1448"/>
  <unicode hex="0064"/>
  <outline>
    <contour>
      <point x="306" y="254" type="curve" smooth="yes"/>
      <point x="306" y="780" type="line" smooth="yes"/>
      <point x="306" y="954"/>
      <point x="400" y="1034"/>
      <point x="612" y="1034" type="curve" smooth="yes"/>
      <point x="1528" y="1034" type="line" smooth="yes"/>
      <point x="1670" y="1034"/>
      <point x="1758" y="998"/>
      <point x="1802" y="922" type="curve"/>
      <point x="1802" y="1472" type="line"/>
      <point x="2326" y="1472" type="line"/>
      <point x="2326" y="0" type="line"/>
      <point x="1802" y="0" type="line"/>
      <point x="1802" y="102" type="line"/>
      <point x="1760" y="26"/>
      <point x="1672" y="-10"/>
      <point x="1528" y="-10" type="curve" smooth="yes"/>
      <point x="612" y="-10" type="line" smooth="yes"/>
      <point x="398" y="-10"/>
      <point x="306" y="70"/>
    </contour>
    <contour>
      <point x="1802" y="652" type="line"/>
      <point x="830" y="652" type="line"/>
      <point x="830" y="652"/>
      <point x="830" y="652"/>
      <point x="830" y="652" type="curve"/>
      <point x="830" y="372" type="line"/>
      <point x="830" y="372"/>
      <point x="830" y="372"/>
      <point x="830" y="372" type="curve"/>
      <point x="1802" y="372" type="line"/>
    </contour>
    <contour>
      <point x="1317" y="1598" type="move" name="top"/>
    </contour>
    <contour>
      <point x="1317" y="-150" type="move" name="bottom"/>
    </contour>
  </outline>
</glyph>
<glyph name="e" format="2">
  <advance width="2320" height="1448"/>
  <unicode hex="0065"/>
  <anchor x="1161" y="1174" name="top"/>
  <anchor x="1161" y="-150" name="bottom"/>
  <anchor x="1696" y="-10" name="ogonek"/>
  <outline>
    <contour>
      <point x="206" y="300" type="line"/>
      <point x="206" y="734" type="line" smooth="yes"/>
      <point x="206" y="812"/>
      <point x="250" y="925"/>
      <point x="346" y="999"/>
      <point x="497" y="1034"/>
      <point x="604" y="1034" type="qcurve" smooth="yes"/>
      <point x="1696" y="1034" type="line" smooth="yes"/>
      <point x="1804" y="1034"/>
      <point x="1962" y="999"/>
      <point x="2064" y="926"/>
      <point x="2114" y="813"/>
      <point x="2114" y="734" type="qcurve" smooth="yes"/>
      <point x="2114" y="404" type="line"/>
      <point x="710" y="404" type="line"/>
      <point x="710" y="326" type="line"/>
      <point x="710" y="326"/>
      <point x="710" y="326"/>
      <point x="710" y="326" type="qcurve"/>
      <point x="1610" y="326" type="line"/>
      <point x="1610" y="326"/>
      <point x="1610" y="326"/>
      <point x="1610" y="326" type="qcurve"/>
      <point x="1610" y="368" type="line"/>
      <point x="2114" y="280" type="line"/>
      <point x="2114" y="266" type="line" smooth="yes"/>
      <point x="2114" y="191"/>
      <point x="2064" y="86"/>
      <point x="1962" y="20"/>
      <point x="1804" y="-10"/>
      <point x="1696" y="-10" type="qcurve" smooth="yes"/>
      <point x="604" y="-10" type="line" smooth="yes"/>
      <point x="496" y="-10"/>
      <point x="345" y="26"/>
      <point x="249" y="102"/>
      <point x="206" y="219"/>
      <point x="206" y="300" type="qcurve"/>
    </contour>
    <contour>
      <point x="710" y="628" type="line"/>
      <point x="1610" y="628" type="line"/>
      <point x="1610" y="698" type="line"/>
      <point x="1610" y="698"/>
      <point x="1610" y="698"/>
      <point x="1610" y="698" type="qcurve"/>
      <point x="710" y="698" type="line"/>
      <point x="710" y="698"/>
      <point x="710" y="698"/>
      <point x="710" y="698" type="qcurve"/>
    </contour>
  </outline>
  <guideline y="-1034" color="1,0,0,1"/>
</glyph>
<glyph name="f" format="1">
  <advance width="1480.4"/>
  <unicode hex="0066"/>
  <outline>
    <contour>
      <point x="366.4" y="0" type="line"/>
      <point x="366.4" y="1176" type="line" smooth="yes"/>
      <point x="366.4" y="1384"/>
      <point x="474.4" y="1472"/>
      <point x="680.4" y="1472" type="curve" smooth="yes"/>
      <point x="1495.4" y="1472" type="line"/>
      <point x="1445.4" y="1170" type="line"/>
      <point x="890.4" y="1170" type="line"/>
      <point x="890.4" y="1170"/>
      <point x="890.4" y="1170"/>
      <point x="890.4" y="1170" type="curve"/>
      <point x="890.4" y="0" type="line"/>
    </contour>
    <contour>
      <point x="194.4" y="722" type="line"/>
      <point x="194.4" y="1024" type="line"/>
      <point x="1440.4" y="1024" type="line"/>
      <point x="1440.4" y="722" type="line"/>
    </contour>
  </outline>
</glyph>
<glyph name="g" format="1">
  <advance width="2650" height="1448"/>
  <unicode hex="0067"/>
  <outline>
    <contour>
      <point x="830" y="442" type="curve"/>
      <point x="830" y="642" type="line"/>
      <point x="830" y="642"/>
      <point x="830" y="642"/>
      <point x="830" y="642" type="curve"/>
      <point x="1802" y="642" type="line"/>
      <point x="1802" y="442" type="line"/>
      <point x="830" y="442" type="line"/>
      <point x="830" y="442"/>
      <point x="830" y="442"/>
    </contour>
    <contour>
      <point x="494" y="-428" type="line"/>
      <point x="2065" y="-428" type="line" smooth="yes"/>
      <point x="2221" y="-428"/>
      <point x="2326" y="-297.253"/>
      <point x="2326" y="-100.126" type="curve" smooth="yes"/>
      <point x="2326" y="1024" type="line"/>
      <point x="1802" y="1024" type="line"/>
      <point x="1802" y="912" type="line"/>
      <point x="1758" y="988"/>
      <point x="1670" y="1024"/>
      <point x="1528" y="1024" type="curve" smooth="yes"/>
      <point x="612" y="1024" type="line" smooth="yes"/>
      <point x="400" y="1024"/>
      <point x="306" y="944"/>
      <point x="306" y="770" type="curve" smooth="yes"/>
      <point x="306" y="324" type="line" smooth="yes"/>
      <point x="306" y="140"/>
      <point x="398" y="60"/>
      <point x="612" y="60" type="curve" smooth="yes"/>
      <point x="1528" y="60" type="line" smooth="yes"/>
      <point x="1672" y="60"/>
      <point x="1759" y="96"/>
      <point x="1801" y="172" type="curve"/>
      <point x="1801" y="-78" type="line"/>
      <point x="1801" y="-78"/>
      <point x="1801" y="-78"/>
      <point x="1801" y="-78" type="curve"/>
      <point x="418" y="-78" type="line"/>
    </contour>
    <contour>
      <point x="1325" y="1174" type="move" name="top"/>
    </contour>
    <contour>
      <point x="1325" y="-578" type="move" name="bottom"/>
    </contour>
  </outline>
</glyph>
<glyph name="h" format="2">
  <advance width="2325" height="1448"/>
  <unicode hex="0068"/>
  <anchor x="484" y="1622" name="top"/>
  <anchor x="1167" y="-150" name="bottom"/>
  <anchor x="121" y="512" name="left"/>
  <outline>
    <contour>
      <point x="220" y="0" type="line"/>
      <point x="220" y="1472" type="line"/>
      <point x="744" y="1472" type="line"/>
      <point x="744" y="920" type="line"/>
      <point x="776" y="974"/>
      <point x="912" y="1024"/>
      <point x="1030" y="1024" type="qcurve" smooth="yes"/>
      <point x="1744" y="1024" type="line" smooth="yes"/>
      <point x="1840" y="1024"/>
      <point x="1979" y="989"/>
      <point x="2069" y="915"/>
      <point x="2112" y="802"/>
      <point x="2112" y="724" type="qcurve" smooth="yes"/>
      <point x="2112" y="0" type="line"/>
      <point x="1588" y="0" type="line"/>
      <point x="1588" y="592" type="line"/>
      <point x="1588" y="592"/>
      <point x="1588" y="592"/>
      <point x="1588" y="592" type="qcurve"/>
      <point x="744" y="592" type="line"/>
      <point x="744" y="0" type="line"/>
    </contour>
  </outline>
  <guideline angle="0" x="0" y="988"/>
  <guideline angle="0" x="0" y="870"/>
</glyph>
<glyph name="k" format="2">
  <advance width="2681" height="1448"/>
  <unicode hex="006B"/>
  <anchor x="842" y="1598" name="top"/>
  <anchor x="1222" y="-150" name="bottom"/>
  <anchor x="120" y="736" name="left"/>
  <outline>
    <contour>
      <point x="220" y="0" type="line"/>
      <point x="744" y="0" type="line"/>
      <point x="744" y="475" type="line"/>
      <point x="1722" y="0" type="line"/>
      <point x="2681" y="0" type="line"/>
      <point x="1438" y="577" type="line"/>
      <point x="2488" y="1024" type="line"/>
      <point x="1697" y="1024" type="line"/>
      <point x="744" y="611" type="line"/>
      <point x="744" y="1472" type="line"/>
      <point x="220" y="1472" type="line"/>
    </contour>
  </outline>
</glyph>
<glyph name="l" format="1">
  <advance width="1064" height="1448"/>
  <unicode hex="006C"/>
  <outline>
    <contour>
      <point x="270" y="0" type="line"/>
      <point x="794" y="0" type="line"/>
      <point x="794" y="1472" type="line"/>
      <point x="270" y="1472" type="line"/>
    </contour>
    <contour>
      <point x="532" y="1598" type="move" name="top"/>
    </contour>
    <contour>
      <point x="532" y="-150" type="move" name="bottom"/>
    </contour>
  </outline>
</glyph>
<glyph name="m" format="2">
  <advance width="3213" height="1448"/>
  <unicode hex="006D"/>
  <anchor x="1607" y="1174" name="top"/>
  <anchor x="1607" y="-150" name="bottom"/>
  <anchor x="121" y="512" name="left"/>
  <outline>
    <contour>
      <point x="220" y="0" type="line"/>
      <point x="744" y="0" type="line"/>
      <point x="744" y="602" type="line"/>
      <point x="1348" y="602" type="line"/>
      <point x="1348" y="0" type="line"/>
      <point x="1872" y="0" type="line"/>
      <point x="1872" y="602" type="line"/>
      <point x="2476" y="602" type="line"/>
      <point x="2476" y="602"/>
      <point x="2476" y="602"/>
      <point x="2476" y="602" type="qcurve"/>
      <point x="2476" y="0" type="line"/>
      <point x="3000" y="0" type="line"/>
      <point x="3000" y="734" type="line" smooth="yes"/>
      <point x="3000" y="812"/>
      <point x="2957" y="925"/>
      <point x="2867" y="999"/>
      <point x="2728" y="1034"/>
      <point x="2632" y="1034" type="qcurve" smooth="yes"/>
      <point x="2157" y="1034" type="line" smooth="yes"/>
      <point x="2084" y="1034"/>
      <point x="1977" y="1015"/>
      <point x="1902" y="975"/>
      <point x="1857" y="913"/>
      <point x="1848" y="870" type="qcurve"/>
      <point x="1827" y="923"/>
      <point x="1752" y="987"/>
      <point x="1658" y="1022"/>
      <point x="1553" y="1034"/>
      <point x="1502" y="1034" type="qcurve" smooth="yes"/>
      <point x="1028" y="1034" type="line" smooth="yes"/>
      <point x="910" y="1034"/>
      <point x="776" y="984"/>
      <point x="744" y="930" type="qcurve"/>
      <point x="744" y="1024" type="line"/>
      <point x="220" y="1024" type="line"/>
    </contour>
  </outline>
</glyph>
<glyph name="n" format="1">
  <advance width="2422" height="1448"/>
  <unicode hex="006E"/>
  <outline>
    <contour>
      <point x="270" y="0" type="line"/>
      <point x="270" y="1024" type="line"/>
      <point x="794" y="1024" type="line"/>
      <point x="794" y="930" type="line"/>
      <point x="836" y="1002"/>
      <point x="924" y="1034"/>
      <point x="1080" y="1034" type="curve" smooth="yes"/>
      <point x="1794" y="1034" type="line" smooth="yes"/>
      <point x="2050" y="1034"/>
      <point x="2162" y="942"/>
      <point x="2162" y="734" type="curve" smooth="yes"/>
      <point x="2162" y="0" type="line"/>
      <point x="1638" y="0" type="line"/>
      <point x="1638" y="602" type="line"/>
      <point x="1638" y="602"/>
      <point x="1638" y="602"/>
      <point x="1638" y="602" type="curve"/>
      <point x="794" y="602" type="line"/>
      <point x="794" y="0" type="line"/>
    </contour>
    <contour>
      <point x="1217" y="1174" type="move" name="top"/>
    </contour>
    <contour>
      <point x="1217" y="-150" type="move" name="bottom"/>
    </contour>
    <contour>
      <point x="171" y="512" type="move" name="left"/>
    </contour>
  </outline>
</glyph>
<glyph name="p" format="1">
  <advance width="2596" height="1448"/>
  <unicode hex="0070"/>
  <outline>
    <contour>
      <point x="270" y="-428" type="line"/>
      <point x="270" y="1024" type="line"/>
      <point x="794" y="1024" type="line"/>
      <point x="794" y="922" type="line"/>
      <point x="836" y="998"/>
      <point x="924" y="1034"/>
      <point x="1068" y="1034" type="curve" smooth="yes"/>
      <point x="1984" y="1034" type="line" smooth="yes"/>
      <point x="2198" y="1034"/>
      <point x="2290" y="954"/>
      <point x="2290" y="770" type="curve" smooth="yes"/>
      <point x="2290" y="244" type="line" smooth="yes"/>
      <point x="2290" y="70"/>
      <point x="2196" y="-10"/>
      <point x="1984" y="-10" type="curve" smooth="yes"/>
      <point x="1068" y="-10" type="line" smooth="yes"/>
      <point x="926" y="-10"/>
      <point x="838" y="26"/>
      <point x="794" y="102" type="curve"/>
      <point x="794" y="-428" type="line"/>
    </contour>
    <contour>
      <point x="794" y="372" type="line"/>
      <point x="1766" y="372" type="line"/>
      <point x="1766" y="372"/>
      <point x="1766" y="372"/>
      <point x="1766" y="372" type="curve"/>
      <point x="1766" y="652" type="line"/>
      <point x="1766" y="652"/>
      <point x="1766" y="652"/>
      <point x="1766" y="652" type="curve"/>
      <point x="794" y="652" type="line"/>
    </contour>
    <contour>
      <point x="1245" y="1598" type="move" name="top"/>
    </contour>
    <contour>
      <point x="1281" y="-554" type="move" name="bottom"/>
    </contour>
  </outline>
</glyph>
<glyph name="q" format="1">
  <advance width="2596" height="1448"/>
  <unicode hex="0071"/>
  <outline>
    <contour>
      <point x="306" y="254" type="curve" smooth="yes"/>
      <point x="306" y="780" type="line" smooth="yes"/>
      <point x="306" y="954"/>
      <point x="400" y="1034"/>
      <point x="612" y="1034" type="curve" smooth="yes"/>
      <point x="1528" y="1034" type="line" smooth="yes"/>
      <point x="1670" y="1034"/>
      <point x="1758" y="998"/>
      <point x="1802" y="922" type="curve"/>
      <point x="1802" y="1024" type="line"/>
      <point x="2326" y="1024" type="line"/>
      <point x="2325" y="-428" type="line"/>
      <point x="1801" y="-428" type="line"/>
      <point x="1802" y="102" type="line"/>
      <point x="1760" y="26"/>
      <point x="1672" y="-10"/>
      <point x="1528" y="-10" type="curve" smooth="yes"/>
      <point x="612" y="-10" type="line" smooth="yes"/>
      <point x="398" y="-10"/>
      <point x="306" y="70"/>
    </contour>
    <contour>
      <point x="830" y="372" type="line"/>
      <point x="830" y="372"/>
      <point x="830" y="372"/>
      <point x="830" y="372" type="curve"/>
      <point x="1802" y="372" type="line"/>
      <point x="1802" y="652" type="line"/>
      <point x="830" y="652" type="line"/>
      <point x="830" y="652"/>
      <point x="830" y="652"/>
      <point x="830" y="652" type="curve"/>
    </contour>
    <contour>
      <point x="1298" y="1178" type="move" name="top"/>
    </contour>
    <contour>
      <point x="1298" y="-578" type="move" name="bottom"/>
    </contour>
  </outline>
</glyph>
<glyph name="r" format="1">
  <advance width="2156" height="1448"/>
  <unicode hex="0072"/>
  <outline>
    <contour>
      <point x="270" y="0" type="line"/>
      <point x="270" y="1024" type="line"/>
      <point x="794" y="1024" type="line"/>
      <point x="794" y="920" type="line"/>
      <point x="836" y="992"/>
      <point x="924" y="1024"/>
      <point x="1080" y="1024" type="curve" smooth="yes"/>
      <point x="1644" y="1024" type="line" smooth="yes"/>
      <point x="1900" y="1024"/>
      <point x="2012" y="932"/>
      <point x="2012" y="724" type="curve" smooth="yes"/>
      <point x="2012" y="590" type="line"/>
      <point x="1488" y="492" type="line"/>
      <point x="1488" y="592" type="line"/>
      <point x="1488" y="592"/>
      <point x="1488" y="592"/>
      <point x="1488" y="592" type="curve"/>
      <point x="794" y="592" type="line"/>
      <point x="794" y="0" type="line"/>
    </contour>
    <contour>
      <point x="1141" y="1174" type="move" name="top"/>
    </contour>
    <contour>
      <point x="532" y="-150" type="move" name="bottom"/>
    </contour>
    <contour>
      <point x="170" y="512" type="move" name="left"/>
    </contour>
  </outline>
</glyph>
<glyph name="s" format="1">
  <advance width="2319"/>
  <unicode hex="0073"/>
  <outline>
    <contour>
      <point x="229.5" y="255" type="line"/>
      <point x="753.5" y="336" type="line"/>
      <point x="753.5" y="262" type="line"/>
      <point x="753.5" y="262"/>
      <point x="753.5" y="262"/>
      <point x="753.5" y="262" type="curve"/>
      <point x="1553.5" y="262" type="line"/>
      <point x="1553.5" y="262"/>
      <point x="1553.5" y="262"/>
      <point x="1553.5" y="262" type="curve"/>
      <point x="1553.5" y="358" type="line"/>
      <point x="1553.5" y="358"/>
      <point x="1553.5" y="358"/>
      <point x="1553.5" y="358" type="curve"/>
      <point x="527.5" y="358" type="line" smooth="yes"/>
      <point x="355.5" y="358"/>
      <point x="251.5" y="426"/>
      <point x="251.5" y="616" type="curve" smooth="yes"/>
      <point x="251.5" y="808" type="line" smooth="yes"/>
      <point x="251.5" y="994"/>
      <point x="359.5" y="1034"/>
      <point x="533.5" y="1034" type="curve" smooth="yes"/>
      <point x="1781.5" y="1034" type="line" smooth="yes"/>
      <point x="1955.5" y="1034"/>
      <point x="2063.5" y="986"/>
      <point x="2063.5" y="802" type="curve" smooth="yes"/>
      <point x="2063.5" y="775" type="line"/>
      <point x="1539.5" y="694" type="line"/>
      <point x="1539.5" y="752" type="line"/>
      <point x="1539.5" y="752"/>
      <point x="1539.5" y="752"/>
      <point x="1539.5" y="752" type="curve"/>
      <point x="775.5" y="752" type="line"/>
      <point x="775.5" y="752"/>
      <point x="775.5" y="752"/>
      <point x="775.5" y="752" type="curve"/>
      <point x="775.5" y="676" type="line"/>
      <point x="775.5" y="676"/>
      <point x="775.5" y="676"/>
      <point x="775.5" y="676" type="curve"/>
      <point x="1799.5" y="676" type="line" smooth="yes"/>
      <point x="1965.5" y="676"/>
      <point x="2077.5" y="642"/>
      <point x="2077.5" y="454" type="curve" smooth="yes"/>
      <point x="2077.5" y="222" type="line" smooth="yes"/>
      <point x="2077.5" y="30"/>
      <point x="1969.5" y="-10"/>
      <point x="1797.5" y="-10" type="curve" smooth="yes"/>
      <point x="505.5" y="-10" type="line" smooth="yes"/>
      <point x="333.5" y="-10"/>
      <point x="229.5" y="40"/>
      <point x="229.5" y="232" type="curve" smooth="yes"/>
    </contour>
    <contour>
      <point x="1153" y="1174" type="move" name="top"/>
    </contour>
    <contour>
      <point x="1153" y="-150" type="move" name="bottom"/>
    </contour>
  </outline>
</glyph>
<glyph name="t" format="1">
  <advance width="1644.55"/>
  <unicode hex="0074"/>
  <outline>
    <contour>
      <point x="434" y="246" type="curve" smooth="yes"/>
      <point x="434" y="1244" type="line"/>
      <point x="958" y="1244" type="line"/>
      <point x="958" y="292" type="line"/>
      <point x="958" y="292"/>
      <point x="958" y="292"/>
      <point x="958" y="292" type="curve"/>
      <point x="1383" y="292" type="line"/>
      <point x="1433" y="-10" type="line"/>
      <point x="740" y="-10" type="line" smooth="yes"/>
      <point x="520" y="-10"/>
      <point x="434" y="62"/>
    </contour>
    <contour>
      <point x="162" y="722" type="line"/>
      <point x="162" y="1024" type="line"/>
      <point x="1438" y="1024" type="line"/>
      <point x="1438" y="722" type="line"/>
    </contour>
    <contour>
      <point x="800" y="1394" type="move" name="top"/>
    </contour>
    <contour>
      <point x="800" y="-160" type="move" name="bottom"/>
    </contour>
  </outline>
</glyph>
<glyph name="u" format="1">
  <advance width="2471.2"/>
  <unicode hex="0075"/>
  <outline>
    <contour>
      <point x="314" y="204" type="curve" smooth="yes"/>
      <point x="314" y="1024" type="line"/>
      <point x="838" y="1024" type="line"/>
      <point x="838" y="412" type="line"/>
      <point x="838" y="412"/>
      <point x="838" y="412"/>
      <point x="838" y="412" type="curve"/>
      <point x="1633.2" y="412" type="line"/>
      <point x="1633.2" y="412"/>
      <point x="1633.2" y="412"/>
      <point x="1633.2" y="412" type="curve"/>
      <point x="1633.2" y="1024" type="line"/>
      <point x="2157.2" y="1024" type="line"/>
      <point x="2157.2" y="204" type="line" smooth="yes"/>
      <point x="2157.2" y="36"/>
      <point x="2063.2" y="0"/>
      <point x="1911.2" y="0" type="curve" smooth="yes"/>
      <point x="558" y="0" type="line" smooth="yes"/>
      <point x="406" y="0"/>
      <point x="314" y="36"/>
    </contour>
    <contour>
      <point x="1236" y="1174" type="move" name="top"/>
    </contour>
    <contour>
      <point x="1236" y="-150" type="move" name="bottom"/>
    </contour>
  </outline>
</glyph>
<glyph name="v" format="1">
  <advance width="2124.4"/>
  <unicode hex="0076"/>
  <outline>
    <contour>
      <point x="846.2" y="0" type="line"/>
      <point x="16.2" y="1024" type="line"/>
      <point x="660.2" y="1024" type="line"/>
      <point x="1250.2" y="278" type="line"/>
      <point x="1250.2" y="0" type="line"/>
    </contour>
    <contour>
      <point x="892.2" y="0" type="line"/>
      <point x="892.2" y="202" type="line"/>
      <point x="1542.2" y="1024" type="line"/>
      <point x="2108.2" y="1024" type="line"/>
      <point x="1298.2" y="0" type="line"/>
    </contour>
    <contour>
      <point x="1062.2" y="1174" type="move" name="top"/>
    </contour>
    <contour>
      <point x="1062.2" y="-150" type="move" name="bottom"/>
    </contour>
  </outline>
</glyph>
<glyph name="w" format="2">
  <advance width="2928"/>
  <unicode hex="0077"/>
  <anchor x="1528" y="1174" name="top"/>
  <anchor x="1504" y="-150" name="bottom"/>
  <outline>
    <contour>
      <point x="659" y="0" type="line"/>
      <point x="0" y="1024" type="line"/>
      <point x="613" y="1024" type="line"/>
      <point x="1064" y="248" type="line"/>
      <point x="1064" y="0" type="line"/>
    </contour>
    <contour>
      <point x="833" y="0" type="line"/>
      <point x="833" y="248" type="line"/>
      <point x="1282" y="1024" type="line"/>
      <point x="1603" y="1024" type="line"/>
      <point x="1603" y="738" type="line"/>
      <point x="1183" y="0" type="line"/>
    </contour>
    <contour>
      <point x="1844" y="0" type="line"/>
      <point x="1400" y="738" type="line"/>
      <point x="1400" y="1024" type="line"/>
      <point x="1782" y="1024" type="line"/>
      <point x="2248" y="248" type="line"/>
      <point x="2248" y="0" type="line"/>
    </contour>
    <contour>
      <point x="1952" y="0" type="line"/>
      <point x="1952" y="248" type="line"/>
      <point x="2400" y="1024" type="line"/>
      <point x="2928" y="1024" type="line"/>
      <point x="2306" y="0" type="line"/>
    </contour>
  </outline>
</glyph>
<glyph name="x" format="1">
  <advance width="2275"/>
  <unicode hex="0078"/>
  <outline>
    <contour>
      <point x="1445.6" y="0" type="line"/>
      <point x="2247.6" y="0" type="line"/>
      <point x="1420.6" y="588" type="line"/>
      <point x="1257.6" y="692" type="line"/>
      <point x="859.6" y="1024" type="line"/>
      <point x="52.6" y="1024" type="line"/>
      <point x="836.6" y="474" type="line"/>
      <point x="959.6" y="390" type="line"/>
    </contour>
    <contour>
      <point x="27" y="0" type="line"/>
      <point x="782" y="0" type="line"/>
      <point x="1241.6" y="369" type="line"/>
      <point x="1425.6" y="490" type="line"/>
      <point x="2216.6" y="1024" type="line"/>
      <point x="1462.6" y="1024" type="line"/>
      <point x="1039.6" y="686" type="line"/>
      <point x="844.6" y="558" type="line"/>
    </contour>
    <contour>
      <point x="1137" y="1174" type="move" name="top"/>
    </contour>
    <contour>
      <point x="1137" y="-150" type="move" name="bottom"/>
    </contour>
  </outline>
</glyph>
<glyph name="y" format="1">
  <advance width="2139"/>
  <unicode hex="0079"/>
  <outline>
    <contour>
      <point x="876.6" y="0" type="line"/>
      <point x="1280.6" y="0" type="line"/>
      <point x="1280.6" y="278" type="line"/>
      <point x="688.6" y="1024" type="line"/>
      <point x="48.6" y="1024" type="line"/>
    </contour>
    <contour>
      <point x="146.6" y="-428" type="line"/>
      <point x="590.6" y="-428" type="line" smooth="yes"/>
      <point x="932.6" y="-428"/>
      <point x="1060.6" y="-346"/>
      <point x="1279.6" y="-68" type="curve"/>
      <point x="2138.6" y="1024" type="line"/>
      <point x="1578.6" y="1024" type="line"/>
      <point x="1016.28" y="297" type="line"/>
      <point x="991.28" y="265" type="line"/>
      <point x="723.6" y="-80" type="line"/>
      <point x="723.6" y="-80"/>
      <point x="723.6" y="-80"/>
      <point x="723.6" y="-80" type="curve"/>
      <point x="74.6" y="-80" type="line"/>
    </contour>
    <contour>
      <point x="1094" y="1174" type="move" name="top"/>
    </contour>
    <contour>
      <point x="1094" y="-578" type="move" name="bottom"/>
    </contour>
  </outline>
</glyph>
<glyph name="z" format="1">
  <advance width="2087.2"/>
  <unicode hex="007A"/>
  <outline>
    <contour>
      <point x="161.1" y="187" type="line"/>
      <point x="853.1" y="187" type="line"/>
      <point x="1890.1" y="837" type="line"/>
      <point x="1198.1" y="837" type="line"/>
    </contour>
    <contour>
      <point x="161.1" y="0" type="line"/>
      <point x="1916.1" y="0" type="line"/>
      <point x="1916.1" y="322" type="line"/>
      <point x="567.1" y="322" type="line"/>
      <point x="161.1" y="187" type="line"/>
    </contour>
    <contour>
      <point x="222.1" y="702" type="line"/>
      <point x="1504.1" y="702" type="line"/>
      <point x="1890.1" y="837" type="line"/>
      <point x="1890.1" y="1024" type="line"/>
      <point x="222.1" y="1024" type="line"/>
    </contour>
    <contour>
      <point x="1039" y="1174" type="move" name="top"/>
    </contour>
    <contour>
      <point x="1039" y="-150" type="move" name="bottom"/>
    </contour>
  </outline>
</glyph>
<glyph name="braceleft" format="2">
  <advance width="1278"/>
  <unicode hex="007B"/>
  <outline>
    <contour>
      <point x="387" y="18" type="line"/>
      <point x="387" y="257" type="line" smooth="yes"/>
      <point x="387" y="298"/>
      <point x="364" y="364"/>
      <point x="310" y="410"/>
      <point x="222" y="435"/>
      <point x="157" y="435" type="qcurve"/>
      <point x="157" y="759" type="line"/>
      <point x="222" y="759"/>
      <point x="310" y="784"/>
      <point x="364" y="831"/>
      <point x="387" y="897"/>
      <point x="387" y="937" type="qcurve" smooth="yes"/>
      <point x="387" y="1164" type="line" smooth="yes"/>
      <point x="387" y="1232"/>
      <point x="430" y="1337"/>
      <point x="508" y="1410"/>
      <point x="618" y="1448"/>
      <point x="685" y="1448" type="qcurve" smooth="yes"/>
      <point x="1218" y="1448" type="line"/>
      <point x="1218" y="1098" type="line"/>
      <point x="949" y="1098" type="line" smooth="yes"/>
      <point x="916" y="1098"/>
      <point x="870" y="1085"/>
      <point x="841" y="1057"/>
      <point x="827" y="1015"/>
      <point x="827" y="986" type="qcurve" smooth="yes"/>
      <point x="827" y="877" type="line" smooth="yes"/>
      <point x="827" y="766"/>
      <point x="723" y="624"/>
      <point x="627" y="597" type="qcurve"/>
      <point x="675" y="584"/>
      <point x="750" y="534"/>
      <point x="801" y="464"/>
      <point x="827" y="373"/>
      <point x="827" y="317" type="qcurve" smooth="yes"/>
      <point x="827" y="206" type="line" smooth="yes"/>
      <point x="827" y="177"/>
      <point x="841" y="135"/>
      <point x="870" y="107"/>
      <point x="916" y="94"/>
      <point x="949" y="94" type="qcurve" smooth="yes"/>
      <point x="1218" y="94" type="line"/>
      <point x="1218" y="-256" type="line"/>
      <point x="685" y="-256" type="line" smooth="yes"/>
      <point x="618" y="-256"/>
      <point x="508" y="-218"/>
      <point x="430" y="-147"/>
      <point x="387" y="-46"/>
      <point x="387" y="18" type="qcurve"/>
    </contour>
  </outline>
</glyph>
<glyph name="bar" format="1">
  <advance width="1120"/>
  <unicode hex="007C"/>
  <outline>
    <contour>
      <point x="360" y="1520" type="line"/>
      <point x="760" y="1520" type="line"/>
      <point x="760" y="-480" type="line"/>
      <point x="360" y="-480" type="line"/>
    </contour>
  </outline>
</glyph>
<glyph name="cent" format="2">
  <advance width="2271"/>
  <unicode hex="00A2"/>
  <outline>
    <contour>
      <point x="990" y="-100" type="line"/>
      <point x="1332" y="-100" type="line"/>
      <point x="1332" y="140" type="line"/>
      <point x="1792" y="140" type="line" smooth="yes"/>
      <point x="1881" y="140"/>
      <point x="2004" y="170"/>
      <point x="2081" y="235"/>
      <point x="2116" y="337"/>
      <point x="2116" y="410" type="qcurve" smooth="yes"/>
      <point x="2116" y="516" type="line"/>
      <point x="1592" y="624" type="line"/>
      <point x="1592" y="522" type="line"/>
      <point x="1592" y="522"/>
      <point x="1592" y="522"/>
      <point x="1592" y="522" type="qcurve"/>
      <point x="1332" y="522" type="line"/>
      <point x="1332" y="802" type="line"/>
      <point x="1588" y="802" type="line"/>
      <point x="1588" y="802"/>
      <point x="1588" y="802"/>
      <point x="1588" y="802" type="qcurve"/>
      <point x="1588" y="702" type="line"/>
      <point x="2112" y="800" type="line"/>
      <point x="2112" y="928" type="line" smooth="yes"/>
      <point x="2112" y="997"/>
      <point x="2077" y="1094"/>
      <point x="1999" y="1156"/>
      <point x="1877" y="1184"/>
      <point x="1790" y="1184" type="qcurve" smooth="yes"/>
      <point x="1332" y="1184" type="line"/>
      <point x="1332" y="1400" type="line"/>
      <point x="990" y="1400" type="line"/>
      <point x="990" y="1184" type="line"/>
      <point x="532" y="1184" type="line" smooth="yes"/>
      <point x="445" y="1184"/>
      <point x="321" y="1155"/>
      <point x="243" y="1092"/>
      <point x="206" y="994"/>
      <point x="206" y="924" type="qcurve" smooth="yes"/>
      <point x="206" y="410" type="line" smooth="yes"/>
      <point x="206" y="337"/>
      <point x="241" y="235"/>
      <point x="318" y="170"/>
      <point x="442" y="140"/>
      <point x="530" y="140" type="qcurve" smooth="yes"/>
      <point x="990" y="140" type="line"/>
    </contour>
    <contour>
      <point x="990" y="802" type="line"/>
      <point x="990" y="522" type="line"/>
      <point x="730" y="522" type="line"/>
      <point x="730" y="522"/>
      <point x="730" y="522"/>
      <point x="730" y="522" type="qcurve"/>
      <point x="730" y="802" type="line"/>
      <point x="730" y="802"/>
      <point x="730" y="802"/>
      <point x="730" y="802" type="qcurve"/>
    </contour>
  </outline>
</glyph>
<glyph name="sterling" format="1">
  <advance width="3000"/>
  <unicode hex="00A3"/>
  <outline>
    <contour>
      <point x="105" y="0" type="line"/>
      <point x="652" y="0" type="line" smooth="yes"/>
      <point x="904" y="0"/>
      <point x="1064" y="66"/>
      <point x="1064" y="334" type="curve" smooth="yes"/>
      <point x="1064" y="950" type="line" smooth="yes"/>
      <point x="1064" y="1020"/>
      <point x="1094" y="1050"/>
      <point x="1164" y="1050" type="curve" smooth="yes"/>
      <point x="2026" y="1050" type="line" smooth="yes"/>
      <point x="2096" y="1050"/>
      <point x="2126" y="1020"/>
      <point x="2126" y="950" type="curve" smooth="yes"/>
      <point x="2126" y="846" type="line"/>
      <point x="2698" y="952" type="line"/>
      <point x="2698" y="1080" type="line" smooth="yes"/>
      <point x="2698" y="1348"/>
      <point x="2536" y="1414"/>
      <point x="2284" y="1414" type="curve" smooth="yes"/>
      <point x="904" y="1414" type="line" smooth="yes"/>
      <point x="652" y="1414"/>
      <point x="492" y="1348"/>
      <point x="492" y="1080" type="curve" smooth="yes"/>
      <point x="492" y="464" type="line" smooth="yes"/>
      <point x="492" y="394"/>
      <point x="462" y="364"/>
      <point x="392" y="364" type="curve" smooth="yes"/>
      <point x="105" y="364" type="line"/>
    </contour>
    <contour>
      <point x="633" y="288" type="line"/>
      <point x="862" y="100"/>
      <point x="1054" y="0"/>
      <point x="1321" y="0" type="curve" smooth="yes"/>
      <point x="2290" y="0" type="line" smooth="yes"/>
      <point x="2554" y="0"/>
      <point x="2704" y="70"/>
      <point x="2704" y="346" type="curve" smooth="yes"/>
      <point x="2704" y="388" type="line"/>
      <point x="2132" y="500" type="line"/>
      <point x="2132" y="464" type="line" smooth="yes"/>
      <point x="2132" y="394"/>
      <point x="2102" y="364"/>
      <point x="2032" y="364" type="curve" smooth="yes"/>
      <point x="1354" y="364" type="line" smooth="yes"/>
      <point x="1134" y="364"/>
      <point x="964" y="433"/>
      <point x="824" y="556" type="curve"/>
    </contour>
    <contour>
      <point x="293" y="543" type="line"/>
      <point x="1641" y="543" type="line"/>
      <point x="1690" y="785" type="line"/>
      <point x="293" y="785" type="line"/>
    </contour>
  </outline>
</glyph>
<glyph name="currency" format="2">
  <advance width="2746" height="1448"/>
  <unicode hex="00A4"/>
  <outline>
    <contour>
      <point x="355" y="437" type="line"/>
      <point x="355" y="963" type="line" smooth="yes"/>
      <point x="355" y="1028"/>
      <point x="391" y="1124"/>
      <point x="466" y="1187"/>
      <point x="582" y="1217"/>
      <point x="661" y="1217" type="qcurve" smooth="yes"/>
      <point x="2085" y="1217" type="line" smooth="yes"/>
      <point x="2244" y="1217"/>
      <point x="2391" y="1094"/>
      <point x="2391" y="963" type="qcurve" smooth="yes"/>
      <point x="2391" y="437" type="line" smooth="yes"/>
      <point x="2391" y="368"/>
      <point x="2356" y="268"/>
      <point x="2282" y="204"/>
      <point x="2166" y="173"/>
      <point x="2085" y="173" type="qcurve" smooth="yes"/>
      <point x="661" y="173" type="line" smooth="yes"/>
      <point x="581" y="173"/>
      <point x="465" y="204"/>
      <point x="390" y="268"/>
      <point x="355" y="368"/>
      <point x="355" y="437" type="qcurve"/>
    </contour>
    <contour>
      <point x="879" y="555" type="line"/>
      <point x="879" y="555"/>
      <point x="879" y="555"/>
      <point x="879" y="555" type="qcurve"/>
      <point x="1867" y="555" type="line"/>
      <point x="1867" y="555"/>
      <point x="1867" y="555"/>
      <point x="1867" y="555" type="qcurve"/>
      <point x="1867" y="835" type="line"/>
      <point x="1867" y="835"/>
      <point x="1867" y="835"/>
      <point x="1867" y="835" type="qcurve"/>
      <point x="879" y="835" type="line"/>
      <point x="879" y="835"/>
      <point x="879" y="835"/>
      <point x="879" y="835" type="qcurve"/>
    </contour>
    <contour>
      <point x="262" y="-80" type="line"/>
      <point x="106" y="105" type="line"/>
      <point x="636" y="550" type="line"/>
      <point x="792" y="365" type="line"/>
    </contour>
    <contour>
      <point x="106" y="1285" type="line"/>
      <point x="262" y="1470" type="line"/>
      <point x="792" y="1025" type="line"/>
      <point x="636" y="840" type="line"/>
    </contour>
    <contour>
      <point x="2484" y="1470" type="line"/>
      <point x="2640" y="1285" type="line"/>
      <point x="2110" y="840" type="line"/>
      <point x="1954" y="1025" type="line"/>
    </contour>
    <contour>
      <point x="2640" y="105" type="line"/>
      <point x="2484" y="-80" type="line"/>
      <point x="1954" y="365" type="line"/>
      <point x="2110" y="550" type="line"/>
    </contour>
  </outline>
</glyph>
<glyph name="yen" format="1">
  <advance width="2873"/>
  <unicode hex="00A5"/>
  <outline>
    <component base="Y" xOffset="-10"/>
    <contour>
      <point x="339" y="560" type="line"/>
      <point x="2535" y="560" type="line"/>
      <point x="2535" y="720" type="line"/>
      <point x="339" y="720" type="line"/>
    </contour>
    <contour>
      <point x="339" y="300" type="line"/>
      <point x="2535" y="300" type="line"/>
      <point x="2535" y="460" type="line"/>
      <point x="339" y="460" type="line"/>
    </contour>
  </outline>
</glyph>
<glyph name="brokenbar" format="1">
  <advance width="1120"/>
  <unicode hex="00A6"/>
  <outline>
    <contour>
      <point x="360" y="1520" type="line"/>
      <point x="760" y="1520" type="line"/>
      <point x="760" y="720" type="line"/>
      <point x="360" y="720" type="line"/>
    </contour>
    <contour>
      <point x="360" y="320" type="line"/>
      <point x="760" y="320" type="line"/>
      <point x="760" y="-480" type="line"/>
      <point x="360" y="-480" type="line"/>
    </contour>
  </outline>
</glyph>
<glyph name="section" format="2">
  <advance width="2467"/>
  <unicode hex="00A7"/>
  <outline>
    <contour>
      <point x="598" y="-158" type="line"/>
      <point x="1890" y="-158" type="line" smooth="yes"/>
      <point x="1955" y="-158"/>
      <point x="2058" y="-140"/>
      <point x="2131" y="-89"/>
      <point x="2170" y="2"/>
      <point x="2170" y="74" type="qcurve" smooth="yes"/>
      <point x="2170" y="306" type="line"/>
      <point x="2170" y="306"/>
      <point x="2170" y="306"/>
      <point x="2170" y="306" type="qcurve"/>
      <point x="2194" y="318"/>
      <point x="2231" y="352"/>
      <point x="2257" y="402"/>
      <point x="2270" y="466"/>
      <point x="2270" y="508" type="qcurve" smooth="yes"/>
      <point x="2270" y="800" type="line" smooth="yes"/>
      <point x="2270" y="871"/>
      <point x="2230" y="958"/>
      <point x="2157" y="1006"/>
      <point x="2054" y="1022"/>
      <point x="1992" y="1022" type="qcurve" smooth="yes"/>
      <point x="868" y="1022" type="line"/>
      <point x="868" y="1022"/>
      <point x="868" y="1022"/>
      <point x="868" y="1022" type="qcurve"/>
      <point x="868" y="1118" type="line"/>
      <point x="868" y="1118"/>
      <point x="868" y="1118"/>
      <point x="868" y="1118" type="qcurve"/>
      <point x="1632" y="1118" type="line"/>
      <point x="1632" y="1118"/>
      <point x="1632" y="1118"/>
      <point x="1632" y="1118" type="qcurve"/>
      <point x="1632" y="1060" type="line"/>
      <point x="2156" y="1141" type="line"/>
      <point x="2156" y="1168" type="line" smooth="yes"/>
      <point x="2156" y="1237"/>
      <point x="2117" y="1327"/>
      <point x="2044" y="1379"/>
      <point x="1939" y="1400"/>
      <point x="1874" y="1400" type="qcurve" smooth="yes"/>
      <point x="626" y="1400" type="line" smooth="yes"/>
      <point x="561" y="1400"/>
      <point x="456" y="1382"/>
      <point x="383" y="1332"/>
      <point x="344" y="1244"/>
      <point x="344" y="1174" type="qcurve" smooth="yes"/>
      <point x="344" y="951" type="line"/>
      <point x="344" y="951"/>
      <point x="344" y="951"/>
      <point x="344" y="951" type="qcurve"/>
      <point x="311" y="942"/>
      <point x="259" y="910"/>
      <point x="223" y="859"/>
      <point x="204" y="788"/>
      <point x="204" y="740" type="qcurve" smooth="yes"/>
      <point x="204" y="488" type="line" smooth="yes"/>
      <point x="204" y="417"/>
      <point x="242" y="318"/>
      <point x="313" y="257"/>
      <point x="416" y="230"/>
      <point x="480" y="230" type="qcurve" smooth="yes"/>
      <point x="1646" y="230" type="line"/>
      <point x="1646" y="230"/>
      <point x="1646" y="230"/>
      <point x="1646" y="230" type="qcurve"/>
      <point x="1646" y="114" type="line"/>
      <point x="1646" y="114"/>
      <point x="1646" y="114"/>
      <point x="1646" y="114" type="qcurve"/>
      <point x="846" y="114" type="line"/>
      <point x="846" y="114"/>
      <point x="846" y="114"/>
      <point x="846" y="114" type="qcurve"/>
      <point x="846" y="188" type="line"/>
      <point x="322" y="107" type="line"/>
      <point x="322" y="84" type="line" smooth="yes"/>
      <point x="322" y="12"/>
      <point x="360" y="-82"/>
      <point x="431" y="-136"/>
      <point x="534" y="-158"/>
      <point x="598" y="-158" type="qcurve"/>
    </contour>
    <contour>
      <point x="728" y="548" type="line"/>
      <point x="728" y="548"/>
      <point x="728" y="548"/>
      <point x="728" y="548" type="qcurve"/>
      <point x="728" y="704" type="line"/>
      <point x="728" y="704"/>
      <point x="728" y="704"/>
      <point x="728" y="704" type="qcurve"/>
      <point x="1746" y="704" type="line"/>
      <point x="1746" y="704"/>
      <point x="1746" y="704"/>
      <point x="1746" y="704" type="qcurve"/>
      <point x="1746" y="548" type="line"/>
      <point x="1746" y="548"/>
      <point x="1746" y="548"/>
      <point x="1746" y="548" type="qcurve"/>
    </contour>
  </outline>
</glyph>
<glyph name="copyright" format="1">
  <advance width="3156"/>
  <unicode hex="00A9"/>
  <outline>
    <contour>
      <point x="644" y="548" type="curve"/>
      <point x="644" y="862" type="line"/>
      <point x="644" y="1048"/>
      <point x="738" y="1122"/>
      <point x="970" y="1122" type="curve"/>
      <point x="2162" y="1122" type="line"/>
      <point x="2394" y="1122"/>
      <point x="2484" y="1050"/>
      <point x="2484" y="866" type="curve"/>
      <point x="2484" y="832" type="line"/>
      <point x="2060" y="745" type="line"/>
      <point x="2060" y="790" type="line"/>
      <point x="2060" y="790"/>
      <point x="2060" y="790"/>
      <point x="2060" y="790" type="curve"/>
      <point x="1078" y="790" type="line"/>
      <point x="1078" y="790"/>
      <point x="1078" y="790"/>
      <point x="1078" y="790" type="curve"/>
      <point x="1078" y="610" type="line"/>
      <point x="1078" y="610"/>
      <point x="1078" y="610"/>
      <point x="1078" y="610" type="curve"/>
      <point x="2064" y="610" type="line"/>
      <point x="2064" y="610"/>
      <point x="2064" y="610"/>
      <point x="2064" y="610" type="curve"/>
      <point x="2064" y="662" type="line"/>
      <point x="2488" y="575" type="line"/>
      <point x="2488" y="548" type="line"/>
      <point x="2488" y="354"/>
      <point x="2400" y="278"/>
      <point x="2164" y="278" type="curve"/>
      <point x="968" y="278" type="line"/>
      <point x="732" y="278"/>
      <point x="644" y="354"/>
    </contour>
    <contour>
      <point x="340" y="1044" type="line" smooth="yes"/>
      <point x="340" y="1310"/>
      <point x="489" y="1378"/>
      <point x="752" y="1378" type="curve" smooth="yes"/>
      <point x="2368" y="1378" type="line" smooth="yes"/>
      <point x="2632" y="1378"/>
      <point x="2782" y="1320"/>
      <point x="2782" y="1044" type="curve" smooth="yes"/>
      <point x="2782" y="368" type="line" smooth="yes"/>
      <point x="2782" y="92"/>
      <point x="2632" y="22"/>
      <point x="2368" y="22" type="curve" smooth="yes"/>
      <point x="752" y="22" type="line" smooth="yes"/>
      <point x="488" y="22"/>
      <point x="340" y="90"/>
      <point x="340" y="368" type="curve" smooth="yes"/>
    </contour>
    <contour>
      <point x="534" y="1050" type="curve" smooth="yes"/>
      <point x="534" y="367" type="line" smooth="yes"/>
      <point x="534" y="227"/>
      <point x="612" y="192"/>
      <point x="752" y="192" type="curve" smooth="yes"/>
      <point x="2368" y="192" type="line" smooth="yes"/>
      <point x="2509" y="192"/>
      <point x="2588" y="226"/>
      <point x="2588" y="366" type="curve" smooth="yes"/>
      <point x="2588" y="1051" type="line" smooth="yes"/>
      <point x="2588" y="1177"/>
      <point x="2508" y="1208"/>
      <point x="2368" y="1208" type="curve" smooth="yes"/>
      <point x="752" y="1208" type="line" smooth="yes"/>
      <point x="613" y="1208"/>
      <point x="534" y="1177"/>
    </contour>
  </outline>
</glyph>
<glyph name="ordfeminine" format="1">
  <advance width="1651"/>
  <unicode hex="00AA"/>
  <outline>
    <contour>
      <point x="408" y="599" type="line" smooth="yes"/>
      <point x="300" y="599"/>
      <point x="215" y="636"/>
      <point x="215" y="765" type="curve" smooth="yes"/>
      <point x="215" y="843" type="line" smooth="yes"/>
      <point x="215" y="970"/>
      <point x="301" y="1002"/>
      <point x="408" y="1002" type="curve" smooth="yes"/>
      <point x="1116" y="1002" type="line"/>
      <point x="1116" y="1074" type="line"/>
      <point x="1116" y="1074"/>
      <point x="1116" y="1074"/>
      <point x="1116" y="1074" type="curve"/>
      <point x="570" y="1074" type="line"/>
      <point x="570" y="1074"/>
      <point x="570" y="1074"/>
      <point x="570" y="1074" type="curve"/>
      <point x="570" y="1039" type="line"/>
      <point x="230" y="1101" type="line"/>
      <point x="230" y="1114" type="line" smooth="yes"/>
      <point x="230" y="1243"/>
      <point x="308" y="1283"/>
      <point x="424" y="1283" type="curve" smooth="yes"/>
      <point x="1263" y="1283" type="line" smooth="yes"/>
      <point x="1377" y="1283"/>
      <point x="1456" y="1249"/>
      <point x="1456" y="1103" type="curve" smooth="yes"/>
      <point x="1456" y="606" type="line"/>
      <point x="1116" y="606" type="line"/>
      <point x="1116" y="704" type="line"/>
      <point x="1094" y="624"/>
      <point x="1023" y="599"/>
      <point x="931" y="599" type="curve" smooth="yes"/>
    </contour>
    <contour>
      <point x="555" y="777" type="line"/>
      <point x="555" y="777"/>
      <point x="555" y="777"/>
      <point x="555" y="777" type="curve"/>
      <point x="1116" y="777" type="line"/>
      <point x="1116" y="848" type="line"/>
      <point x="555" y="848" type="line"/>
      <point x="555" y="848"/>
      <point x="555" y="848"/>
      <point x="555" y="848" type="curve"/>
    </contour>
  </outline>
</glyph>
<glyph name="logicalnot" format="1">
  <advance width="1331"/>
  <unicode hex="00AC"/>
  <outline>
    <contour>
      <point x="1178" y="280" type="line"/>
      <point x="836" y="280" type="line"/>
      <point x="836" y="542" type="line"/>
      <point x="100" y="542" type="line"/>
      <point x="100" y="832" type="line"/>
      <point x="1178" y="832" type="line"/>
    </contour>
  </outline>
</glyph>
<glyph name="registered" format="2">
  <advance width="1175"/>
  <unicode hex="00AE"/>
  <outline>
    <contour>
      <point x="103" y="1057" type="line"/>
      <point x="103" y="1410" type="line" smooth="yes"/>
      <point x="103" y="1479"/>
      <point x="178" y="1552"/>
      <point x="247" y="1552" type="qcurve" smooth="yes"/>
      <point x="927" y="1552" type="line" smooth="yes"/>
      <point x="996" y="1552"/>
      <point x="1072" y="1479"/>
      <point x="1072" y="1410" type="qcurve" smooth="yes"/>
      <point x="1072" y="1057" type="line" smooth="yes"/>
      <point x="1072" y="988"/>
      <point x="996" y="914"/>
      <point x="927" y="914" type="qcurve" smooth="yes"/>
      <point x="247" y="914" type="line" smooth="yes"/>
      <point x="178" y="914"/>
      <point x="103" y="988"/>
      <point x="103" y="1057" type="qcurve"/>
    </contour>
    <contour>
      <point x="190" y="1395" type="line"/>
      <point x="190" y="1072" type="line" smooth="yes"/>
      <point x="190" y="1032"/>
      <point x="228" y="990"/>
      <point x="267" y="990" type="qcurve" smooth="yes"/>
      <point x="921" y="990" type="line" smooth="yes"/>
      <point x="961" y="990"/>
      <point x="985" y="1032"/>
      <point x="985" y="1072" type="qcurve" smooth="yes"/>
      <point x="985" y="1395" type="line" smooth="yes"/>
      <point x="985" y="1435"/>
      <point x="947" y="1476"/>
      <point x="907" y="1476" type="qcurve" smooth="yes"/>
      <point x="267" y="1476" type="line" smooth="yes"/>
      <point x="228" y="1476"/>
      <point x="190" y="1435"/>
      <point x="190" y="1395" type="qcurve"/>
    </contour>
    <contour>
      <point x="270" y="1400" type="line"/>
      <point x="814" y="1400" type="line" smooth="yes"/>
      <point x="858" y="1400"/>
      <point x="912" y="1369"/>
      <point x="912" y="1321" type="qcurve" smooth="yes"/>
      <point x="912" y="1239" type="line" smooth="yes"/>
      <point x="912" y="1216"/>
      <point x="898" y="1185"/>
      <point x="873" y="1167"/>
      <point x="837" y="1160"/>
      <point x="814" y="1160" type="qcurve" smooth="yes"/>
      <point x="746" y="1160" type="line"/>
      <point x="929" y="1060" type="line"/>
      <point x="738" y="1060" type="line"/>
      <point x="578" y="1156" type="line"/>
      <point x="397" y="1156" type="line"/>
      <point x="397" y="1060" type="line"/>
      <point x="270" y="1060" type="line"/>
    </contour>
    <contour>
      <point x="397" y="1255" type="line"/>
      <point x="768" y="1255" type="line" smooth="yes"/>
      <point x="777" y="1255"/>
      <point x="784" y="1263"/>
      <point x="784" y="1271" type="qcurve" smooth="yes"/>
      <point x="784" y="1285" type="line" smooth="yes"/>
      <point x="784" y="1293"/>
      <point x="777" y="1301"/>
      <point x="768" y="1301" type="qcurve" smooth="yes"/>
      <point x="397" y="1301" type="line"/>
    </contour>
  </outline>
</glyph>
<glyph name="three.sups" format="1">
  <advance width="1736" height="1448"/>
  <unicode hex="00B3"/>
  <outline>
    <contour>
      <point x="243" y="1254" type="curve" smooth="yes"/>
      <point x="243" y="1356" type="line"/>
      <point x="545" y="1404" type="line"/>
      <point x="545" y="1320" type="line"/>
      <point x="1143" y="1320" type="line" smooth="yes"/>
      <point x="1175" y="1320"/>
      <point x="1199" y="1326"/>
      <point x="1199" y="1364" type="curve" smooth="yes"/>
      <point x="1199" y="1384" type="line" smooth="yes"/>
      <point x="1199" y="1406"/>
      <point x="1175" y="1420"/>
      <point x="1149" y="1420" type="curve" smooth="yes"/>
      <point x="815" y="1420" type="line"/>
      <point x="815" y="1542" type="line"/>
      <point x="1115" y="1542" type="line" smooth="yes"/>
      <point x="1143" y="1542"/>
      <point x="1165" y="1554"/>
      <point x="1165" y="1576" type="curve" smooth="yes"/>
      <point x="1165" y="1590" type="line" smooth="yes"/>
      <point x="1165" y="1616"/>
      <point x="1143" y="1630"/>
      <point x="1115" y="1630" type="curve" smooth="yes"/>
      <point x="551" y="1630" type="line"/>
      <point x="551" y="1552" type="line"/>
      <point x="257" y="1602" type="line"/>
      <point x="257" y="1702" type="line" smooth="yes"/>
      <point x="257" y="1822"/>
      <point x="331" y="1882"/>
      <point x="483" y="1882" type="curve" smooth="yes"/>
      <point x="1235" y="1882" type="line" smooth="yes"/>
      <point x="1387" y="1882"/>
      <point x="1459" y="1816"/>
      <point x="1459" y="1696" type="curve" smooth="yes"/>
      <point x="1459" y="1658" type="line" smooth="yes"/>
      <point x="1459" y="1552"/>
      <point x="1421" y="1502"/>
      <point x="1329" y="1486" type="curve"/>
      <point x="1429" y="1480"/>
      <point x="1493" y="1432"/>
      <point x="1493" y="1306" type="curve" smooth="yes"/>
      <point x="1493" y="1260" type="line" smooth="yes"/>
      <point x="1493" y="1112"/>
      <point x="1399" y="1068"/>
      <point x="1257" y="1068" type="curve" smooth="yes"/>
      <point x="475" y="1068" type="line" smooth="yes"/>
      <point x="335" y="1068"/>
      <point x="243" y="1106"/>
    </contour>
  </outline>
</glyph>
<glyph name="paragraph" format="1">
  <advance width="2666"/>
  <unicode hex="00B6"/>
  <outline>
    <contour>
      <point x="2306" y="0" type="line"/>
      <point x="2114" y="0" type="line"/>
      <point x="2114" y="1238" type="line"/>
      <point x="1826" y="1238" type="line"/>
      <point x="1826" y="0" type="line"/>
      <point x="1634" y="0" type="line"/>
      <point x="1634" y="350" type="line"/>
      <point x="702" y="350" type="line" smooth="yes"/>
      <point x="450" y="350"/>
      <point x="288" y="408"/>
      <point x="288" y="676" type="curve" smooth="yes"/>
      <point x="288" y="1066" type="line" smooth="yes"/>
      <point x="288" y="1334"/>
      <point x="450" y="1400"/>
      <point x="702" y="1400" type="curve" smooth="yes"/>
      <point x="2306" y="1400" type="line"/>
    </contour>
  </outline>
</glyph>
<glyph name="ordmasculine" format="1">
  <advance width="1669"/>
  <unicode hex="00BA"/>
  <outline>
    <contour>
      <point x="200" y="772" type="curve" smooth="yes"/>
      <point x="200" y="1117" type="line" smooth="yes"/>
      <point x="200" y="1231"/>
      <point x="261" y="1283"/>
      <point x="400" y="1283" type="curve" smooth="yes"/>
      <point x="1265" y="1283" type="line" smooth="yes"/>
      <point x="1404" y="1283"/>
      <point x="1465" y="1231"/>
      <point x="1465" y="1117" type="curve" smooth="yes"/>
      <point x="1465" y="772" type="line" smooth="yes"/>
      <point x="1465" y="652"/>
      <point x="1406" y="599"/>
      <point x="1265" y="599" type="curve" smooth="yes"/>
      <point x="400" y="599" type="line" smooth="yes"/>
      <point x="260" y="599"/>
      <point x="200" y="652"/>
    </contour>
    <contour>
      <point x="540" y="848" type="line"/>
      <point x="540" y="848"/>
      <point x="540" y="848"/>
      <point x="540" y="848" type="curve"/>
      <point x="1125" y="848" type="line"/>
      <point x="1125" y="848"/>
      <point x="1125" y="848"/>
      <point x="1125" y="848" type="curve"/>
      <point x="1125" y="1034" type="line"/>
      <point x="1125" y="1034"/>
      <point x="1125" y="1034"/>
      <point x="1125" y="1034" type="curve"/>
      <point x="540" y="1034" type="line"/>
      <point x="540" y="1034"/>
      <point x="540" y="1034"/>
      <point x="540" y="1034" type="curve"/>
    </contour>
  </outline>
</glyph>
<glyph name="AE" format="1">
  <advance width="4778"/>
  <unicode hex="00C6"/>
  <outline>
    <contour>
      <point x="602" y="196" type="line"/>
      <point x="1021" y="556" type="line"/>
      <point x="2304" y="556" type="line"/>
      <point x="2304" y="196" type="line"/>
    </contour>
    <contour>
      <point x="0" y="0" type="line"/>
      <point x="1627" y="1400" type="line"/>
      <point x="2304" y="1400" type="line"/>
      <point x="2304" y="956" type="line"/>
      <point x="1859" y="956" type="line"/>
      <point x="747" y="0" type="line"/>
    </contour>
    <contour>
      <point x="2213" y="0" type="line"/>
      <point x="2213" y="1400" type="line"/>
      <point x="4519" y="1400" type="line"/>
      <point x="4519" y="976" type="line"/>
      <point x="2785" y="976" type="line"/>
      <point x="2785" y="890" type="line"/>
      <point x="3867" y="890" type="line"/>
      <point x="3867" y="520" type="line"/>
      <point x="2785" y="520" type="line"/>
      <point x="2785" y="424" type="line"/>
      <point x="4553" y="424" type="line"/>
      <point x="4553" y="0" type="line"/>
    </contour>
    <contour>
      <point x="4680" y="1550" type="move" name="top"/>
    </contour>
    <contour>
      <point x="4680" y="-150" type="move" name="bottom"/>
    </contour>
  </outline>
</glyph>
<glyph name="Eth" format="1">
  <advance width="3134"/>
  <unicode hex="00D0"/>
  <outline>
    <contour>
      <point x="201.64" y="862" type="line"/>
      <point x="1460.14" y="862" type="line"/>
      <point x="1460.14" y="550" type="line"/>
      <point x="201.64" y="550" type="line"/>
    </contour>
    <contour>
      <point x="932" y="444" type="line"/>
      <point x="1753" y="444" type="line" smooth="yes"/>
      <point x="2156" y="444"/>
      <point x="2318" y="519"/>
      <point x="2318" y="706" type="curve" smooth="yes"/>
      <point x="2318" y="890"/>
      <point x="2151" y="956"/>
      <point x="1753" y="956" type="curve" smooth="yes"/>
      <point x="932" y="956" type="line"/>
    </contour>
    <contour>
      <point x="360" y="0" type="line"/>
      <point x="360" y="1400" type="line"/>
      <point x="1956" y="1400" type="line" smooth="yes"/>
      <point x="2616" y="1400"/>
      <point x="2894" y="1172"/>
      <point x="2894" y="700" type="curve" smooth="yes"/>
      <point x="2894" y="198"/>
      <point x="2564" y="0"/>
      <point x="1956" y="0" type="curve" smooth="yes"/>
    </contour>
    <contour>
      <point x="1410" y="1550" type="move" name="top"/>
    </contour>
    <contour>
      <point x="1410" y="-150" type="move" name="bottom"/>
    </contour>
  </outline>
</glyph>
<glyph name="multiply" format="2">
  <advance width="1861"/>
  <unicode hex="00D7"/>
  <outline>
    <contour>
      <point x="195" y="920" type="line"/>
      <point x="357" y="1156" type="line"/>
      <point x="1666" y="259" type="line"/>
      <point x="1505" y="24" type="line"/>
    </contour>
    <contour>
      <point x="356" y="23" type="line"/>
      <point x="195" y="258" type="line"/>
      <point x="1505" y="1154" type="line"/>
      <point x="1666" y="919" type="line"/>
    </contour>
  </outline>
  <guideline x="356" y="23" angle="34.3709" color="1,0,0,1"/>
  <guideline x="195" y="920" angle="325.629" color="1,0,0,1"/>
</glyph>
<glyph name="Oslash" format="2">
  <advance width="3344"/>
  <unicode hex="00D8"/>
  <anchor x="1672" y="1590" name="top"/>
  <outline>
    <contour>
      <point x="340" y="1080" type="line"/>
      <point x="340" y="332" type="line" smooth="yes"/>
      <point x="340" y="229"/>
      <point x="395" y="95"/>
      <point x="500" y="17"/>
      <point x="653" y="-14"/>
      <point x="752" y="-14" type="qcurve" smooth="yes"/>
      <point x="2590" y="-14" type="line" smooth="yes"/>
      <point x="2689" y="-14"/>
      <point x="2843" y="17"/>
      <point x="2949" y="95"/>
      <point x="3004" y="229"/>
      <point x="3004" y="332" type="qcurve" smooth="yes"/>
      <point x="3004" y="1080" type="line" smooth="yes"/>
      <point x="3004" y="1181"/>
      <point x="2946" y="1310"/>
      <point x="2838" y="1385"/>
      <point x="2685" y="1414"/>
      <point x="2590" y="1414" type="qcurve" smooth="yes"/>
      <point x="752" y="1414" type="line" smooth="yes"/>
      <point x="658" y="1414"/>
      <point x="505" y="1385"/>
      <point x="398" y="1310"/>
      <point x="340" y="1181"/>
      <point x="340" y="1080" type="qcurve"/>
    </contour>
    <contour>
      <point x="912" y="930" type="line"/>
      <point x="912" y="930"/>
      <point x="912" y="930"/>
      <point x="912" y="930"/>
      <point x="912" y="930"/>
      <point x="912" y="930" type="qcurve"/>
      <point x="2432" y="930" type="line"/>
      <point x="2432" y="930"/>
      <point x="2432" y="930"/>
      <point x="2432" y="930"/>
      <point x="2432" y="930"/>
      <point x="2432" y="930" type="qcurve"/>
      <point x="2432" y="470" type="line"/>
      <point x="2432" y="470"/>
      <point x="2432" y="470"/>
      <point x="2432" y="470"/>
      <point x="2432" y="470"/>
      <point x="2432" y="470" type="qcurve"/>
      <point x="912" y="470" type="line"/>
      <point x="912" y="470"/>
      <point x="912" y="470"/>
      <point x="912" y="470"/>
      <point x="912" y="470"/>
      <point x="912" y="470" type="qcurve"/>
    </contour>
    <contour>
      <point x="309" y="-40" type="line"/>
      <point x="533" y="64" type="line"/>
      <point x="782" y="211" type="line"/>
      <point x="2653" y="1024" type="line"/>
      <point x="2849" y="1146" type="line"/>
      <point x="3116" y="1271" type="line"/>
      <point x="3036" y="1440" type="line"/>
      <point x="2774" y="1319" type="line"/>
      <point x="2584" y="1199" type="line"/>
      <point x="715" y="389" type="line"/>
      <point x="464" y="240" type="line"/>
      <point x="228" y="131" type="line"/>
    </contour>
  </outline>
  <guideline y="-40"/>
  <guideline y="-40"/>
  <guideline y="1440"/>
</glyph>
<glyph name="Thorn" format="1">
  <advance width="3278"/>
  <unicode hex="00DE"/>
  <outline>
    <contour>
      <point x="270" y="0" type="line"/>
      <point x="842" y="0" type="line"/>
      <point x="842" y="178" type="line"/>
      <point x="2558" y="178" type="line" smooth="yes"/>
      <point x="2810" y="178"/>
      <point x="2972" y="236"/>
      <point x="2972" y="504" type="curve" smooth="yes"/>
      <point x="2972" y="914" type="line" smooth="yes"/>
      <point x="2972" y="1182"/>
      <point x="2810" y="1248"/>
      <point x="2558" y="1248" type="curve" smooth="yes"/>
      <point x="842" y="1248" type="line"/>
      <point x="842" y="1400" type="line"/>
      <point x="270" y="1400" type="line"/>
    </contour>
    <contour>
      <point x="842" y="638" type="line"/>
      <point x="842" y="778" type="line"/>
      <point x="2355" y="778" type="line" smooth="yes"/>
      <point x="2400" y="778"/>
      <point x="2416" y="754"/>
      <point x="2416" y="718" type="curve" smooth="yes"/>
      <point x="2416" y="698" type="line" smooth="yes"/>
      <point x="2416" y="662"/>
      <point x="2400" y="638"/>
      <point x="2355" y="638" type="curve" smooth="yes"/>
    </contour>
  </outline>
</glyph>
<glyph name="germandbls" format="2">
  <advance width="2329"/>
  <unicode hex="00DF"/>
  <outline>
    <contour>
      <point x="213" y="0" type="line"/>
      <point x="737" y="0" type="line"/>
      <point x="737" y="1180" type="line"/>
      <point x="737" y="1180"/>
      <point x="737" y="1180"/>
      <point x="737" y="1180" type="qcurve"/>
      <point x="1537" y="1180" type="line"/>
      <point x="1537" y="1180"/>
      <point x="1537" y="1180"/>
      <point x="1537" y="1180" type="qcurve"/>
      <point x="1537" y="1024" type="line"/>
      <point x="1537" y="1024"/>
      <point x="1537" y="1024"/>
      <point x="1537" y="1024" type="qcurve"/>
      <point x="1061" y="1024" type="line"/>
      <point x="1061" y="642" type="line"/>
      <point x="1609" y="642" type="line"/>
      <point x="1609" y="642"/>
      <point x="1609" y="642"/>
      <point x="1609" y="642"/>
      <point x="1609" y="642"/>
      <point x="1609" y="642" type="qcurve"/>
      <point x="1609" y="372" type="line"/>
      <point x="1609" y="372"/>
      <point x="1609" y="372"/>
      <point x="1609" y="372"/>
      <point x="1609" y="372"/>
      <point x="1609" y="372" type="qcurve"/>
      <point x="971" y="372" type="line"/>
      <point x="971" y="-10" type="line"/>
      <point x="1853" y="-10" type="line" smooth="yes"/>
      <point x="1918" y="-10"/>
      <point x="2021" y="9"/>
      <point x="2094" y="60"/>
      <point x="2133" y="150"/>
      <point x="2133" y="222" type="qcurve" smooth="yes"/>
      <point x="2133" y="772" type="line" smooth="yes"/>
      <point x="2133" y="828"/>
      <point x="2107" y="905"/>
      <point x="2060" y="956"/>
      <point x="1992" y="983"/>
      <point x="1950" y="989" type="qcurve"/>
      <point x="2008" y="1019"/>
      <point x="2061" y="1131"/>
      <point x="2061" y="1216" type="qcurve" smooth="yes"/>
      <point x="2061" y="1228" type="line" smooth="yes"/>
      <point x="2061" y="1359"/>
      <point x="1914" y="1482"/>
      <point x="1755" y="1482" type="qcurve" smooth="yes"/>
      <point x="519" y="1482" type="line" smooth="yes"/>
      <point x="440" y="1482"/>
      <point x="324" y="1452"/>
      <point x="249" y="1389"/>
      <point x="213" y="1293"/>
      <point x="213" y="1228" type="qcurve" smooth="yes"/>
    </contour>
  </outline>
</glyph>
<glyph name="ae" format="1">
  <advance width="3680"/>
  <unicode hex="00E6"/>
  <outline>
    <contour>
      <point x="300" y="721" type="line"/>
      <point x="804" y="640" type="line"/>
      <point x="804" y="698" type="line"/>
      <point x="804" y="698"/>
      <point x="804" y="698"/>
      <point x="804" y="698" type="curve"/>
      <point x="1567" y="698" type="line"/>
      <point x="1567" y="698"/>
      <point x="1567" y="698"/>
      <point x="1567" y="698" type="curve"/>
      <point x="1567" y="628" type="line"/>
      <point x="564" y="628" type="line" smooth="yes"/>
      <point x="398" y="628"/>
      <point x="286" y="594"/>
      <point x="286" y="406" type="curve" smooth="yes"/>
      <point x="286" y="222" type="line" smooth="yes"/>
      <point x="286" y="30"/>
      <point x="394" y="-10"/>
      <point x="566" y="-10" type="curve" smooth="yes"/>
      <point x="1544" y="-10" type="line" smooth="yes"/>
      <point x="1717.78" y="-10"/>
      <point x="1823" y="64.0281"/>
      <point x="1823" y="227" type="curve"/>
      <point x="1728" y="227" type="line"/>
      <point x="1728" y="61.8865"/>
      <point x="1837.85" y="-10"/>
      <point x="2016" y="-10" type="curve" smooth="yes"/>
      <point x="3079" y="-10" type="line" smooth="yes"/>
      <point x="3251" y="-10"/>
      <point x="3355" y="74"/>
      <point x="3355" y="266" type="curve" smooth="yes"/>
      <point x="3355" y="289" type="line"/>
      <point x="2851" y="370" type="line"/>
      <point x="2851" y="326" type="line"/>
      <point x="2851" y="326"/>
      <point x="2851" y="326"/>
      <point x="2851" y="326" type="curve"/>
      <point x="2093" y="326" type="line"/>
      <point x="2093" y="326"/>
      <point x="2093" y="326"/>
      <point x="2093" y="326" type="curve"/>
      <point x="2093" y="404" type="line"/>
      <point x="3374" y="404" type="line"/>
      <point x="3374" y="808" type="line" smooth="yes"/>
      <point x="3374" y="994"/>
      <point x="3266" y="1034"/>
      <point x="3092" y="1034" type="curve" smooth="yes"/>
      <point x="2136" y="1034" type="line" smooth="yes"/>
      <point x="1959.1" y="1034"/>
      <point x="1848" y="966.94"/>
      <point x="1848" y="805" type="curve"/>
      <point x="1943" y="805" type="line"/>
      <point x="1943" y="964.715"/>
      <point x="1836.49" y="1034"/>
      <point x="1664" y="1034" type="curve" smooth="yes"/>
      <point x="582" y="1034" type="line" smooth="yes"/>
      <point x="408" y="1034"/>
      <point x="300" y="932"/>
      <point x="300" y="748" type="curve" smooth="yes"/>
    </contour>
    <contour>
      <point x="1589" y="404" type="line"/>
      <point x="1589" y="326" type="line"/>
      <point x="1589" y="326"/>
      <point x="1589" y="326"/>
      <point x="1589" y="326" type="curve"/>
      <point x="790" y="326" type="line"/>
      <point x="790" y="326"/>
      <point x="790" y="326"/>
      <point x="790" y="326" type="curve"/>
      <point x="790" y="404" type="line"/>
      <point x="790" y="404"/>
      <point x="790" y="404"/>
      <point x="790" y="404" type="curve"/>
    </contour>
    <contour>
      <point x="2093" y="628" type="line"/>
      <point x="2093" y="698" type="line"/>
      <point x="2093" y="698"/>
      <point x="2093" y="698"/>
      <point x="2093" y="698" type="curve"/>
      <point x="2870" y="698" type="line"/>
      <point x="2870" y="698"/>
      <point x="2870" y="698"/>
      <point x="2870" y="698" type="curve"/>
      <point x="2870" y="628" type="line"/>
    </contour>
    <contour>
      <point x="3759" y="1174" type="move" name="top"/>
    </contour>
    <contour>
      <point x="3759" y="-150" type="move" name="bottom"/>
    </contour>
  </outline>
</glyph>
<glyph name="eth" format="1">
  <advance width="2667"/>
  <unicode hex="00F0"/>
  <outline>
    <contour>
      <point x="801" y="1330" type="line"/>
      <point x="1374" y="1215"/>
      <point x="1718" y="1014"/>
      <point x="1718" y="514" type="curve"/>
      <point x="2242" y="526" type="line"/>
      <point x="2242" y="1164"/>
      <point x="1847" y="1434"/>
      <point x="1208" y="1482" type="curve"/>
    </contour>
    <contour>
      <point x="306" y="680" type="curve" smooth="yes"/>
      <point x="306" y="254" type="line" smooth="yes"/>
      <point x="306" y="70"/>
      <point x="398" y="-10"/>
      <point x="612" y="-10" type="curve" smooth="yes"/>
      <point x="1936" y="-10" type="line" smooth="yes"/>
      <point x="2152" y="-10"/>
      <point x="2242" y="70"/>
      <point x="2242" y="254" type="curve" smooth="yes"/>
      <point x="2242" y="526" type="line"/>
      <point x="1718" y="934" type="line"/>
      <point x="612" y="934" type="line" smooth="yes"/>
      <point x="400" y="934"/>
      <point x="306" y="854"/>
    </contour>
    <contour>
      <point x="830" y="552" type="line"/>
      <point x="830" y="552"/>
      <point x="830" y="552"/>
      <point x="830" y="552" type="curve"/>
      <point x="1718" y="552" type="line"/>
      <point x="1718" y="523" type="line"/>
      <point x="1718" y="372" type="line"/>
      <point x="1718" y="372"/>
      <point x="1718" y="372"/>
      <point x="1718" y="372" type="curve"/>
      <point x="830" y="372" type="line"/>
      <point x="830" y="372"/>
      <point x="830" y="372"/>
      <point x="830" y="372" type="curve"/>
    </contour>
    <contour>
      <point x="786" y="1136" type="line"/>
      <point x="815" y="972" type="line"/>
      <point x="2361" y="1247" type="line"/>
      <point x="2332" y="1411" type="line"/>
    </contour>
  </outline>
</glyph>
<glyph name="divide" format="1">
  <advance width="1794"/>
  <unicode hex="00F7"/>
  <outline>
    <component base="uni2212"/>
    <contour>
      <point x="540" y="131" type="curve" smooth="yes"/>
      <point x="540" y="210" type="line" smooth="yes"/>
      <point x="540" y="325"/>
      <point x="542" y="327"/>
      <point x="659" y="327" type="curve" smooth="yes"/>
      <point x="735" y="327" type="line" smooth="yes"/>
      <point x="852" y="327"/>
      <point x="855" y="325"/>
      <point x="855" y="210" type="curve" smooth="yes"/>
      <point x="855" y="131" type="line" smooth="yes"/>
      <point x="855" y="14"/>
      <point x="852" y="12"/>
      <point x="735" y="12" type="curve" smooth="yes"/>
      <point x="659" y="12" type="line" smooth="yes"/>
      <point x="542" y="12"/>
      <point x="540" y="14"/>
    </contour>
    <contour>
      <point x="540" y="966" type="curve" smooth="yes"/>
      <point x="540" y="1045" type="line" smooth="yes"/>
      <point x="540" y="1160"/>
      <point x="542" y="1162"/>
      <point x="659" y="1162" type="curve" smooth="yes"/>
      <point x="735" y="1162" type="line" smooth="yes"/>
      <point x="852" y="1162"/>
      <point x="855" y="1160"/>
      <point x="855" y="1045" type="curve" smooth="yes"/>
      <point x="855" y="966" type="line" smooth="yes"/>
      <point x="855" y="849"/>
      <point x="852" y="847"/>
      <point x="735" y="847" type="curve" smooth="yes"/>
      <point x="659" y="847" type="line" smooth="yes"/>
      <point x="542" y="847"/>
      <point x="540" y="849"/>
    </contour>
  </outline>
</glyph>
<glyph name="oslash" format="1">
  <advance width="2548" height="1448"/>
  <unicode hex="00F8"/>
  <outline>
    <component base="o.alt.1"/>
    <contour>
      <point x="272" y="4" type="line"/>
      <point x="218" y="164" type="line"/>
      <point x="2274" y="1014" type="line"/>
      <point x="2330" y="856" type="line"/>
    </contour>
    <contour>
      <point x="1274" y="1174" type="move" name="top"/>
    </contour>
    <contour>
      <point x="1274" y="-150" type="move" name="bottom"/>
    </contour>
  </outline>
</glyph>
<glyph name="Hbar" format="1">
  <advance width="3424"/>
  <unicode hex="0126"/>
  <outline>
    <contour>
      <point x="410" y="0" type="line"/>
      <point x="982" y="0" type="line"/>
      <point x="982" y="1400" type="line"/>
      <point x="410" y="1400" type="line"/>
    </contour>
    <contour>
      <point x="2442" y="0" type="line"/>
      <point x="3014" y="0" type="line"/>
      <point x="3014" y="1400" type="line"/>
      <point x="2442" y="1400" type="line"/>
    </contour>
    <contour>
      <point x="952" y="492" type="line"/>
      <point x="2472" y="492" type="line"/>
      <point x="2472" y="804" type="line"/>
      <point x="952" y="804" type="line"/>
    </contour>
    <contour>
      <point x="310" y="894" type="line"/>
      <point x="3114" y="894" type="line"/>
      <point x="3114" y="1206" type="line"/>
      <point x="310" y="1206" type="line"/>
    </contour>
    <contour>
      <point x="1712" y="1550" type="move" name="top"/>
    </contour>
    <contour>
      <point x="1712" y="-150" type="move" name="bottom"/>
    </contour>
    <contour>
      <point x="310" y="700" type="move" name="left"/>
    </contour>
  </outline>
</glyph>
<glyph name="hbar" format="2">
  <advance width="2425"/>
  <unicode hex="0127"/>
  <anchor x="584" y="1622" name="top"/>
  <anchor x="1267" y="-150" name="bottom"/>
  <anchor x="221" y="512" name="left"/>
  <outline>
    <contour>
      <point x="320" y="0" type="line"/>
      <point x="320" y="1472" type="line"/>
      <point x="844" y="1472" type="line"/>
      <point x="844" y="920" type="line"/>
      <point x="876" y="974"/>
      <point x="1012" y="1024"/>
      <point x="1130" y="1024" type="qcurve" smooth="yes"/>
      <point x="1844" y="1024" type="line" smooth="yes"/>
      <point x="1940" y="1024"/>
      <point x="2079" y="989"/>
      <point x="2169" y="915"/>
      <point x="2212" y="802"/>
      <point x="2212" y="724" type="qcurve" smooth="yes"/>
      <point x="2212" y="0" type="line"/>
      <point x="1688" y="0" type="line"/>
      <point x="1688" y="592" type="line"/>
      <point x="1688" y="592"/>
      <point x="1688" y="592"/>
      <point x="1688" y="592" type="qcurve"/>
      <point x="844" y="592" type="line"/>
      <point x="844" y="0" type="line"/>
    </contour>
    <contour>
      <point x="170" y="1377" type="line"/>
      <point x="1266" y="1377" type="line"/>
      <point x="1266" y="1105" type="line"/>
      <point x="170" y="1105" type="line"/>
    </contour>
  </outline>
  <guideline y="1251" color="1,0,0,1"/>
  <guideline x="1266" color="1,0,0,1"/>
</glyph>
<glyph name="dotlessi" format="1">
  <advance width="1200"/>
  <unicode hex="0131"/>
  <outline>
    <contour>
      <point x="321" y="0" type="line"/>
      <point x="845" y="0" type="line"/>
      <point x="845" y="1024" type="line"/>
      <point x="321" y="1024" type="line"/>
    </contour>
    <contour>
      <point x="583" y="-150" type="move" name="bottom"/>
    </contour>
    <contour>
      <point x="583" y="1174" type="move" name="top"/>
    </contour>
  </outline>
</glyph>
<glyph name="Lslash" format="2">
  <advance width="2790"/>
  <unicode hex="0141"/>
  <outline>
    <contour>
      <point x="360" y="0" type="line"/>
      <point x="360" y="1400" type="line"/>
      <point x="932" y="1400" type="line"/>
      <point x="932" y="454" type="line"/>
      <point x="2700" y="454" type="line"/>
      <point x="2700" y="0" type="line"/>
    </contour>
    <contour>
      <point x="1545" y="1081" type="line"/>
      <point x="1545" y="921" type="line"/>
      <point x="181" y="424" type="line"/>
      <point x="181" y="584" type="line"/>
    </contour>
  </outline>
  <guideline x="844048"/>
  <guideline x="842876"/>
</glyph>
<glyph name="lslash" format="2">
  <advance width="1064"/>
  <unicode hex="0142"/>
  <outline>
    <contour>
      <point x="270" y="0" type="line"/>
      <point x="794" y="0" type="line"/>
      <point x="794" y="1472" type="line"/>
      <point x="270" y="1472" type="line"/>
    </contour>
    <contour>
      <point x="1024" y="999" type="line"/>
      <point x="40" y="640" type="line"/>
      <point x="40" y="480" type="line"/>
      <point x="1024" y="839" type="line"/>
    </contour>
  </outline>
  <guideline x="844048"/>
  <guideline x="842876"/>
  <guideline y="724"/>
</glyph>
<glyph name="Eng" format="2">
  <advance width="3182"/>
  <unicode hex="014A"/>
  <outline>
    <contour>
      <point x="300" y="0" type="line"/>
      <point x="832" y="0" type="line"/>
      <point x="832" y="761" type="line"/>
      <point x="2458" y="0" type="line"/>
      <point x="2882" y="0" type="line"/>
      <point x="2882" y="1400" type="line"/>
      <point x="2350" y="1400" type="line"/>
      <point x="2350" y="638" type="line"/>
      <point x="722" y="1400" type="line"/>
      <point x="300" y="1400" type="line"/>
    </contour>
    <contour>
      <point x="1555" y="-80" type="line"/>
      <point x="1627" y="-428" type="line"/>
      <point x="2622" y="-428" type="line" smooth="yes"/>
      <point x="2681" y="-428"/>
      <point x="2776" y="-381"/>
      <point x="2845" y="-296"/>
      <point x="2882" y="-176"/>
      <point x="2882" y="-102" type="qcurve" smooth="yes"/>
      <point x="2882" y="0" type="line"/>
      <point x="2358" y="100" type="line"/>
      <point x="2358" y="-80" type="line"/>
      <point x="2358" y="-80"/>
      <point x="2358" y="-80"/>
      <point x="2358" y="-80" type="qcurve"/>
    </contour>
  </outline>
  <guideline x="1591"/>
  <guideline x="631"/>
</glyph>
<glyph name="eng" format="1">
  <advance width="2503"/>
  <unicode hex="014B"/>
  <outline>
    <contour>
      <point x="270" y="0" type="line"/>
      <point x="794" y="0" type="line"/>
      <point x="794" y="602" type="line"/>
      <point x="1638" y="602" type="line"/>
      <point x="1638" y="602"/>
      <point x="1638" y="602"/>
      <point x="1638" y="602" type="curve"/>
      <point x="1638" y="-80" type="line"/>
      <point x="1638" y="-80"/>
      <point x="1638" y="-80"/>
      <point x="1638" y="-80" type="curve"/>
      <point x="1144" y="-80" type="line"/>
      <point x="1216" y="-428" type="line"/>
      <point x="1902" y="-428" type="line" smooth="yes"/>
      <point x="2058" y="-428"/>
      <point x="2162" y="-298"/>
      <point x="2162" y="-102" type="curve" smooth="yes"/>
      <point x="2162" y="734" type="line" smooth="yes"/>
      <point x="2162" y="942"/>
      <point x="2050" y="1034"/>
      <point x="1794" y="1034" type="curve" smooth="yes"/>
      <point x="1080" y="1034" type="line" smooth="yes"/>
      <point x="924" y="1034"/>
      <point x="836" y="1002"/>
      <point x="794" y="930" type="curve"/>
      <point x="794" y="1024" type="line"/>
      <point x="270" y="1024" type="line"/>
    </contour>
    <contour>
      <point x="1708" y="1174" type="move" name="top"/>
    </contour>
    <contour>
      <point x="1217" y="-150" type="move" name="bottom"/>
    </contour>
    <contour>
      <point x="171" y="512" type="move" name="left"/>
    </contour>
  </outline>
</glyph>
<glyph name="OE" format="1">
  <advance width="4795"/>
  <unicode hex="0152"/>
  <outline>
    <contour>
      <point x="752" y="-14" type="curve" smooth="yes"/>
      <point x="2590" y="-14" type="line" smooth="yes"/>
      <point x="2854" y="-14"/>
      <point x="3004" y="56"/>
      <point x="3004" y="332" type="curve" smooth="yes"/>
      <point x="3004" y="1080" type="line" smooth="yes"/>
      <point x="3004" y="1348"/>
      <point x="2842" y="1414"/>
      <point x="2590" y="1414" type="curve" smooth="yes"/>
      <point x="752" y="1414" type="line" smooth="yes"/>
      <point x="500" y="1414"/>
      <point x="340" y="1348"/>
      <point x="340" y="1080" type="curve" smooth="yes"/>
      <point x="340" y="332" type="line" smooth="yes"/>
      <point x="340" y="58"/>
      <point x="488" y="-14"/>
    </contour>
    <contour>
      <point x="912" y="470" type="line"/>
      <point x="912" y="930" type="line"/>
      <point x="2432" y="930" type="line"/>
      <point x="2432" y="470" type="line"/>
    </contour>
    <contour>
      <point x="4570" y="0" type="line"/>
      <point x="4570" y="424" type="line"/>
      <point x="3002" y="424" type="line"/>
      <point x="3002" y="520" type="line"/>
      <point x="3884" y="520" type="line"/>
      <point x="3884" y="890" type="line"/>
      <point x="3002" y="890" type="line"/>
      <point x="3002" y="976" type="line"/>
      <point x="4536" y="976" type="line"/>
      <point x="4536" y="1400" type="line"/>
      <point x="2430" y="1400" type="line"/>
      <point x="2430" y="0" type="line"/>
    </contour>
  </outline>
</glyph>
<glyph name="oe" format="1">
  <advance width="3700"/>
  <unicode hex="0153"/>
  <outline>
    <contour>
      <point x="2113" y="628" type="line"/>
      <point x="2113" y="698" type="line"/>
      <point x="2113" y="698"/>
      <point x="2113" y="698"/>
      <point x="2113" y="698" type="curve"/>
      <point x="2890" y="698" type="line"/>
      <point x="2890" y="698"/>
      <point x="2890" y="698"/>
      <point x="2890" y="698" type="curve"/>
      <point x="2890" y="628" type="line"/>
    </contour>
    <contour>
      <point x="306" y="222" type="line"/>
      <point x="306" y="30"/>
      <point x="414" y="-10"/>
      <point x="586" y="-10" type="curve" smooth="yes"/>
      <point x="1619" y="-10" type="line" smooth="yes"/>
      <point x="1793" y="-10"/>
      <point x="1898" y="64"/>
      <point x="1898" y="227" type="curve"/>
      <point x="1803" y="227" type="line"/>
      <point x="1803" y="62"/>
      <point x="1913" y="-10"/>
      <point x="2091" y="-10" type="curve" smooth="yes"/>
      <point x="3099" y="-10" type="line" smooth="yes"/>
      <point x="3271" y="-10"/>
      <point x="3375" y="74"/>
      <point x="3375" y="266" type="curve" smooth="yes"/>
      <point x="3375" y="289" type="line"/>
      <point x="2871" y="370" type="line"/>
      <point x="2871" y="326" type="line"/>
      <point x="2871" y="326"/>
      <point x="2871" y="326"/>
      <point x="2871" y="326" type="curve"/>
      <point x="2113" y="326" type="line"/>
      <point x="2113" y="326"/>
      <point x="2113" y="326"/>
      <point x="2113" y="326" type="curve"/>
      <point x="2113" y="404" type="line"/>
      <point x="3394" y="404" type="line"/>
      <point x="3394" y="808" type="line" smooth="yes"/>
      <point x="3394" y="994"/>
      <point x="3286" y="1034"/>
      <point x="3112" y="1034" type="curve" smooth="yes"/>
      <point x="2090" y="1034" type="line" smooth="yes"/>
      <point x="1913" y="1034"/>
      <point x="1802" y="967"/>
      <point x="1802" y="805" type="curve"/>
      <point x="1897" y="805" type="line"/>
      <point x="1897" y="965"/>
      <point x="1790" y="1034"/>
      <point x="1618" y="1034" type="curve" smooth="yes"/>
      <point x="586" y="1034" type="line" smooth="yes"/>
      <point x="412" y="1034"/>
      <point x="306" y="932"/>
      <point x="306" y="748" type="curve"/>
    </contour>
    <contour>
      <point x="810" y="326" type="curve"/>
      <point x="810" y="698" type="line"/>
      <point x="810" y="698"/>
      <point x="810" y="698"/>
      <point x="810" y="698" type="curve"/>
      <point x="1609" y="698" type="line"/>
      <point x="1609" y="698"/>
      <point x="1609" y="699"/>
      <point x="1609" y="699" type="curve"/>
      <point x="1609" y="326" type="line"/>
      <point x="1609" y="326"/>
      <point x="1609" y="326"/>
      <point x="1609" y="326" type="curve"/>
      <point x="810" y="326" type="line"/>
      <point x="810" y="326"/>
      <point x="810" y="326"/>
    </contour>
    <contour>
      <point x="3829" y="1174" type="move" name="top"/>
    </contour>
    <contour>
      <point x="3829" y="-150" type="move" name="bottom"/>
    </contour>
  </outline>
</glyph>
<glyph name="Tbar" format="1">
  <advance width="2840"/>
  <unicode hex="0166"/>
  <outline>
    <component base="T"/>
    <contour>
      <point x="888" y="804" type="line"/>
      <point x="1952" y="804" type="line"/>
      <point x="1952" y="492" type="line"/>
      <point x="888" y="492" type="line"/>
    </contour>
    <contour>
      <point x="1420" y="1550" type="move" name="top"/>
    </contour>
    <contour>
      <point x="1420" y="-150" type="move" name="bottom"/>
    </contour>
  </outline>
</glyph>
<glyph name="tbar" format="2">
  <advance width="1458"/>
  <unicode hex="0167"/>
  <anchor x="727" y="1394" name="top"/>
  <anchor x="727" y="-160" name="bottom"/>
  <outline>
    <contour>
      <point x="667" y="-10" type="line"/>
      <point x="585" y="-10"/>
      <point x="468" y="18"/>
      <point x="395" y="80"/>
      <point x="361" y="177"/>
      <point x="361" y="246" type="qcurve" smooth="yes"/>
      <point x="361" y="383" type="line"/>
      <point x="153" y="383" type="line"/>
      <point x="153" y="655" type="line"/>
      <point x="361" y="655" type="line"/>
      <point x="361" y="722" type="line"/>
      <point x="88" y="722" type="line"/>
      <point x="88" y="1024" type="line"/>
      <point x="361" y="1024" type="line"/>
      <point x="361" y="1244" type="line"/>
      <point x="885" y="1244" type="line"/>
      <point x="885" y="1024" type="line"/>
      <point x="1365" y="1024" type="line"/>
      <point x="1365" y="722" type="line"/>
      <point x="885" y="722" type="line"/>
      <point x="885" y="655" type="line"/>
      <point x="1229" y="655" type="line"/>
      <point x="1229" y="383" type="line"/>
      <point x="885" y="383" type="line"/>
      <point x="885" y="292" type="line"/>
      <point x="885" y="292"/>
      <point x="885" y="292"/>
      <point x="885" y="292" type="qcurve"/>
      <point x="1360" y="291" type="line"/>
      <point x="1310" y="-11" type="line"/>
    </contour>
  </outline>
</glyph>
<glyph name="uni018F" format="1">
  <advance width="3114"/>
  <unicode hex="018F"/>
  <outline>
    <contour>
      <point x="306" y="332" type="curve" smooth="yes"/>
      <point x="306" y="870" type="line"/>
      <point x="2808" y="870" type="line"/>
      <point x="2808" y="500" type="line"/>
      <point x="878" y="500" type="line"/>
      <point x="878" y="410" type="line"/>
      <point x="878" y="410"/>
      <point x="878" y="410"/>
      <point x="878" y="410" type="curve"/>
      <point x="2236" y="410" type="line"/>
      <point x="2236" y="410"/>
      <point x="2236" y="410"/>
      <point x="2236" y="410" type="curve"/>
      <point x="2236" y="990" type="line"/>
      <point x="2236" y="990"/>
      <point x="2236" y="990"/>
      <point x="2236" y="990" type="curve"/>
      <point x="884" y="990" type="line"/>
      <point x="884" y="990"/>
      <point x="884" y="990"/>
      <point x="884" y="990" type="curve"/>
      <point x="884" y="920" type="line"/>
      <point x="312" y="1026" type="line"/>
      <point x="312" y="1080" type="line" smooth="yes"/>
      <point x="312" y="1348"/>
      <point x="474" y="1414"/>
      <point x="726" y="1414" type="curve" smooth="yes"/>
      <point x="2396" y="1414" type="line" smooth="yes"/>
      <point x="2648" y="1414"/>
      <point x="2808" y="1348"/>
      <point x="2808" y="1080" type="curve" smooth="yes"/>
      <point x="2808" y="332" type="line" smooth="yes"/>
      <point x="2808" y="58"/>
      <point x="2660" y="-14"/>
      <point x="2396" y="-14" type="curve" smooth="yes"/>
      <point x="720" y="-14" type="line" smooth="yes"/>
      <point x="456" y="-14"/>
      <point x="306" y="56"/>
    </contour>
    <contour>
      <point x="1606" y="1564" type="move" name="top"/>
    </contour>
    <contour>
      <point x="1606" y="-164" type="move" name="bottom"/>
    </contour>
  </outline>
</glyph>
<glyph name="florin" format="2">
  <advance width="2100"/>
  <unicode hex="0192"/>
  <outline>
    <contour>
      <point x="0" y="-428" type="line"/>
      <point x="146" y="-80" type="line"/>
      <point x="671" y="-80" type="line"/>
      <point x="671" y="-80"/>
      <point x="671" y="-80"/>
      <point x="671" y="-80" type="qcurve"/>
      <point x="816" y="602" type="line"/>
      <point x="524" y="602" type="line"/>
      <point x="588" y="904" type="line"/>
      <point x="880" y="904" type="line"/>
      <point x="938" y="1176" type="line" smooth="yes"/>
      <point x="955" y="1254"/>
      <point x="1019" y="1366"/>
      <point x="1113" y="1438"/>
      <point x="1238" y="1472"/>
      <point x="1315" y="1472" type="qcurve" smooth="yes"/>
      <point x="2100" y="1472" type="line"/>
      <point x="1985" y="1170" type="line"/>
      <point x="1460" y="1170" type="line"/>
      <point x="1460" y="1170"/>
      <point x="1460" y="1170"/>
      <point x="1460" y="1170" type="qcurve"/>
      <point x="1404" y="904" type="line"/>
      <point x="1854" y="904" type="line"/>
      <point x="1790" y="602" type="line"/>
      <point x="1340" y="602" type="line"/>
      <point x="1190" y="-102" type="line" smooth="yes"/>
      <point x="1174" y="-176"/>
      <point x="1111" y="-296"/>
      <point x="1025" y="-381"/>
      <point x="920" y="-428"/>
      <point x="861" y="-428" type="qcurve" smooth="yes"/>
    </contour>
  </outline>
</glyph>
<glyph name="uni0237" format="1">
  <advance width="1200"/>
  <unicode hex="0237"/>
  <outline>
    <contour>
      <point x="-658" y="-80" type="line"/>
      <point x="-586" y="-428" type="line"/>
      <point x="599" y="-428" type="line" smooth="yes"/>
      <point x="755" y="-428"/>
      <point x="859" y="-298"/>
      <point x="859" y="-102" type="curve" smooth="yes"/>
      <point x="859" y="1024" type="line"/>
      <point x="335" y="1024" type="line"/>
      <point x="335" y="-80" type="line"/>
      <point x="335" y="-80"/>
      <point x="335" y="-80"/>
      <point x="335" y="-80" type="curve"/>
    </contour>
    <contour>
      <point x="597" y="1174" type="move" name="top"/>
    </contour>
  </outline>
</glyph>
<glyph name="acutecomb" format="1">
  <unicode hex="0301"/>
  <outline>
    <contour>
      <point x="-443" y="1100" type="line"/>
      <point x="159" y="1448" type="line"/>
      <point x="919" y="1448" type="line"/>
      <point x="204" y="1100" type="line"/>
    </contour>
    <contour>
      <point x="0" y="1150" type="move" name="_top"/>
    </contour>
  </outline>
</glyph>
<glyph name="uni0302" format="1">
  <unicode hex="0302"/>
  <outline>
    <contour>
      <point x="-772" y="1100" type="line"/>
      <point x="-218" y="1448" type="line"/>
      <point x="230" y="1448" type="line"/>
      <point x="781" y="1100" type="line"/>
      <point x="165" y="1100" type="line"/>
      <point x="0" y="1261" type="line"/>
      <point x="-165" y="1100" type="line"/>
    </contour>
    <contour>
      <point x="0" y="1150" type="move" name="_top"/>
    </contour>
  </outline>
</glyph>
<glyph name="tildecomb" format="1">
  <unicode hex="0303"/>
  <outline>
    <contour>
      <point x="-930" y="1134" type="line"/>
      <point x="-876" y="1413"/>
      <point x="-729" y="1482"/>
      <point x="-536" y="1482" type="curve" smooth="yes"/>
      <point x="-152" y="1482"/>
      <point x="239" y="1402"/>
      <point x="506" y="1402" type="curve" smooth="yes"/>
      <point x="581" y="1402"/>
      <point x="595" y="1456"/>
      <point x="600" y="1482" type="curve"/>
      <point x="930" y="1424" type="line"/>
      <point x="876" y="1145"/>
      <point x="729" y="1076"/>
      <point x="536" y="1076" type="curve" smooth="yes"/>
      <point x="151" y="1076"/>
      <point x="-239" y="1156"/>
      <point x="-506" y="1156" type="curve" smooth="yes"/>
      <point x="-581" y="1156"/>
      <point x="-595" y="1102"/>
      <point x="-600" y="1076" type="curve"/>
    </contour>
    <contour>
      <point x="0" y="1150" type="move" name="_top"/>
    </contour>
  </outline>
</glyph>
<glyph name="uni0304" format="2">
  <unicode hex="0304"/>
  <anchor x="0" y="1174" name="_top"/>
  <anchor x="0" y="1530" name="top"/>
  <outline>
    <contour>
      <point x="-540" y="1158" type="line"/>
      <point x="540" y="1158" type="line"/>
      <point x="540" y="1430" type="line"/>
      <point x="-540" y="1430" type="line"/>
    </contour>
  </outline>
  <guideline y="628"/>
</glyph>
<glyph name="uni0308" format="1">
  <unicode hex="0308"/>
  <outline>
    <contour>
      <point x="-496" y="1220" type="line" smooth="yes"/>
      <point x="-496" y="1112"/>
      <point x="-494" y="1110"/>
      <point x="-386" y="1110" type="curve" smooth="yes"/>
      <point x="-234" y="1110" type="line" smooth="yes"/>
      <point x="-126" y="1110"/>
      <point x="-124" y="1112"/>
      <point x="-124" y="1220" type="curve" smooth="yes"/>
      <point x="-124" y="1342" type="line" smooth="yes"/>
      <point x="-124" y="1448"/>
      <point x="-126" y="1450"/>
      <point x="-234" y="1450" type="curve" smooth="yes"/>
      <point x="-386" y="1450" type="line" smooth="yes"/>
      <point x="-494" y="1450"/>
      <point x="-496" y="1448"/>
      <point x="-496" y="1342" type="curve" smooth="yes"/>
    </contour>
    <contour>
      <point x="124" y="1220" type="line" smooth="yes"/>
      <point x="124" y="1112"/>
      <point x="126" y="1110"/>
      <point x="234" y="1110" type="curve" smooth="yes"/>
      <point x="386" y="1110" type="line" smooth="yes"/>
      <point x="494" y="1110"/>
      <point x="496" y="1112"/>
      <point x="496" y="1220" type="curve" smooth="yes"/>
      <point x="496" y="1342" type="line" smooth="yes"/>
      <point x="496" y="1448"/>
      <point x="494" y="1450"/>
      <point x="386" y="1450" type="curve" smooth="yes"/>
      <point x="234" y="1450" type="line" smooth="yes"/>
      <point x="126" y="1450"/>
      <point x="124" y="1448"/>
      <point x="124" y="1342" type="curve" smooth="yes"/>
    </contour>
    <contour>
      <point x="0" y="1172" type="move" name="_top"/>
    </contour>
    <contour>
      <point x="0" y="1622" type="move" name="_bottom"/>
    </contour>
  </outline>
</glyph>
<glyph name="uni0309" format="2">
  <unicode hex="0309"/>
  <anchor x="0" y="1174" name="_top"/>
  <anchor x="-33" y="1100" name="_topright"/>
  <outline>
    <contour>
      <point x="-93" y="1100" type="line"/>
      <point x="108" y="1100" type="line"/>
      <point x="140" y="1116"/>
      <point x="194" y="1156"/>
      <point x="234" y="1203"/>
      <point x="257" y="1257"/>
      <point x="257" y="1287" type="qcurve" smooth="yes"/>
      <point x="257" y="1330"/>
      <point x="223" y="1401"/>
      <point x="159" y="1452"/>
      <point x="69" y="1480"/>
      <point x="13" y="1480" type="qcurve" smooth="yes"/>
      <point x="-18" y="1480"/>
      <point x="-77" y="1470"/>
      <point x="-129" y="1455"/>
      <point x="-171" y="1435"/>
      <point x="-184" y="1424" type="qcurve"/>
      <point x="-150" y="1244" type="line"/>
      <point x="-139" y="1252"/>
      <point x="-94" y="1266"/>
      <point x="-68" y="1266" type="qcurve" smooth="yes"/>
      <point x="-41" y="1266"/>
      <point x="-9" y="1229"/>
      <point x="-9" y="1199" type="qcurve" smooth="yes"/>
      <point x="-9" y="1166"/>
      <point x="-58" y="1119"/>
      <point x="-93" y="1100" type="qcurve"/>
    </contour>
  </outline>
</glyph>
<glyph name="uni030A" format="1">
  <unicode hex="030A"/>
  <outline>
    <contour>
      <point x="-254" y="1274" type="curve" smooth="yes"/>
      <point x="-254" y="1114"/>
      <point x="-214" y="1092"/>
      <point x="10" y="1092" type="curve" smooth="yes"/>
      <point x="234" y="1092"/>
      <point x="274" y="1114"/>
      <point x="274" y="1274" type="curve" smooth="yes"/>
      <point x="274" y="1434"/>
      <point x="234" y="1456"/>
      <point x="10" y="1456" type="curve" smooth="yes"/>
      <point x="-214" y="1456"/>
      <point x="-254" y="1434"/>
    </contour>
    <contour>
      <point x="-50" y="1274" type="curve" smooth="yes"/>
      <point x="-50" y="1318"/>
      <point x="-34" y="1325"/>
      <point x="10" y="1325" type="curve" smooth="yes"/>
      <point x="54" y="1325"/>
      <point x="70" y="1318"/>
      <point x="70" y="1274" type="curve" smooth="yes"/>
      <point x="70" y="1231"/>
      <point x="54" y="1223"/>
      <point x="10" y="1223" type="curve" smooth="yes"/>
      <point x="-34" y="1223"/>
      <point x="-50" y="1231"/>
    </contour>
    <contour>
      <point x="0" y="1174" type="move" name="_top"/>
    </contour>
  </outline>
</glyph>
<glyph name="uni031B" format="2">
  <unicode hex="031B"/>
  <anchor x="0" y="1024" name="_horn"/>
  <outline>
    <contour>
      <point x="0" y="789" type="line"/>
      <point x="172" y="789"/>
      <point x="402" y="840"/>
      <point x="540" y="936"/>
      <point x="598" y="1077"/>
      <point x="598" y="1167" type="qcurve" smooth="yes"/>
      <point x="598" y="1218"/>
      <point x="582" y="1330"/>
      <point x="568" y="1393" type="qcurve"/>
      <point x="208" y="1328" type="line"/>
      <point x="223" y="1284"/>
      <point x="237" y="1209"/>
      <point x="237" y="1178" type="qcurve" smooth="yes"/>
      <point x="237" y="1140"/>
      <point x="211" y="1082"/>
      <point x="155" y="1043"/>
      <point x="65" y="1024"/>
      <point x="0" y="1024" type="qcurve"/>
    </contour>
  </outline>
</glyph>
<glyph name="uni0326" format="1">
  <unicode hex="0326"/>
  <outline>
    <contour>
      <point x="-196" y="-360" type="curve" smooth="yes"/>
      <point x="-196" y="-199" type="line" smooth="yes"/>
      <point x="-196" y="-120"/>
      <point x="-182" y="-106"/>
      <point x="-99" y="-106" type="curve" smooth="yes"/>
      <point x="99" y="-106" type="line" smooth="yes"/>
      <point x="182" y="-106"/>
      <point x="196" y="-120"/>
      <point x="196" y="-199" type="curve" smooth="yes"/>
      <point x="196" y="-360" type="line" smooth="yes"/>
      <point x="196" y="-441"/>
      <point x="182" y="-455"/>
      <point x="99" y="-455" type="curve" smooth="yes"/>
      <point x="-99" y="-455" type="line" smooth="yes"/>
      <point x="-182" y="-455"/>
      <point x="-196" y="-441"/>
    </contour>
    <contour>
      <point x="-160" y="-657" type="curve"/>
      <point x="-160" y="-657"/>
      <point x="-45" y="-443"/>
      <point x="-45" y="-443" type="curve"/>
      <point x="183" y="-433" type="line"/>
      <point x="-14" y="-687" type="line"/>
      <point x="-14" y="-687"/>
      <point x="-160" y="-657"/>
    </contour>
    <contour>
      <point x="0" y="-150" type="move" name="_bottom"/>
    </contour>
  </outline>
</glyph>
<glyph name="uni0327" format="2">
  <unicode hex="0327"/>
  <anchor x="0" y="-150" name="_bottom"/>
  <outline>
    <contour>
      <point x="-78" y="0" type="line"/>
      <point x="-176" y="-216" type="line"/>
      <point x="-156" y="-208"/>
      <point x="-94" y="-200"/>
      <point x="-65" y="-200" type="qcurve" smooth="yes"/>
      <point x="-39" y="-200"/>
      <point x="5" y="-205"/>
      <point x="38" y="-217"/>
      <point x="56" y="-237"/>
      <point x="56" y="-253" type="qcurve" smooth="yes"/>
      <point x="56" y="-269"/>
      <point x="38" y="-291"/>
      <point x="5" y="-306"/>
      <point x="-39" y="-313"/>
      <point x="-65" y="-313" type="qcurve" smooth="yes"/>
      <point x="-106" y="-313"/>
      <point x="-171" y="-301"/>
      <point x="-184" y="-295" type="qcurve"/>
      <point x="-234" y="-395" type="line"/>
      <point x="-215" y="-406"/>
      <point x="-167" y="-422"/>
      <point x="-115" y="-432"/>
      <point x="-60" y="-438"/>
      <point x="-32" y="-438" type="qcurve" smooth="yes"/>
      <point x="8" y="-438"/>
      <point x="117" y="-426"/>
      <point x="215" y="-387"/>
      <point x="284" y="-314"/>
      <point x="284" y="-253" type="qcurve" smooth="yes"/>
      <point x="284" y="-199"/>
      <point x="232" y="-132"/>
      <point x="152" y="-94"/>
      <point x="55" y="-80"/>
      <point x="9" y="-78" type="qcurve"/>
      <point x="44" y="0" type="line"/>
    </contour>
  </outline>
</glyph>
<glyph name="uni0328" format="2">
  <unicode hex="0328"/>
  <anchor x="0" y="-150" name="_bottom"/>
  <anchor x="118" y="0" name="_ogonek"/>
  <outline>
    <contour>
      <point x="118" y="0" type="line"/>
      <point x="106" y="-1"/>
      <point x="83" y="-17"/>
      <point x="65" y="-41"/>
      <point x="55" y="-70"/>
      <point x="55" y="-85" type="qcurve" smooth="yes"/>
      <point x="55" y="-102"/>
      <point x="69" y="-129"/>
      <point x="95" y="-147"/>
      <point x="131" y="-157"/>
      <point x="152" y="-157" type="qcurve" smooth="yes"/>
      <point x="174" y="-157"/>
      <point x="217" y="-154"/>
      <point x="262" y="-146"/>
      <point x="309" y="-136"/>
      <point x="335" y="-128" type="qcurve"/>
      <point x="292" y="-383" type="line"/>
      <point x="216" y="-412"/>
      <point x="77" y="-438"/>
      <point x="2" y="-438" type="qcurve" smooth="yes"/>
      <point x="-79" y="-438"/>
      <point x="-204" y="-409"/>
      <point x="-291" y="-354"/>
      <point x="-336" y="-274"/>
      <point x="-336" y="-222" type="qcurve" smooth="yes"/>
      <point x="-336" y="-190"/>
      <point x="-319" y="-129"/>
      <point x="-286" y="-72"/>
      <point x="-240" y="-21"/>
      <point x="-210" y="0" type="qcurve"/>
    </contour>
  </outline>
</glyph>
<glyph name="uni0402" format="1">
  <advance width="3799.17"/>
  <unicode hex="0402"/>
  <outline>
    <contour>
      <point x="90" y="1024" type="line"/>
      <point x="2750" y="1024" type="line"/>
      <point x="2750" y="1400" type="line"/>
      <point x="90" y="1400" type="line"/>
    </contour>
    <contour>
      <point x="1030.38" y="0" type="line"/>
      <point x="1602.38" y="0" type="line"/>
      <point x="1602.38" y="511" type="line"/>
      <point x="2962.17" y="511" type="line"/>
      <point x="3007.17" y="511"/>
      <point x="3023.17" y="487"/>
      <point x="3023.17" y="451" type="curve" smooth="yes"/>
      <point x="3023.17" y="434" type="line" smooth="yes"/>
      <point x="3023.17" y="398"/>
      <point x="3007.17" y="374"/>
      <point x="2962.17" y="374" type="curve"/>
      <point x="2554.23" y="374" type="line"/>
      <point x="2554.23" y="1" type="line"/>
      <point x="3181.17" y="1" type="line"/>
      <point x="3433.17" y="1"/>
      <point x="3595.17" y="67"/>
      <point x="3595.17" y="335" type="curve" smooth="yes"/>
      <point x="3595.17" y="561" type="line" smooth="yes"/>
      <point x="3595.17" y="829"/>
      <point x="3433.17" y="887"/>
      <point x="3181.17" y="887" type="curve" smooth="yes"/>
      <point x="1602.38" y="887" type="line"/>
      <point x="1602.38" y="1400" type="line"/>
      <point x="1030.38" y="1400" type="line"/>
    </contour>
  </outline>
</glyph>
<glyph name="uni0404" format="2">
  <advance width="2902"/>
  <unicode hex="0404"/>
  <anchor x="1471" y="1550" name="top"/>
  <outline>
    <contour>
      <point x="682" y="-14" type="line"/>
      <point x="2258" y="-14" type="line" smooth="yes"/>
      <point x="2357" y="-14"/>
      <point x="2511" y="17"/>
      <point x="2617" y="95"/>
      <point x="2672" y="229"/>
      <point x="2672" y="332" type="qcurve" smooth="yes"/>
      <point x="2672" y="463" type="line"/>
      <point x="2100" y="525" type="line"/>
      <point x="2100" y="410" type="line"/>
      <point x="2100" y="410"/>
      <point x="2100" y="410"/>
      <point x="2100" y="410"/>
      <point x="2100" y="410"/>
      <point x="2100" y="410" type="qcurve"/>
      <point x="842" y="410" type="line"/>
      <point x="842" y="410"/>
      <point x="842" y="410"/>
      <point x="842" y="410"/>
      <point x="842" y="410"/>
      <point x="842" y="410" type="qcurve"/>
      <point x="842" y="520" type="line"/>
      <point x="1951" y="520" type="line"/>
      <point x="1951" y="890" type="line"/>
      <point x="842" y="890" type="line"/>
      <point x="842" y="990" type="line"/>
      <point x="842" y="990"/>
      <point x="842" y="990"/>
      <point x="842" y="990"/>
      <point x="842" y="990"/>
      <point x="842" y="990" type="qcurve"/>
      <point x="2094" y="990" type="line"/>
      <point x="2094" y="990"/>
      <point x="2094" y="990"/>
      <point x="2094" y="990"/>
      <point x="2094" y="990"/>
      <point x="2094" y="990" type="qcurve"/>
      <point x="2094" y="880" type="line"/>
      <point x="2666" y="942" type="line"/>
      <point x="2666" y="1080" type="line" smooth="yes"/>
      <point x="2666" y="1181"/>
      <point x="2608" y="1310"/>
      <point x="2500" y="1385"/>
      <point x="2347" y="1414"/>
      <point x="2252" y="1414" type="qcurve" smooth="yes"/>
      <point x="682" y="1414" type="line" smooth="yes"/>
      <point x="588" y="1414"/>
      <point x="435" y="1385"/>
      <point x="328" y="1310"/>
      <point x="270" y="1181"/>
      <point x="270" y="1080" type="qcurve" smooth="yes"/>
      <point x="270" y="332" type="line" smooth="yes"/>
      <point x="270" y="229"/>
      <point x="325" y="95"/>
      <point x="430" y="17"/>
      <point x="583" y="-14"/>
      <point x="682" y="-14" type="qcurve"/>
    </contour>
  </outline>
  <guideline x="1831" color="1,0,0,1"/>
</glyph>
<glyph name="uni0409" format="1">
  <advance width="4914"/>
  <unicode hex="0409"/>
  <outline>
    <contour>
      <point x="0" y="0" type="line"/>
      <point x="747" y="0" type="line"/>
      <point x="1859" y="956" type="line"/>
      <point x="2304" y="956" type="line"/>
      <point x="2304" y="1400" type="line"/>
      <point x="1627" y="1400" type="line"/>
    </contour>
    <contour>
      <point x="2213" y="0" type="line"/>
      <point x="4306" y="0" type="line" smooth="yes"/>
      <point x="4549" y="0"/>
      <point x="4710" y="64"/>
      <point x="4710" y="324" type="curve" smooth="yes"/>
      <point x="4710" y="674" type="line" smooth="yes"/>
      <point x="4710" y="942"/>
      <point x="4549" y="1000"/>
      <point x="4306" y="1000" type="curve" smooth="yes"/>
      <point x="2785" y="1000" type="line"/>
      <point x="2785" y="1400" type="line"/>
      <point x="2213" y="1400" type="line"/>
    </contour>
    <contour>
      <point x="2785" y="439" type="line"/>
      <point x="2785" y="560" type="line"/>
      <point x="4083" y="560" type="line" smooth="yes"/>
      <point x="4124" y="560"/>
      <point x="4138" y="539"/>
      <point x="4138" y="509" type="curve" smooth="yes"/>
      <point x="4138" y="490" type="line" smooth="yes"/>
      <point x="4138" y="460"/>
      <point x="4124" y="439"/>
      <point x="4083" y="439" type="curve" smooth="yes"/>
    </contour>
  </outline>
</glyph>
<glyph name="uni040A" format="1">
  <advance width="4888"/>
  <unicode hex="040A"/>
  <outline>
    <contour>
      <point x="360" y="0" type="line"/>
      <point x="932" y="0" type="line"/>
      <point x="932" y="1400" type="line"/>
      <point x="360" y="1400" type="line"/>
    </contour>
    <contour>
      <point x="905" y="536" type="line"/>
      <point x="2213" y="536" type="line"/>
      <point x="2213" y="1000" type="line"/>
      <point x="905" y="1000" type="line"/>
    </contour>
    <contour>
      <point x="2186" y="0" type="line"/>
      <point x="4280" y="0" type="line" smooth="yes"/>
      <point x="4523" y="0"/>
      <point x="4684" y="64.098"/>
      <point x="4684" y="324.375" type="curve" smooth="yes"/>
      <point x="4684" y="674" type="line" smooth="yes"/>
      <point x="4684" y="942"/>
      <point x="4523" y="1000"/>
      <point x="4280" y="1000" type="curve" smooth="yes"/>
      <point x="2758" y="1000" type="line"/>
      <point x="2758" y="1400" type="line"/>
      <point x="2186" y="1400" type="line"/>
    </contour>
    <contour>
      <point x="2758" y="439" type="line"/>
      <point x="2758" y="560" type="line"/>
      <point x="4056" y="560" type="line" smooth="yes"/>
      <point x="4097" y="560"/>
      <point x="4111" y="539.404"/>
      <point x="4111" y="508.511" type="curve" smooth="yes"/>
      <point x="4111" y="490.489" type="line" smooth="yes"/>
      <point x="4111" y="459.596"/>
      <point x="4097" y="439"/>
      <point x="4056" y="439" type="curve" smooth="yes"/>
    </contour>
  </outline>
</glyph>
<glyph name="uni040B" format="1">
  <advance width="3799.17"/>
  <unicode hex="040B"/>
  <outline>
    <contour>
      <point x="90" y="1024" type="line"/>
      <point x="2750" y="1024" type="line"/>
      <point x="2750" y="1400" type="line"/>
      <point x="90" y="1400" type="line"/>
    </contour>
    <contour>
      <point x="1030.38" y="0" type="line"/>
      <point x="1602.38" y="0" type="line"/>
      <point x="1602.38" y="510" type="line"/>
      <point x="2962.17" y="510" type="line" smooth="yes"/>
      <point x="3007.17" y="510"/>
      <point x="3023.17" y="486"/>
      <point x="3023.17" y="450" type="curve" smooth="yes"/>
      <point x="3023.17" y="0" type="line"/>
      <point x="3595.17" y="0" type="line"/>
      <point x="3595.17" y="560" type="line" smooth="yes"/>
      <point x="3595.17" y="828"/>
      <point x="3433.17" y="886"/>
      <point x="3181.17" y="886" type="curve" smooth="yes"/>
      <point x="1602.38" y="886" type="line"/>
      <point x="1602.38" y="1400" type="line"/>
      <point x="1030.38" y="1400" type="line"/>
    </contour>
  </outline>
</glyph>
<glyph name="uni040F" format="2">
  <advance width="3045"/>
  <unicode hex="040F"/>
  <outline>
    <contour>
      <point x="300" y="0" type="line"/>
      <point x="1268" y="0" type="line"/>
      <point x="1294" y="-260" type="line"/>
      <point x="1778" y="-260" type="line"/>
      <point x="1778" y="0" type="line"/>
      <point x="2745" y="0" type="line"/>
      <point x="2745" y="1400" type="line"/>
      <point x="2173" y="1400" type="line"/>
      <point x="2173" y="464" type="line"/>
      <point x="872" y="464" type="line"/>
      <point x="872" y="1400" type="line"/>
      <point x="300" y="1400" type="line"/>
    </contour>
  </outline>
  <guideline x="1523" color="1,0,0,1"/>
</glyph>
<glyph name="uni0411" format="1">
  <advance width="3412"/>
  <unicode hex="0411"/>
  <outline>
    <contour>
      <point x="360" y="0" type="line"/>
      <point x="2794" y="0" type="line" smooth="yes"/>
      <point x="3046" y="0"/>
      <point x="3208" y="66"/>
      <point x="3208" y="334" type="curve" smooth="yes"/>
      <point x="3208" y="560" type="line" smooth="yes"/>
      <point x="3208" y="828"/>
      <point x="3046" y="886"/>
      <point x="2794" y="886" type="curve" smooth="yes"/>
      <point x="932" y="886" type="line"/>
      <point x="932" y="1400" type="line"/>
      <point x="360" y="1400" type="line"/>
    </contour>
    <contour>
      <point x="932" y="376" type="line"/>
      <point x="932" y="516" type="line"/>
      <point x="2575" y="516" type="line" smooth="yes"/>
      <point x="2620" y="516"/>
      <point x="2636" y="492"/>
      <point x="2636" y="456" type="curve" smooth="yes"/>
      <point x="2636" y="436" type="line" smooth="yes"/>
      <point x="2636" y="400"/>
      <point x="2620" y="376"/>
      <point x="2575" y="376" type="curve" smooth="yes"/>
    </contour>
    <contour>
      <point x="646" y="1024" type="line"/>
      <point x="3071.3" y="1024" type="line"/>
      <point x="3071.3" y="1400" type="line"/>
      <point x="646" y="1400" type="line"/>
    </contour>
  </outline>
</glyph>
<glyph name="uni0413" format="1">
  <advance width="2316.28"/>
  <unicode hex="0413"/>
  <outline>
    <contour>
      <point x="360" y="0" type="line"/>
      <point x="932" y="0" type="line"/>
      <point x="932" y="916" type="line"/>
      <point x="2226.28" y="916" type="line"/>
      <point x="2226.28" y="1400" type="line"/>
      <point x="360" y="1400" type="line"/>
    </contour>
  </outline>
</glyph>
<glyph name="uni0414" format="1">
  <advance width="2987"/>
  <unicode hex="0414"/>
  <outline>
    <contour>
      <point x="62" y="0" type="line"/>
      <point x="748" y="0" type="line"/>
      <point x="1728" y="1206" type="line"/>
      <point x="1728" y="1400" type="line"/>
      <point x="1212" y="1400" type="line"/>
    </contour>
    <contour>
      <point x="1214" y="1206" type="line"/>
      <point x="2206" y="0" type="line"/>
      <point x="2944" y="0" type="line"/>
      <point x="1760" y="1400" type="line"/>
      <point x="1214" y="1400" type="line"/>
    </contour>
    <contour>
      <point x="748" y="0" type="line"/>
      <point x="2206" y="0" type="line"/>
      <point x="2206" y="404" type="line"/>
      <point x="748" y="404" type="line"/>
    </contour>
    <contour>
      <point x="2472.6" y="-260" type="line"/>
      <point x="2957" y="-260" type="line"/>
      <point x="2957" y="464" type="line"/>
      <point x="2347.5" y="464" type="line"/>
      <point x="2347.5" y="0" type="line"/>
      <point x="2447" y="0" type="line"/>
    </contour>
    <contour>
      <point x="514.4" y="-260" type="line"/>
      <point x="30" y="-260" type="line"/>
      <point x="30" y="464" type="line"/>
      <point x="639.5" y="464" type="line"/>
      <point x="639.5" y="0" type="line"/>
      <point x="540" y="0" type="line"/>
    </contour>
  </outline>
</glyph>
<glyph name="uni0416" format="1">
  <advance width="4440"/>
  <unicode hex="0416"/>
  <outline>
    <contour>
      <point x="3477" y="0" type="line"/>
      <point x="4440" y="0" type="line"/>
      <point x="2987" y="855" type="line"/>
      <point x="2987" y="672" type="line"/>
      <point x="4351" y="1400" type="line"/>
      <point x="3540" y="1400" type="line"/>
      <point x="2309" y="721" type="line"/>
    </contour>
    <contour>
      <point x="1934" y="0" type="line"/>
      <point x="2506" y="0" type="line"/>
      <point x="2506" y="1400" type="line"/>
      <point x="1934" y="1400" type="line"/>
    </contour>
    <contour>
      <point x="2131" y="721" type="line"/>
      <point x="900" y="1400" type="line"/>
      <point x="89" y="1400" type="line"/>
      <point x="1453" y="672" type="line"/>
      <point x="1453" y="855" type="line"/>
      <point x="0" y="0" type="line"/>
      <point x="963" y="0" type="line"/>
    </contour>
    <contour>
      <point x="2220" y="1550" type="move" name="top"/>
    </contour>
    <contour>
      <point x="2220" y="-150" type="move" name="bottom"/>
    </contour>
  </outline>
</glyph>
<glyph name="uni0417" format="1">
  <advance width="3418"/>
  <unicode hex="0417"/>
  <outline>
    <contour>
      <point x="360" y="418" type="line"/>
      <point x="360" y="320" type="line" smooth="yes"/>
      <point x="360" y="66"/>
      <point x="506" y="0"/>
      <point x="748" y="0" type="curve" smooth="yes"/>
      <point x="2680" y="0" type="line" smooth="yes"/>
      <point x="2932" y="0"/>
      <point x="3078" y="106"/>
      <point x="3078" y="366" type="curve" smooth="yes"/>
      <point x="3078" y="430" type="line" smooth="yes"/>
      <point x="3078" y="564"/>
      <point x="3015" y="648"/>
      <point x="2896" y="700" type="curve"/>
      <point x="3005" y="755"/>
      <point x="3062" y="841"/>
      <point x="3062" y="970" type="curve" smooth="yes"/>
      <point x="3062" y="1034" type="line" smooth="yes"/>
      <point x="3062" y="1294"/>
      <point x="2916" y="1400"/>
      <point x="2664" y="1400" type="curve" smooth="yes"/>
      <point x="748" y="1400" type="line" smooth="yes"/>
      <point x="486" y="1400"/>
      <point x="360" y="1296"/>
      <point x="360" y="1092" type="curve" smooth="yes"/>
      <point x="360" y="964" type="line"/>
      <point x="832" y="880" type="line"/>
      <point x="832" y="1028" type="line"/>
      <point x="832" y="1028"/>
      <point x="832" y="1028"/>
      <point x="832" y="1028" type="curve"/>
      <point x="2446" y="1028" type="line" smooth="yes"/>
      <point x="2498" y="1028"/>
      <point x="2522" y="1004"/>
      <point x="2522" y="968" type="curve" smooth="yes"/>
      <point x="2522" y="947" type="line" smooth="yes"/>
      <point x="2522" y="911"/>
      <point x="2498" y="887"/>
      <point x="2446" y="887" type="curve" smooth="yes"/>
      <point x="1151.64" y="887" type="line"/>
      <point x="1151.64" y="527" type="line"/>
      <point x="2446" y="527" type="line" smooth="yes"/>
      <point x="2498" y="527"/>
      <point x="2522" y="503"/>
      <point x="2522" y="467" type="curve" smooth="yes"/>
      <point x="2522" y="436" type="line" smooth="yes"/>
      <point x="2522" y="400"/>
      <point x="2498" y="376"/>
      <point x="2446" y="376" type="curve" smooth="yes"/>
      <point x="832" y="376" type="line"/>
      <point x="832" y="376"/>
      <point x="832" y="376"/>
      <point x="832" y="376" type="curve"/>
      <point x="832" y="502" type="line"/>
    </contour>
    <contour>
      <point x="1719" y="1550" type="move" name="top"/>
    </contour>
  </outline>
</glyph>
<glyph name="uni0418" format="1">
  <advance width="3344"/>
  <unicode hex="0418"/>
  <outline>
    <contour>
      <point x="360" y="0" type="line"/>
      <point x="824" y="0" type="line"/>
      <point x="2858.84" y="1072.67" type="line"/>
      <point x="2412" y="1072.67" type="line"/>
      <point x="2412" y="0" type="line"/>
      <point x="2984" y="0" type="line"/>
      <point x="2984" y="1400" type="line"/>
      <point x="2522" y="1400" type="line"/>
      <point x="560" y="365.837" type="line"/>
      <point x="932" y="365.837" type="line"/>
      <point x="932" y="1400" type="line"/>
      <point x="360" y="1400" type="line"/>
    </contour>
    <contour>
      <point x="1672" y="-150" type="move" name="bottom"/>
    </contour>
    <contour>
      <point x="1672" y="1550" type="move" name="top"/>
    </contour>
  </outline>
</glyph>
<glyph name="uni041B" format="1">
  <advance width="2912"/>
  <unicode hex="041B"/>
  <outline>
    <contour>
      <point x="0" y="0" type="line"/>
      <point x="686" y="0" type="line"/>
      <point x="1686" y="1206" type="line"/>
      <point x="1686" y="1400" type="line"/>
      <point x="1170" y="1400" type="line"/>
    </contour>
    <contour>
      <point x="1172" y="1206" type="line"/>
      <point x="2174" y="0" type="line"/>
      <point x="2912" y="0" type="line"/>
      <point x="1718" y="1400" type="line"/>
      <point x="1172" y="1400" type="line"/>
    </contour>
  </outline>
</glyph>
<glyph name="uni041F" format="1">
  <advance width="3294"/>
  <unicode hex="041F"/>
  <outline>
    <contour>
      <point x="360" y="0" type="line"/>
      <point x="932" y="0" type="line"/>
      <point x="932" y="1400" type="line"/>
      <point x="360" y="1400" type="line"/>
    </contour>
    <contour>
      <point x="2362" y="0" type="line"/>
      <point x="2934" y="0" type="line"/>
      <point x="2934" y="1400" type="line"/>
      <point x="2362" y="1400" type="line"/>
    </contour>
    <contour>
      <point x="902" y="936" type="line"/>
      <point x="2392" y="936" type="line"/>
      <point x="2392" y="1400" type="line"/>
      <point x="902" y="1400" type="line"/>
    </contour>
  </outline>
</glyph>
<glyph name="uni0423" format="1">
  <advance width="3184"/>
  <unicode hex="0423"/>
  <outline>
    <contour>
      <point x="360" y="444" type="line"/>
      <point x="360" y="338" type="line" smooth="yes"/>
      <point x="360" y="56"/>
      <point x="516" y="-14"/>
      <point x="770" y="-14" type="curve" smooth="yes"/>
      <point x="2389" y="-14" type="line" smooth="yes"/>
      <point x="2659" y="-14"/>
      <point x="2824" y="46"/>
      <point x="2824" y="330" type="curve" smooth="yes"/>
      <point x="2824" y="1400" type="line"/>
      <point x="2248" y="1400" type="line"/>
      <point x="2248" y="954" type="line"/>
      <point x="966" y="954" type="line"/>
      <point x="966" y="954"/>
      <point x="966" y="954"/>
      <point x="966" y="954" type="curve"/>
      <point x="966" y="1400" type="line"/>
      <point x="390" y="1400" type="line"/>
      <point x="390" y="912" type="line" smooth="yes"/>
      <point x="390" y="630"/>
      <point x="552" y="568"/>
      <point x="820" y="568" type="curve" smooth="yes"/>
      <point x="2248" y="568" type="line"/>
      <point x="2248" y="382" type="line"/>
      <point x="2248" y="382"/>
      <point x="2248" y="382"/>
      <point x="2248" y="382" type="curve"/>
      <point x="916" y="382" type="line"/>
      <point x="916" y="382"/>
      <point x="916" y="382"/>
      <point x="916" y="382" type="curve"/>
      <point x="916" y="496" type="line"/>
    </contour>
    <contour>
      <point x="1592" y="1550" type="move" name="top"/>
    </contour>
  </outline>
</glyph>
<glyph name="uni0424" format="1">
  <advance width="3890.8"/>
  <unicode hex="0424"/>
  <outline>
    <contour>
      <point x="1945.4" y="853.279" type="line"/>
      <point x="2933.8" y="853.279" type="line" smooth="yes"/>
      <point x="2978.8" y="853.279"/>
      <point x="2994.8" y="829.279"/>
      <point x="2994.8" y="793.279" type="curve" smooth="yes"/>
      <point x="2994.8" y="670" type="line" smooth="yes"/>
      <point x="2994.8" y="634"/>
      <point x="2978.4" y="610"/>
      <point x="2933.8" y="610" type="curve" smooth="yes"/>
      <point x="1945.4" y="610" type="line"/>
      <point x="1945.4" y="170" type="line"/>
      <point x="3136.8" y="170" type="line" smooth="yes"/>
      <point x="3388.8" y="170"/>
      <point x="3550.8" y="228"/>
      <point x="3550.8" y="496" type="curve" smooth="yes"/>
      <point x="3550.8" y="959.279" type="line" smooth="yes"/>
      <point x="3550.8" y="1227.28"/>
      <point x="3388.4" y="1293.28"/>
      <point x="3136.8" y="1293.28" type="curve" smooth="yes"/>
      <point x="1945.4" y="1293.28" type="line"/>
    </contour>
    <contour>
      <point x="1659" y="0" type="line"/>
      <point x="2231" y="0" type="line"/>
      <point x="2231" y="390" type="line"/>
      <point x="2231" y="390" type="line"/>
      <point x="2231" y="1073" type="line"/>
      <point x="2231" y="1073" type="line"/>
      <point x="2231" y="1448" type="line"/>
      <point x="1659" y="1448" type="line"/>
      <point x="1659" y="1073" type="line"/>
      <point x="1659" y="1073" type="line"/>
      <point x="1659" y="390" type="line"/>
      <point x="1659" y="390" type="line"/>
    </contour>
    <contour>
      <point x="1945.4" y="853.279" type="line"/>
      <point x="957" y="853.279" type="line" smooth="yes"/>
      <point x="912" y="853.279"/>
      <point x="896" y="829.279"/>
      <point x="896" y="793.279" type="curve" smooth="yes"/>
      <point x="896" y="670" type="line" smooth="yes"/>
      <point x="896" y="634"/>
      <point x="912.4" y="610"/>
      <point x="957" y="610" type="curve" smooth="yes"/>
      <point x="1945.4" y="610" type="line"/>
      <point x="1945.4" y="170" type="line"/>
      <point x="754" y="170" type="line" smooth="yes"/>
      <point x="502" y="170"/>
      <point x="340" y="228"/>
      <point x="340" y="496" type="curve" smooth="yes"/>
      <point x="340" y="959.279" type="line" smooth="yes"/>
      <point x="340" y="1227.28"/>
      <point x="502.4" y="1293.28"/>
      <point x="754" y="1293.28" type="curve" smooth="yes"/>
      <point x="1945.4" y="1293.28" type="line"/>
    </contour>
    <contour>
      <point x="2971" y="1550" type="move" name="top"/>
    </contour>
    <contour>
      <point x="2971" y="-150" type="move" name="bottom"/>
    </contour>
  </outline>
</glyph>
<glyph name="uni0426" format="1">
  <advance width="3525"/>
  <unicode hex="0426"/>
  <outline>
    <contour>
      <point x="2233" y="0" type="line"/>
      <point x="2805" y="0" type="line"/>
      <point x="2805" y="1400" type="line"/>
      <point x="2233" y="1400" type="line"/>
    </contour>
    <contour>
      <point x="360" y="0" type="line"/>
      <point x="932" y="0" type="line"/>
      <point x="932" y="1400" type="line"/>
      <point x="360" y="1400" type="line"/>
    </contour>
    <contour>
      <point x="902" y="0" type="line"/>
      <point x="2233" y="0" type="line"/>
      <point x="2233" y="464" type="line"/>
      <point x="902" y="464" type="line"/>
    </contour>
    <contour>
      <point x="2700" y="-260" type="line"/>
      <point x="3185" y="-260" type="line"/>
      <point x="3185" y="464" type="line"/>
      <point x="2575" y="464" type="line"/>
      <point x="2575" y="0" type="line" name="att"/>
      <point x="2675" y="0" type="line"/>
    </contour>
  </outline>
</glyph>
<glyph name="uni0427" format="1">
  <advance width="3134"/>
  <unicode hex="0427"/>
  <outline>
    <contour>
      <point x="2198" y="0" type="line"/>
      <point x="2774" y="0" type="line"/>
      <point x="2774" y="1400" type="line"/>
      <point x="2198" y="1400" type="line"/>
      <point x="2198" y="814" type="line"/>
      <point x="916" y="814" type="line"/>
      <point x="916" y="814"/>
      <point x="916" y="814"/>
      <point x="916" y="814" type="curve"/>
      <point x="916" y="1400" type="line"/>
      <point x="340" y="1400" type="line"/>
      <point x="340" y="772" type="line" smooth="yes"/>
      <point x="340" y="490"/>
      <point x="502" y="428"/>
      <point x="770" y="428" type="curve" smooth="yes"/>
      <point x="2198" y="428" type="line"/>
    </contour>
  </outline>
</glyph>
<glyph name="uni0428" format="1">
  <advance width="4272"/>
  <unicode hex="0428"/>
  <outline>
    <contour>
      <point x="3340" y="0" type="line"/>
      <point x="3912" y="0" type="line"/>
      <point x="3912" y="1400" type="line"/>
      <point x="3340" y="1400" type="line"/>
    </contour>
    <contour>
      <point x="360" y="0" type="line"/>
      <point x="932" y="0" type="line"/>
      <point x="932" y="1400" type="line"/>
      <point x="360" y="1400" type="line"/>
    </contour>
    <contour>
      <point x="902" y="0" type="line"/>
      <point x="3370" y="0" type="line"/>
      <point x="3370" y="464" type="line"/>
      <point x="902" y="464" type="line"/>
    </contour>
    <contour>
      <point x="1850" y="0" type="line"/>
      <point x="2422" y="0" type="line"/>
      <point x="2422" y="1400" type="line"/>
      <point x="1850" y="1400" type="line"/>
    </contour>
  </outline>
</glyph>
<glyph name="uni0429" format="1">
  <advance width="4632"/>
  <unicode hex="0429"/>
  <outline>
    <contour>
      <point x="3340" y="0" type="line"/>
      <point x="3912" y="0" type="line"/>
      <point x="3912" y="1400" type="line"/>
      <point x="3340" y="1400" type="line"/>
    </contour>
    <contour>
      <point x="360" y="0" type="line"/>
      <point x="932" y="0" type="line"/>
      <point x="932" y="1400" type="line"/>
      <point x="360" y="1400" type="line"/>
    </contour>
    <contour>
      <point x="902" y="0" type="line"/>
      <point x="3370" y="0" type="line"/>
      <point x="3370" y="464" type="line"/>
      <point x="902" y="464" type="line"/>
    </contour>
    <contour>
      <point x="1850" y="0" type="line"/>
      <point x="2422" y="0" type="line"/>
      <point x="2422" y="1400" type="line"/>
      <point x="1850" y="1400" type="line"/>
    </contour>
    <contour>
      <point x="3807" y="-260" type="line"/>
      <point x="4292" y="-260" type="line"/>
      <point x="4292" y="464" type="line"/>
      <point x="3682" y="464" type="line"/>
      <point x="3682" y="0" type="line" name="att"/>
      <point x="3782" y="0" type="line"/>
    </contour>
  </outline>
</glyph>
<glyph name="uni042A" format="1">
  <advance width="3613.12"/>
  <unicode hex="042A"/>
  <outline>
    <contour>
      <point x="772.184" y="0" type="line"/>
      <point x="2995.12" y="0" type="line" smooth="yes"/>
      <point x="3247.12" y="0"/>
      <point x="3409.12" y="66"/>
      <point x="3409.12" y="334" type="curve" smooth="yes"/>
      <point x="3409.12" y="694" type="line" smooth="yes"/>
      <point x="3409.12" y="962"/>
      <point x="3247.12" y="1020"/>
      <point x="2995.12" y="1020" type="curve" smooth="yes"/>
      <point x="1344.18" y="1020" type="line"/>
      <point x="1344.18" y="1400" type="line"/>
      <point x="772.184" y="1400" type="line"/>
    </contour>
    <contour>
      <point x="1344.18" y="440" type="line"/>
      <point x="1344.18" y="580" type="line"/>
      <point x="2776.12" y="580" type="line" smooth="yes"/>
      <point x="2821.12" y="580"/>
      <point x="2837.12" y="556"/>
      <point x="2837.12" y="520" type="curve" smooth="yes"/>
      <point x="2837.12" y="500" type="line" smooth="yes"/>
      <point x="2837.12" y="464"/>
      <point x="2821.12" y="440"/>
      <point x="2776.12" y="440" type="curve" smooth="yes"/>
    </contour>
    <contour>
      <point x="90" y="956" type="line"/>
      <point x="1344.18" y="956" type="line"/>
      <point x="1344.18" y="1400" type="line"/>
      <point x="90" y="1400" type="line"/>
    </contour>
  </outline>
</glyph>
